<?xml version="1.0" standalone="no"?>
<!DOCTYPE svg PUBLIC "-//W3C//DTD SVG 20010904//EN"
 "http://www.w3.org/TR/2001/REC-SVG-20010904/DTD/svg10.dtd">
<svg version="1.0" xmlns="http://www.w3.org/2000/svg"
 width="50.000000pt" height="50.000000pt" viewBox="0 0 50.000000 50.000000"
 preserveAspectRatio="xMidYMid meet">

<g transform="translate(0.000000,50.000000) scale(0.100000,-0.100000)"
fill="#000000" stroke="none">
<path d="M125 370 c-18 -20 -18 -21 35 -75 l54 -55 -54 -55 c-53 -54 -53 -55
-35 -75 l19 -21 51 51 c28 27 55 50 60 50 5 0 32 -23 60 -50 l51 -51 19 21
c18 20 18 21 -35 75 l-54 55 54 55 c53 54 53 55 35 75 l-19 21 -51 -51 c-28
-27 -55 -50 -60 -50 -5 0 -32 23 -60 50 l-51 51 -19 -21z"/>
</g>
</svg>
