<?xml version="1.0" standalone="no"?>
<!DOCTYPE svg PUBLIC "-//W3C//DTD SVG 1.1//EN" "http://www.w3.org/Graphics/SVG/1.1/DTD/svg11.dtd" >
<svg xmlns="http://www.w3.org/2000/svg" xmlns:xlink="http://www.w3.org/1999/xlink" version="1.1">
<metadata></metadata>
<defs>
<font id="sk_femme_fataleregular" horiz-adv-x="1435" >
<font-face units-per-em="2048" ascent="1638" descent="-410" />
<missing-glyph horiz-adv-x="716" />
<glyph horiz-adv-x="0" />
<glyph horiz-adv-x="0" />
<glyph horiz-adv-x="682" />
<glyph unicode=" "  horiz-adv-x="716" />
<glyph unicode="&#x09;" horiz-adv-x="716" />
<glyph unicode="&#xa0;" horiz-adv-x="716" />
<glyph unicode="!" horiz-adv-x="942" d="M61 1434h820q-78 0 -134.5 -15.5t-96.5 -60.5t-65.5 -125t-43.5 -209q-4 -27 -13.5 -114t-20.5 -199.5t-21.5 -236.5t-14.5 -228q-2 104 -11 228t-20.5 236.5t-19.5 199.5t-12 114q-14 129 -43 209t-72 125t-100.5 60.5t-131.5 15.5zM348 88q0 53 37 89t86 36 q47 0 85 -36t38 -89q0 -51 -38 -86t-85 -35q-49 0 -86 35t-37 86z" />
<glyph unicode="&#x22;" horiz-adv-x="964" d="M61 1434h842q-33 -6 -61.5 -10.5t-50 -19.5t-38 -46t-28.5 -88q-10 -45 -25.5 -141.5t-25.5 -219.5q-10 123 -27.5 220.5t-30.5 140.5q-27 90 -59.5 122.5t-75.5 32.5q-45 0 -74.5 -32.5t-48.5 -122.5q-10 -45 -25.5 -141.5t-25.5 -219.5q-10 123 -27.5 220.5 t-29.5 140.5q-16 57 -35.5 88t-43.5 46t-50.5 19t-59.5 11z" />
<glyph unicode="#" horiz-adv-x="1546" d="M61 0q35 4 79 8t86 22.5t78 59.5t56 115q18 76 29.5 123t8.5 73.5t-21.5 35.5t-57.5 9q-51 0 -91 -33.5t-70.5 -85t-53 -110.5t-38.5 -111l344 1172q-18 -72 -25.5 -123t2.5 -83t44 -45t97 -9q29 2 51.5 12t32.5 45l66 223q16 53 6 86t-40 53.5t-75 29t-98 8.5h1014 q-35 -2 -79 -7.5t-86 -24t-78 -59.5t-56 -114q-25 -90 -39 -141.5t-13 -76t22.5 -29.5t70.5 -3q45 0 77.5 16.5t57 48t45 80.5t43.5 115l-338 -1174q12 53 22.5 111.5t8.5 110t-20.5 85t-63.5 33.5q-51 0 -80 -8t-46.5 -36.5t-30.5 -82t-36 -143.5q-12 -53 -2 -87t39 -53.5 t73 -27.5t99 -8h-1014zM235.5 541q22.5 -43 100.5 -45q53 0 77.5 7t41 39.5t33 99.5t53.5 183q27 88 9 117t-69 29q-55 0 -94 -25.5t-66.5 -66.5t-45 -90.5t-31.5 -98.5q-31 -106 -8.5 -149zM490.5 42q19.5 -38 84.5 -38q49 0 81 31t55 102q35 111 55 173.5t20 92 t-23.5 36.5t-74.5 7q-53 0 -80.5 -9t-44 -37.5t-31 -85t-38.5 -148.5q-23 -86 -3.5 -124zM616.5 512q16.5 -18 88.5 -18q41 0 77.5 12t57.5 78l84 284q12 39 13 60.5t-12.5 31t-43 10.5t-78.5 1q-29 0 -55.5 -12.5t-38.5 -53.5l-91 -309q-18 -66 -1.5 -84zM766 1102 q-14 -51 5.5 -66.5t84.5 -15.5q53 0 79 10t43 41t31.5 87t41.5 151q25 86 5 123.5t-85 37.5q-43 0 -71 -20t-48.5 -64.5t-38.5 -115t-47 -168.5zM980 550q-3 -40 19.5 -48t75.5 -8q80 0 125 47t76 153q12 47 18 97.5t1 90.5t-24.5 65.5t-56.5 25.5q-63 0 -92.5 -13.5 t-42.5 -54.5q-43 -150 -69.5 -232.5t-29.5 -122.5z" />
<glyph unicode="$" horiz-adv-x="1284" d="M61 0l142 764q0 -82 -5 -159t-2 -146.5t19 -130t55 -111.5t106.5 -90t174.5 -64q35 -10 47 -10q31 0 31 47l-2 607q0 23 -7.5 30.5t-21.5 12.5q-27 6 -72 14t-97 24.5t-106.5 42t-99.5 66.5t-76.5 98.5t-35.5 134.5q-8 100 30.5 167t106 106t158 55.5t186.5 16.5 q18 0 25.5 10t7.5 43v59q0 61 -13.5 98t-56.5 58.5t-122 32t-212 16.5h858q-131 -6 -211 -16.5t-123 -32t-56 -58t-13 -98.5v-67q0 -29 4 -37t22 -13q78 -4 150 -14t131 -22l166 -654q-78 283 -190.5 437.5t-247.5 189.5q-23 4 -29 -2t-6 -41v-530q2 -37 7 -47.5t26 -14.5 q88 -20 167.5 -38.5t145 -48.5t114 -80t70.5 -134q29 -109 2.5 -204t-94 -164.5t-169 -106.5t-222.5 -27q-41 2 -44 -14t-3 -68q2 -74 13 -117.5t51 -68.5t120 -35t219 -16h-858q137 6 218 16t123 34t54.5 68t12.5 119v57.5t-8.5 29t-28 17.5t-57.5 23q-125 47 -209 71 t-138 24q-55 0 -83.5 -27t-43.5 -82zM356 1114q8 -41 25.5 -86t45.5 -87t69 -78t96 -58q23 -6 29 3t6 50l-2 506q0 37 -10.5 45t-30.5 6q-129 -10 -193 -84t-35 -217zM676 139q0 -31 2 -48t8 -24.5t17.5 -7.5t31.5 2q68 18 119 61.5t81 102t38 129t-8 142.5q-16 66 -77 124 t-186 99q-20 6 -23 -4t-3 -41v-535z" />
<glyph unicode="%" horiz-adv-x="1615" d="M63 0q111 2 182.5 6t118 17.5t74 41t47.5 78.5l539 1262q16 37 44 53.5t81 16.5h401q-111 -2 -182.5 -6.5t-117.5 -17.5t-72.5 -41t-49.5 -79l-538 -1261q-16 -37 -44 -53.5t-81 -16.5h-402zM68 1085q-10 70 2 136.5t47 122t90 93.5t129 48q80 12 148.5 -8.5t119.5 -61.5 t85 -100.5t44 -126.5q10 -70 0 -137.5t-42 -122t-87 -92.5t-137 -50t-150.5 7.5t-121 61.5t-85 101.5t-42.5 128.5zM173 1261.5q1 -51.5 19.5 -109.5t49.5 -112q47 -90 117.5 -146t140.5 -56q38 0 65 16q37 20 52.5 59t12.5 89.5t-21.5 107.5t-49.5 113q-47 90 -117.5 149.5 t-138.5 59.5q-29 0 -61 -17q-37 -20 -53.5 -61t-15.5 -92.5zM883 270q-10 70 2 136.5t47 122t90 93t129 48.5q80 12 148.5 -8.5t119.5 -61.5t85 -100.5t44 -126.5q10 -70 0 -137.5t-41.5 -122t-87 -92.5t-137.5 -50t-150.5 7.5t-121 61.5t-85 101.5t-42.5 128.5zM988 446.5 q1 -51.5 19.5 -109.5t49.5 -112q47 -90 117.5 -146t140.5 -56q38 0 65 16q37 20 52.5 59t12.5 89.5t-21.5 107.5t-49.5 113q-47 90 -117.5 149t-138.5 59q-29 0 -61 -16q-37 -20 -53.5 -61t-15.5 -92.5z" />
<glyph unicode="&#x26;" horiz-adv-x="1705" d="M63 383q-4 74 14.5 135.5t50.5 109.5t73 84t82 62q29 18 40 37.5t-20 54.5q-51 59 -80.5 123t-34.5 123q-6 92 26 165t90 124t139 78.5t171 27.5q362 2 390 -309q25 -287 -357 -391q-43 -10 -53 -25.5t6 -40.5q14 -18 50 -61t79 -88t84 -80t64 -35q39 0 57 109 q29 172 63.5 285.5t91 181t145.5 94.5t226 27q41 0 84 -2.5t92 -6.5q-115 -2 -195.5 -29.5t-144 -106.5t-116 -220t-111.5 -369q-27 -102 33.5 -180t195.5 -164q59 -37 120 -56.5t110 -27.5t80.5 -9t36.5 -3h-822q74 2 128.5 15.5t83 33t30.5 45t-29 49.5q-16 14 -35 15 q-23 0 -43 -29q-55 -74 -137 -118t-207 -44q-117 0 -215 21.5t-170.5 71t-116 129t-49.5 194.5zM260 475q-4 -47 2 -108q10 -78 47 -142.5t92.5 -109.5t121 -70t128.5 -25q80 0 144 37q37 20 57 55t22.5 74t-14 79t-51.5 71q-100 92 -187 179t-157 167q-31 33 -55 33 q-23 0 -43 -25q-29 -31 -51.5 -61.5t-37 -68.5t-18.5 -85zM364.5 1319q-22.5 -94 24.5 -221q41 -115 105.5 -176.5t142.5 -61.5q39 0 82 19q88 33 112.5 129t-22.5 227q-84 225 -244 225q-37 0 -86 -16q-92 -31 -114.5 -125z" />
<glyph unicode="'" horiz-adv-x="598" d="M61 1434h476q-33 -6 -62 -11.5t-50.5 -22t-37.5 -48t-29 -88.5q-10 -45 -25.5 -138.5t-25.5 -216.5q-10 123 -27.5 217.5t-29.5 137.5q-16 57 -35.5 88.5t-43.5 48t-50.5 21.5t-59.5 12z" />
<glyph unicode="(" horiz-adv-x="1355" d="M72.5 873.5q25.5 197.5 101.5 383t200 347t292 276.5q-141 -121 -231.5 -279.5t-133.5 -337t-40 -366.5t48 -367.5t132 -339t211 -281.5t286 -195.5t356 -82.5q-285 -18 -498.5 44.5t-363 181t-238 282.5t-118 350.5t-4 384z" />
<glyph unicode=")" horiz-adv-x="1355" d="M61 1880q285 18 499 -44t363.5 -181t237.5 -283t118 -350t4 -384t-101.5 -383t-199.5 -347t-292 -277q141 121 231.5 280t133.5 337t40 366.5t-48.5 367.5t-132.5 339t-210.5 281.5t-285.5 195.5t-357 82z" />
<glyph unicode="*" horiz-adv-x="776" d="M61 1241q14 10 40 28.5t54.5 41t59.5 47t55 47.5q20 25 0 45q-25 23 -54.5 47.5t-59 47t-54 41t-39.5 28.5q25 -12 90.5 -40t137.5 -50q29 -8 42 -3t23 33q14 53 22.5 108.5t12.5 129.5q4 -74 14.5 -128t22.5 -108q8 -29 19.5 -33.5t41.5 3.5q72 23 136.5 48t89.5 38 q-14 -10 -40 -28.5t-55.5 -41t-60.5 -47.5t-55 -49q-10 -12 -6 -21.5t16 -23.5q25 -23 54.5 -47.5t57 -47t51 -40t38.5 -27.5q-12 6 -39 18.5t-59.5 27.5t-69.5 30.5t-74 27.5q-23 4 -32 -3t-17 -31q-12 -51 -20.5 -111.5t-12.5 -132.5q-4 74 -12 134.5t-23 113.5 q-10 29 -22 33t-39 -3q-35 -12 -72 -26t-68.5 -29.5t-56.5 -28z" />
<glyph unicode="+" horiz-adv-x="929" d="M61 739q51 4 109.5 8.5t112.5 8.5q59 6 92 20.5t50 54t23.5 116.5t12.5 208q4 -80 6 -139.5t7 -101.5t14.5 -69.5t25.5 -43.5q16 -14 44 -23.5t70 -13.5t101 -5t139 -3q-131 -8 -206.5 -16.5t-116.5 -27t-54.5 -51t-17.5 -92.5q-4 -53 -6 -111.5t-6 -111.5 q-2 53 -6 112.5t-9 110.5q-4 45 -11 75t-29 46q-18 23 -48 30t-75 11q-51 2 -109.5 5t-112.5 3z" />
<glyph unicode="," horiz-adv-x="421" d="M61 94q0 47 36 81t89 38q68 4 113 -29t55 -94q12 -68 -2 -125t-51 -111.5t-96.5 -107.5t-136.5 -115q78 61 132 130t81.5 127.5t30.5 97.5t-21 39q-14 0 -20.5 -9.5t-14.5 -19.5t-23.5 -19.5t-48.5 -9.5q-59 0 -91 37t-32 90z" />
<glyph unicode="-" horiz-adv-x="880" d="M61 449v253q0 59 34 84t77 25h432q72 0 112 4t60.5 26.5t28.5 69.5t14 133v-258q0 -55 -34.5 -79.5t-75.5 -24.5h-430q-72 0 -113 -4t-61.5 -26.5t-28.5 -69.5t-15 -133z" />
<glyph unicode="." horiz-adv-x="368" d="M61 88q0 53 37 89t86 36q47 0 85 -36t38 -89q0 -51 -38 -86t-85 -35q-49 0 -86 35t-37 86z" />
<glyph unicode="/" horiz-adv-x="1609" d="M61 -358q111 4 182.5 9t118 25.5t74 60.5t47.5 113l539 1842q16 53 44 76.5t81 23.5h401q-111 -4 -182.5 -9t-117.5 -25.5t-72.5 -60.5t-49.5 -114l-538 -1841q-16 -53 -44 -76.5t-81 -23.5h-402z" />
<glyph unicode="0" horiz-adv-x="1271" d="M61 748q0 147 38 279t112 231.5t180.5 158t243.5 58.5t244.5 -58.5t181.5 -158t111.5 -231.5t37.5 -279q0 -176 -36.5 -320.5t-109.5 -247t-180.5 -158t-248.5 -55.5q-129 0 -235.5 55.5t-181.5 158t-116 246.5t-41 321zM193.5 1026q-9.5 -102 19 -233t100.5 -287 q59 -106 121 -181t124.5 -121t122.5 -67.5t116 -21.5q88 0 159 49q59 41 96.5 106.5t42.5 155.5t-24 209t-100 266q-55 121 -117.5 206t-127 139t-127 80t-118.5 26q-33 0 -61.5 -8.5t-52.5 -22.5q-74 -43 -119 -118t-54.5 -177z" />
<glyph unicode="1" horiz-adv-x="948" d="M61 780q84 100 165 221t155 226.5t140.5 176.5t121.5 71q61 0 78.5 -45.5t-2.5 -139.5q-33 -160 -56.5 -329.5t-36 -323.5t-14.5 -275.5t11 -187.5q12 -63 43.5 -98t71.5 -52.5t80 -20.5t69 -3h-819q111 4 180 21.5t112 59.5t66 113.5t37 186.5q14 117 24.5 200 t17.5 155.5l14 145t18 171.5q4 41 10 77.5t6 64.5t-9 44t-32 16q-29 0 -66.5 -37.5t-92 -102t-126 -151.5t-166.5 -184z" />
<glyph unicode="2" horiz-adv-x="1220" d="M61 0q18 49 40 124t69 164t130 187t224 197q84 57 141.5 110.5t96.5 107.5t59.5 112t28.5 128q10 72 3 129.5t-33.5 96.5t-75 57.5t-123.5 11.5q-57 -4 -123 -45t-129.5 -120.5t-122 -199.5t-103.5 -280l166 654q78 10 172 25.5t189 15.5q88 0 168 -15.5t140 -54.5 t94 -104.5t28 -167.5q-6 -96 -63.5 -168t-138.5 -129.5t-174 -106.5t-173 -98q-82 -51 -145.5 -123t-97.5 -146.5t-33 -141t49 -109.5q25 -20 50 -34t62 -20t88 -8t127 -2q172 0 257 54.5t116 151.5t21.5 233.5t-27.5 297.5l141 -784h-1098z" />
<glyph unicode="3" horiz-adv-x="1259" d="M61 0l142 764q-2 -129 -9.5 -239.5t19.5 -199.5t102.5 -155t235.5 -104q29 -6 55 -7q96 0 181 65.5t124 166.5q47 121 54.5 221t-14 172t-66.5 108.5t-103 30.5q-47 -6 -81.5 -31.5t-63.5 -58.5t-55.5 -65.5t-57.5 -55.5q-35 -23 -74.5 -38t-74.5 -15q-53 0 -78 37 q-16 25 -16 55.5t13 60t38.5 57.5t58.5 48q96 59 177 89t145.5 56.5t109.5 62.5t70 105q20 59 22.5 111.5t-14 91.5t-49.5 62.5t-82 25.5q-96 4 -178 -49t-148.5 -143t-117 -208t-82.5 -241l166 654q78 16 168 28.5t176 12.5q76 0 142.5 -13.5t112.5 -47.5t65.5 -92 t0.5 -146q-14 -70 -44 -112t-76 -69.5t-108.5 -45t-141.5 -40.5q-119 -33 -175.5 -83t-35.5 -76q6 -8 14 -9q16 0 38.5 21.5t59.5 47.5t89.5 49.5t123.5 29.5q78 6 146.5 -19.5t121 -80t82 -135.5t29.5 -185q0 -106 -30.5 -197.5t-87 -159t-137.5 -105.5t-181 -38 q-108 0 -225 45q-123 47 -207 72t-137 25q-57 0 -87 -27t-45 -84z" />
<glyph unicode="4" horiz-adv-x="1183" d="M62.5 513.5q-5.5 64.5 33.5 166.5q35 86 80 179t97.5 181t110.5 167t117.5 138.5t119 94.5t114.5 35q96 0 141.5 -56.5t60.5 -150.5t9 -213t-12 -246q-6 -123 -12.5 -201t8 -125t57.5 -66.5t135 -25.5q-63 -2 -107 -8t-72 -26.5t-41 -60.5t-13 -112q0 -33 13 -65.5 t40 -59t67 -43t93 -16.5h-799q92 4 172 14.5t139.5 41t94 85t36.5 142.5q2 53 -37.5 70.5t-99.5 17.5q-68 0 -145.5 -11.5t-143.5 -11.5q-63 0 -121.5 13.5t-94 50.5t-41 101.5zM297 463q43 -68 162 -66q82 2 137 8.5t91 29t56.5 63.5t32.5 110.5t20.5 171t18.5 244.5 q4 61 8 132t-2 131.5t-24.5 99t-59.5 38.5q-59 0 -114.5 -60t-108.5 -163.5t-105.5 -241t-105.5 -288.5q-49 -141 -6 -209z" />
<glyph unicode="5" horiz-adv-x="1277" d="M61 0l142 764q-4 -129 -10.5 -239.5t20.5 -199.5t102.5 -155t235.5 -104q33 -8 70 -9q102 0 176.5 68t113.5 166q47 121 45 226.5t-35.5 184t-88 121.5t-111.5 39q-41 -2 -63.5 -26.5t-36 -58.5t-21.5 -72.5t-23.5 -72.5t-42 -55.5t-73.5 -21.5q-57 0 -93 28.5t-56.5 80 t-30 122t-15.5 152.5q-6 76 -12 159t-21.5 153.5t-41 120.5t-70.5 63q29 -6 87 -17.5t135 -23t166 -18.5t177 -7q109 0 204 14.5t161 51.5l166 -654q-31 92 -80.5 189.5t-118 177.5t-156.5 130t-198 48q-68 0 -120 -9t-88 -36t-52.5 -77t-14.5 -132q2 -59 4 -129t11.5 -130 t28 -101t52.5 -45q33 -2 48.5 14t25.5 44t20.5 60.5t30 61t54.5 50.5t94 26q78 6 156.5 -26t141 -92.5t102.5 -145.5t40 -189q0 -106 -30.5 -197.5t-87 -159t-137.5 -106.5t-181 -39q-102 0 -225 47t-207 72t-137 25q-57 0 -87 -27t-45 -84z" />
<glyph unicode="6" horiz-adv-x="1251" d="M74 612q-25 219 3.5 382t103.5 269.5t195 159t277 52.5q72 0 148 -10.5t162 -30.5l167 -654q-55 197 -119.5 324t-135 199.5t-143.5 100.5t-142 23q-123 -6 -195.5 -46t-113.5 -101t-56.5 -136t-25.5 -153q-6 -49 -5 -117.5t9 -130t21.5 -105.5t33.5 -44q23 0 31 31.5 t25.5 77t56.5 95.5t118 87q51 23 105.5 34t107.5 11q78 0 151 -22.5t135.5 -65.5t108 -105.5t68.5 -142.5q39 -139 15.5 -254t-91 -198t-169 -129t-222.5 -46q-98 0 -199.5 21.5t-187.5 89t-149.5 195.5t-87.5 339zM340 501q4 -81 35 -165q53 -143 151.5 -230.5t202.5 -87.5 q37 1 70 13q55 20 94 70.5t55.5 119t12 149.5t-34.5 165q-27 72 -66 130t-86 100t-98 64.5t-101 22.5q-37 0 -71 -12q-57 -20 -95 -70.5t-55.5 -119t-13.5 -149.5z" />
<glyph unicode="7" horiz-adv-x="1200" d="M61 780l166 654q59 -35 154.5 -49.5t206.5 -14.5q90 0 179 7t165 17.5t131 20.5t76 19q-51 -129 -121 -239t-144.5 -206t-149.5 -183t-135.5 -170t-100 -164t-46.5 -169q-4 -63 16.5 -118.5t77 -96.5t156 -64.5t250.5 -23.5h-324q-125 0 -208.5 17.5t-134 51t-68 85 t-8.5 118.5q10 86 42.5 144.5t81 105.5t111 92t133 103.5t146 136.5t153.5 193q80 119 32 198.5t-222 79.5q-127 0 -223.5 -44t-170 -120t-127 -174t-94.5 -207z" />
<glyph unicode="8" horiz-adv-x="1214" d="M63 408q-6 133 83.5 238.5t248.5 166.5q20 8 23.5 20.5t-15.5 22.5q-86 49 -146 117.5t-69 163.5q-12 156 97.5 247t308.5 91q168 0 272.5 -81t116.5 -227q6 -72 -39 -145.5t-131 -130.5q-27 -18 -24.5 -29.5t18.5 -19.5q160 -72 253 -184.5t93 -243.5 q0 -215 -150.5 -331t-408.5 -116q-236 0 -378 116t-153 325zM293 473q4 -80 35 -164q53 -143 151.5 -222t202.5 -79q37 0 70 12q55 20 94 67.5t55.5 113t12 144.5t-34.5 163q-27 72 -66 128t-86 96t-98 60.5t-101 20.5q-37 0 -71 -12q-57 -20 -95 -68.5t-55.5 -114 t-13.5 -145.5zM380 1176.5q5 -62.5 21 -109.5q37 -100 107 -160.5t141 -60.5q26 0 49 8q41 14 68 49t39 82t8 103.5t-25 115.5q-37 102 -104.5 162.5t-138.5 60.5q-68 0 -105 -38.5t-51 -94t-9 -118z" />
<glyph unicode="9" horiz-adv-x="1251" d="M70.5 1102q23.5 115 91 197.5t170 129t221.5 46.5q98 0 199.5 -21.5t187.5 -89.5t149.5 -195t88.5 -340q25 -219 -3 -381.5t-104 -269t-195.5 -159t-277.5 -52.5q-72 0 -147.5 10.5t-161.5 30.5l-168 654q55 -197 119.5 -324t135 -199.5t143.5 -100.5t143 -24 q123 6 195.5 46t113.5 101.5t57 136.5t25 153q6 49 5 117.5t-8.5 130t-21.5 105.5t-35 44q-20 0 -29.5 -32t-26.5 -77t-56 -95t-119 -87q-51 -23 -105.5 -34t-107.5 -11q-76 0 -149.5 22.5t-136 65.5t-108.5 105.5t-69 142.5q-39 139 -15.5 254zM291 1072q4 -81 35 -165 q27 -72 65.5 -130t85.5 -100t98.5 -64.5t100.5 -22.5q39 0 72 12q57 20 95 70.5t55 119t13 149.5t-34 165q-53 143 -151.5 230t-203.5 87q-34 0 -69 -12q-55 -20 -94.5 -70.5t-55.5 -119t-12 -149.5z" />
<glyph unicode=":" horiz-adv-x="368" d="M61 88q0 53 37 89t86 36q47 0 85 -36t38 -89q0 -51 -38 -86t-85 -35q-49 0 -86 35t-37 86zM61 694q0 53 37 89t86 36q47 0 85 -36t38 -89q0 -51 -38 -86t-85 -35q-49 0 -86 35t-37 86z" />
<glyph unicode=";" horiz-adv-x="421" d="M61 94q0 47 36 81t89 38q68 4 113 -29t55 -94q12 -68 -2 -125t-51 -111.5t-96.5 -107.5t-136.5 -115q78 61 132 130t81.5 127.5t30.5 97.5t-21 39q-14 0 -20.5 -9.5t-14.5 -19.5t-23.5 -19.5t-48.5 -9.5q-59 0 -91 37t-32 90zM84 694q0 53 37 89t86 36q47 0 85 -36 t38 -89q0 -51 -38 -86t-85 -35q-49 0 -86 35t-37 86z" />
<glyph unicode="&#x3c;" horiz-adv-x="1132" d="M61 748q49 0 127 25.5t170.5 67.5t193.5 99t196.5 120.5t179.5 131.5t143 131q-117 -127 -213 -220t-164.5 -161t-105.5 -114t-37 -78v-5q0 -33 37 -77.5t104.5 -112.5t162.5 -160t212 -219q-49 53 -128 116.5t-173 127t-195.5 123t-196.5 104.5t-177 73t-136 28z" />
<glyph unicode="=" horiz-adv-x="880" d="M61 311v869q6 -86 14.5 -133.5t29 -70t60.5 -26.5t111 -4h328q72 0 112 4t60.5 26.5t28.5 70t14 133.5v-869q-6 86 -14 133.5t-28.5 70t-60.5 26.5t-112 4h-328q-72 0 -111.5 -4t-60 -26.5t-28.5 -70t-15 -133.5zM68 745q0 -68 51 -80t157 -12h328q104 0 156.5 12.5 t52.5 79.5q0 68 -52 80.5t-157 12.5h-328q-106 0 -157 -12.5t-51 -80.5z" />
<glyph unicode="&#x3e;" horiz-adv-x="1132" d="M61 1323q59 -63 143.5 -131t179.5 -131.5t196.5 -120.5t193.5 -99t170 -67.5t127 -25.5q-53 0 -135 -28t-177 -73t-196.5 -104.5t-196 -123t-173 -127t-127.5 -116.5q117 127 212 219t162.5 160t104.5 113t37 77v5q0 33 -37 78.5t-105.5 113.5t-165 161t-213.5 220z" />
<glyph unicode="?" horiz-adv-x="1181" d="M61 780l166 654q84 12 193.5 26.5t222.5 14.5q92 0 178 -15.5t152.5 -53.5t106.5 -104.5t40 -171.5q0 -113 -57 -180t-136 -106t-159 -59.5t-127 -39.5q-82 -33 -124 -82t-60.5 -110t-19.5 -134t-1 -155q-6 96 -11 175t8 143.5t56 116t134 89.5q51 23 96 58t78.5 77 t54 88t22.5 89q10 176 -66.5 246.5t-227.5 70.5q-162 0 -295 -156.5t-224 -480.5zM319 88q0 53 37 89t86 36q47 0 85 -36t38 -89q0 -51 -38 -86t-85 -35q-49 0 -86 35t-37 86z" />
<glyph unicode="@" horiz-adv-x="2328" d="M63 674q6 229 85 429t227.5 347t369 231t508.5 84q270 0 462 -72.5t314.5 -204.5t180 -317.5t57.5 -412.5q0 -190 -64.5 -332.5t-158.5 -238t-202.5 -143.5t-194.5 -48q-166 0 -230.5 90t-54.5 285q2 47 4 75.5t5 63.5t6 87t7 148q4 76 -11 109t-42 33q-41 0 -75.5 -56.5 t-68.5 -142.5t-68 -184t-73.5 -184.5t-88 -142.5t-111.5 -56q-111 0 -164 72.5t-39 246.5q23 268 100.5 430t187 247t237.5 107.5t249 12.5q47 -4 68.5 -68.5t29 -183.5t3 -287t-10.5 -379q-2 -55 1 -104t17.5 -86t44 -57.5t81.5 -18.5q90 4 154.5 39t108.5 119t67.5 225.5 t29.5 356.5q6 213 -41 385t-144 293.5t-242.5 186t-336.5 62.5q-164 -2 -296 -46t-235.5 -117.5t-178 -173t-123.5 -212t-73 -232.5t-24 -237q0 -254 69 -452.5t189.5 -337.5t287.5 -212t366 -75q100 0 203.5 8.5t205 32t200.5 66.5t190 110q-76 -61 -174.5 -107t-206 -77 t-217 -46t-211.5 -13q-135 2 -274.5 29.5t-269.5 84t-244 142.5t-197.5 204.5t-130 271t-40.5 343.5zM742 572.5q3 -89.5 40 -147.5t105 -56q35 2 73.5 43t77.5 105.5t78 144t73 157.5t61.5 145.5t43.5 108.5t19.5 64.5t-3.5 36t-23.5 15.5t-39.5 1q-129 -8 -225 -71.5 t-159.5 -156t-93.5 -196.5t-27 -193.5z" />
<glyph unicode="A" horiz-adv-x="1472" d="M66 395q18 240 72.5 412t133 292t177 193.5t207 114.5t221 54.5t221.5 13.5q41 0 62.5 -16.5t30.5 -62.5q8 -41 8 -114v-17q-1 -85 -3 -223q-2 -140 -3 -338v-58q0 -179 5 -413q0 -98 55.5 -165.5t157.5 -67.5h-819q180 10 275.5 60t137.5 148.5t47 245t5 349.5v87 t-6.5 58.5t-20.5 32.5t-43 10q-47 0 -86 -45t-73.5 -116.5t-67.5 -164t-65.5 -188.5t-69.5 -187t-79 -163t-93.5 -116t-114.5 -44q-150 1 -220 99q-56 78 -56 237q0 43 4 92zM171 580v-9q-1 -99 21 -177q22 -81 69 -130q44 -47 111 -47h5q47 2 99 62.5t107.5 156.5 t108.5 214t100.5 231.5t84 210t59.5 149.5t27 86t-6.5 51.5t-32 24.5t-50.5 4q-143 -8 -256.5 -63.5t-196.5 -140.5t-138.5 -191.5t-83 -217t-28.5 -214.5z" />
<glyph unicode="B" horiz-adv-x="1333" d="M61 0q37 0 83 9t83 43t59 102q14 43 13 107q0 36 -4 77q-8 66 -33.5 149.5t-60.5 188.5q-45 132 -51 240q-2 25 -2 49q0 79 16 146q22 87 65 151.5t95.5 108.5t107.5 67.5t100 29.5q53 6 99 7q98 0 161.5 -27t98.5 -71t45 -98q6 -32 6 -64q0 -23 -3 -45 q-7 -56 -28.5 -107t-48.5 -88q-12 -16 -8 -31.5t29 -21.5q57 -14 108 -34t96.5 -52.5t82 -79.5t63.5 -119q39 -99 38 -192q1 -30 -3 -60q-16 -121 -80 -214t-162 -148.5t-211 -55.5q-49 0 -98 13q-127 29 -210 40t-140 11q-45 0 -77 -5.5t-59.5 -10.5t-54 -10t-61.5 -5h-54z M207 1062q-5 -39 -5 -77q0 -41 6 -79q11 -72 43 -121.5t81 -51.5q33 0 70.5 30t72.5 69.5t63.5 80.5t43.5 62q37 53 71.5 124.5t48.5 140.5q7 33 6 63q0 31 -8 58q-14 52 -73 64q-22 5 -47 5q-28 0 -56 -6q-56 -11 -107.5 -40.5t-95.5 -73t-71 -98.5q-33 -68 -43 -150z M421 505q5 -81 34 -165q25 -72 64.5 -131t87.5 -101t101.5 -66t104.5 -24q39 0 72 13q57 23 94 73t53 120q12 50 12 106q0 22 -2 45q-6 82 -36 166q-27 72 -65 129t-84 98t-97 63.5t-101 22.5q-20 0 -38.5 -4t-36.5 -10q-57 -20 -96 -70q-40 -48 -56 -116q-13 -52 -12 -112 q0 -18 1 -37z" />
<glyph unicode="C" horiz-adv-x="1437" d="M61 748q0 147 51.5 279t139.5 231.5t208 158t257 58.5q150 0 275.5 -73t219.5 -183q27 -31 64 -52t90 -28h-328q-49 2 -74.5 17t-52.5 42q-96 94 -190 138t-172 44q-59 0 -107 -24q-74 -37 -127 -116q-53 -78 -71 -190q-9 -53 -9 -112q1 -65 11 -138q20 -138 92 -294 q63 -115 134 -197t143.5 -134t144 -76.5t133.5 -24.5q74 0 135 32q115 60 165 194q30 81 30 183q0 67 -13 144q-14 82 -28.5 132t-40 77.5t-68.5 39t-112 16.5h368q35 0 39 -40q2 -16 6 -68q1 -18 1 -39q0 -43 -5 -102q-14 -154 -68.5 -278.5t-141.5 -213t-199.5 -136.5 t-243.5 -48q-129 0 -248 55.5t-210 158t-144.5 246.5t-53.5 321z" />
<glyph unicode="D" horiz-adv-x="1368" d="M61 0q37 0 65 11.5t48.5 51t35.5 114.5t30 204q17 167 17 320v17q-1 161 -17 335q-10 123 -26.5 196.5t-38 113.5t-49.5 54.5t-65 16.5h369q100 0 199.5 -7.5t192.5 -34t175 -75.5t145.5 -133t106 -209t54.5 -299q4 -51 4 -97q0 -111 -21 -195q-29 -118 -84 -192.5 t-134 -113.5t-167 -56.5t-180 -19.5t-176 -2h-484zM373 1071q10 -154 15 -329q1 -42 1 -83q0 -132 -12 -260q-5 -49 -5 -90q0 -111 35 -172q48 -84 179 -90h103t111.5 14.5t105.5 53.5t87 116.5t55 203.5q11 80 11 186q0 60 -4 129q-12 227 -60.5 355t-118 190.5 t-150.5 76.5t-159 14q-63 0 -104 -19t-62.5 -58t-27.5 -99q-3 -30 -3 -64.5t3 -74.5z" />
<glyph unicode="E" horiz-adv-x="1372" d="M61 1434h994l166 -654q-53 176 -122 291t-142.5 182.5t-146.5 97t-134 35.5q-27 2 -53 2q-38 0 -72 -5q-57 -9 -99 -33.5t-66 -64.5t-24 -95q0 -106 42 -186t104.5 -133.5t137.5 -80t142 -26.5q49 0 79 20.5t45.5 52t17.5 71.5v20q0 29 -4 57l114 -565q-33 45 -82 101.5 t-106 105.5t-120.5 82.5t-125.5 33.5q-86 0 -133 -63.5t-57 -151.5q-4 -36 -4 -71q0 -53 9 -104q15 -85 57 -151.5t108.5 -108.5t161.5 -46q19 -1 37 -1q122 0 203 47q93 54 153 153q59 98 96 231t74 287l-142 -764h-1036q92 104 129 280q29 138 29 331q0 52 -2 108 q-4 96 -21.5 213t-46 223.5t-69.5 184t-91 94.5z" />
<glyph unicode="F" horiz-adv-x="1282" d="M61 1434q49 -12 117 -24.5t148 -21t164.5 -13.5t166.5 -5q129 0 236.5 14.5t161.5 49.5l166 -654q-31 86 -80 185.5t-129 182.5t-194 134q-98 44 -230 44q-21 0 -43 -1q-103 -6 -153 -58q-30 -31 -30 -89q0 -38 13 -88q25 -94 74 -157t107 -100.5t119.5 -53t110.5 -15.5 q70 0 99 24q16 14 24.5 42t12.5 58t5 56.5t-1 40.5l114 -563q-148 182 -256 256q-97 66 -164 66q-8 0 -16 -1q-78 -9 -108 -85q-15 -37 -15 -89q0 -57 17 -131q29 -123 61.5 -201.5t86.5 -127t135 -72t204 -37.5h-819q78 10 119 36.5t63 63.5q20 35 26 109q3 35 2 76 q0 44 -3 95q-6 97 -22.5 209.5t-40 225.5t-53.5 219.5t-61.5 191.5t-66.5 140t-68 68z" />
<glyph unicode="G" horiz-adv-x="1437" d="M61 748q0 147 51.5 279t139.5 231.5t208 158t257 58.5q150 0 277.5 -71t217.5 -185q29 -31 62 -53.5t92 -26.5h-328q-51 2 -76.5 17t-50.5 42q-96 94 -190 138t-172 44q-59 0 -107 -24q-74 -37 -127 -116t-71 -190q-9 -53 -9 -112q0 -65 11 -138q20 -138 92 -294 q63 -115 134 -197t143.5 -134t144 -76.5t133.5 -24.5q86 0 148.5 35.5t103.5 95t60.5 134.5t21.5 153q1 18 1 37q0 38 -3 81q-4 66 -16.5 123.5t-35 96t-57.5 38.5t-78 -43q-92 -92 -168.5 -176t-141 -147.5t-116 -101.5t-92.5 -38q-33 0 -57 25q-30 30 -30 72q0 24 9 51 q27 76 125 149q92 72 173 127.5t153 106.5t140.5 101t135.5 110q-57 -59 -123.5 -119.5t-132 -116t-125 -104.5t-100.5 -88t-59.5 -65.5t-1.5 -37.5q6 -4 14 -4q24 0 67 30q58 40 129.5 107.5t147.5 147.5t133 145q68 76 121 76q27 0 51 -18q29 -20 47.5 -70.5t27.5 -112 t10 -124.5v-18q0 -52 -5 -89q-14 -154 -69.5 -278.5t-141.5 -213t-198.5 -136.5t-243.5 -48q-129 0 -248 55.5t-210 158t-144.5 246.5t-53.5 321z" />
<glyph unicode="H" horiz-adv-x="1634" d="M61 0q117 2 175 52t80 146q20 88 20 216v24q-2 142 -6 328q-4 174 -8.5 299t-29 207t-76.5 121t-155 41h1512q-100 -2 -153.5 -41t-78 -121t-28.5 -207t-8 -299q-5 -186 -7 -328v-30q0 -124 20 -210q22 -96 80 -146t175 -52h-1512zM460 1053q0 -94 7.5 -150.5t42.5 -85.5 t106.5 -37t200.5 -8t201 8t106.5 37t43 85t8.5 151q0 106 -26 178t-73 116t-113.5 62t-146.5 18t-146.5 -18t-113.5 -62t-72 -116t-25 -178zM467 381q0 -111 24.5 -182.5t69.5 -114.5t110.5 -60.5t145.5 -17.5t144.5 17.5t110.5 60.5t70.5 114.5t24.5 182.5q0 117 -6 184.5 t-40 103.5t-104.5 46t-199.5 10t-199.5 -10t-104.5 -46t-40 -103.5t-6 -184.5z" />
<glyph unicode="I" horiz-adv-x="1064" d="M72 592q26 76 125 149q43 33 73.5 55.5t56 42t49 38t52.5 43.5q31 27 45 62.5t15 75.5v10q0 35 -6 71q-7 41 -19 78q-20 63 -55 104t-81 65.5t-100.5 36t-109.5 11.5h819q-254 0 -291 -217q-14 -88 -38.5 -161t-94.5 -132q-61 -53 -115.5 -98.5t-91.5 -79t-51 -56 t2 -35.5q6 -4 14 -4q24 0 67 30q58 40 130 107.5t147.5 147.5t133.5 145q35 39 75.5 63.5t81.5 24.5t74 -30q26 -25 26 -59q1 -22 -11 -48q-28 -66 -99 -127q-35 -29 -60.5 -47t-48 -33.5t-46 -30t-52.5 -36.5q-53 -39 -78 -86q-26 -46 -32 -100q-4 -29 -4 -60q0 -26 2 -52 q6 -58 14 -120q12 -106 40.5 -172t71.5 -102.5t101.5 -50t132.5 -15.5h-819q68 2 122 15.5t96 50t69.5 102t39.5 172.5q6 55 8.5 102t10.5 91.5t29.5 87.5t66.5 90q35 37 83 73.5t89 70.5t64.5 61.5t9.5 44.5q-6 8 -19 8q-29 0 -83 -39t-119.5 -98.5t-135 -130 t-129.5 -132.5q-43 -47 -91 -83.5t-89 -36.5q-27 0 -47 20q-30 30 -30 72q0 24 10 51z" />
<glyph unicode="J" horiz-adv-x="1646" d="M61 -358q143 2 279.5 9t258.5 25.5t224.5 53t179 96t124 153t55.5 222.5q4 55 6 141t4 186.5t3 205t1 194.5t-2 155t-4 88q-12 100 -49 157.5t-131 57.5q-57 0 -114.5 -32.5t-116 -105t-118 -187.5t-118.5 -279l164 652h878q-57 -8 -98 -28t-66.5 -63t-40 -115.5 t-20.5 -189.5q-8 -115 -8 -236.5v-243.5t-3 -238.5t-18 -223.5q-18 -135 -85.5 -221t-168 -137t-226.5 -72.5t-261 -27.5q-74 -3 -149 -3q-61 0 -123 3q-136 4 -257 4z" />
<glyph unicode="K" horiz-adv-x="1509" d="M61 1434h820q-172 -6 -263.5 -37t-131.5 -91.5t-42 -154.5v-36q0 -83 7 -195q4 -70 42.5 -102t92.5 -32q33 0 67.5 12.5t66.5 36t56.5 57.5t36.5 77q35 119 51.5 207t32.5 145t42 85t77 28h352q-109 -2 -166 -35t-94 -93.5t-67.5 -145.5t-84.5 -189q-18 -37 -45.5 -64.5 t-55.5 -46t-52.5 -30t-38.5 -19.5q-10 -6 -22.5 -14.5t-18.5 -17.5t-2 -19t27 -21q137 -55 216.5 -132t126 -159.5t73 -162.5t58 -143.5t82 -102.5t144.5 -39h-1366q82 2 124 27.5t61.5 79t25.5 137.5t14 200q6 80 10.5 167t4.5 173t-4.5 168t-14.5 156q-8 68 -15 127 t-29.5 103t-68 70t-129.5 26zM446 547v-11q0 -57 5 -143q4 -129 36.5 -206.5t85 -117.5t118.5 -51.5t140 -11.5q59 0 109 18q48 19 68 66q10 24 11 58q1 32 -9 73q-18 84 -97 215q-41 68 -98 132.5t-143 117.5q-98 61 -148 62q-57 0 -69 -82q-9 -59 -9 -119z" />
<glyph unicode="L" horiz-adv-x="1292" d="M61 1434h983q-37 0 -115.5 -6.5t-168.5 -19.5t-175 -34.5t-134 -54.5q-61 -41 -69 -119q-3 -29 -2 -62q0 -58 8 -130l28 -266q8 -74 8 -156q0 -85 -8 -178q-3 -37 -3 -71.5t3 -66.5q6 -64 33.5 -112.5t79 -77.5t135.5 -33q28 -1 55 -1q99 0 167 18q87 22 138 67 t71.5 110.5t23.5 147.5q1 19 1 39q0 64 -8 138q-10 96 -22 198l141 -764h-1098q39 47 69.5 110.5t52 149.5t31.5 200q7 80 6 175q0 40 -1 84q-4 139 -28.5 266t-58.5 224.5t-72 157.5t-71 67z" />
<glyph unicode="M" horiz-adv-x="2086" d="M61 0q10 0 49.5 2t87.5 19.5t98 58.5t83 123q29 72 61.5 184.5t60 237.5t47 244.5t23.5 201.5q1 19 1 36q0 63 -11 115q-14 66 -49 113t-93.5 73t-144.5 26q127 0 213 1h41q60 0 100 -2q54 -3 79.5 -13.5t31.5 -37.5q4 -12 13.5 -60t20.5 -106.5t22.5 -112.5t15.5 -77 q37 -137 68.5 -271t62.5 -238.5t63.5 -168t71.5 -63.5q35 0 68 63.5t64.5 165.5t63.5 235.5t64 274.5q4 23 15.5 77t22.5 112.5t21.5 107.5t12.5 61q6 25 30.5 36.5t76.5 14.5q39 2 99 2h41q87 -1 218 -1q-92 0 -152.5 -30t-94.5 -83t-44 -129q-6 -48 -6 -101q0 -32 2 -67 q2 -29 12.5 -89.5t26.5 -137t36.5 -163.5t41 -168t41 -150.5t37.5 -112.5q31 -82 71.5 -124t78.5 -59.5t66.5 -18.5t34.5 -1h-819q68 0 139.5 13.5t127 47t83.5 93.5q17 36 16 83q0 31 -7 68q-14 66 -31.5 144.5t-34 153.5t-32 138.5t-25.5 98.5q-8 29 -21.5 43t-27.5 14 t-27.5 -14.5t-19.5 -42.5q-16 -72 -39 -159t-49.5 -175t-55 -171t-59.5 -147.5t-60.5 -103.5t-56.5 -39q-39 0 -73.5 41t-67.5 108.5t-61.5 153.5t-55.5 175t-51.5 176t-46.5 155q-14 43 -43 43q-27 0 -33 -39l-96 -508q-10 -47 -10 -87q0 -51 17 -89q30 -68 89 -106.5 t136 -52t151 -15.5h-820z" />
<glyph unicode="N" horiz-adv-x="1474" d="M61 0q37 4 75 16t69 38t50 67t21 102q1 28 1 64q0 35 -1 79q-2 86 -6 188.5t-11 213.5t-17 215q-10 117 -20 208q-5 49 -5 90q0 35 4 63q8 62 40 96.5t101 34.5q33 0 72 -7q117 -20 198 -117.5t140 -233.5t104.5 -291.5t90.5 -295t96 -243t123 -133.5q25 -10 41 -11 q49 0 79 53q32 54 46 143q12 74 12 168q0 20 -1 40q-3 119 -22 248q-23 158 -53.5 260t-65 165.5t-71.5 95.5t-72 48q-45 23 -112.5 35t-139 19t-140.5 10.5t-118 5.5h545q25 0 48.5 -3.5t47 -13.5t43 -32.5t33.5 -61.5q31 -78 54.5 -192.5t40 -241.5t24.5 -253t8 -226 q0 -96 -10 -178t-37 -140.5t-70 -91.5t-110 -33q-88 0 -153.5 56.5t-118 147.5t-94.5 208t-78.5 239.5t-73.5 239.5t-79 208t-94.5 147.5t-119.5 56.5q-47 0 -66.5 -39t-21.5 -107v-25q0 -59 7 -132q9 -90 15 -193q16 -240 52 -387t101.5 -230t168 -115t250.5 -42h-820z" />
<glyph unicode="O" d="M61 748q0 147 51.5 279t139.5 231.5t208 158t257 58.5t257 -58.5t209 -158t140 -231.5t51 -279q0 -176 -50 -320.5t-137 -247t-208 -158t-262 -55.5q-129 0 -248 55.5t-210 158t-144.5 246.5t-53.5 321zM244 1046q-9 -52 -9 -111q1 -64 11 -136q20 -137 92 -293 q63 -115 134 -197t143.5 -134t144 -76.5t133.5 -24.5q74 0 135 32q76 39 125 113q49 73 65 175q6 41 6 88q0 66 -14 142q-22 128 -94 277q-57 123 -130 212t-147.5 146.5t-149.5 85t-138 27.5q-61 0 -109 -24q-74 -37 -127 -114.5t-71 -187.5z" />
<glyph unicode="P" horiz-adv-x="1380" d="M61 1434q182 4 360.5 22.5t369.5 18.5q268 0 398 -155t130 -441q0 -131 -40 -219.5t-105 -139.5q-64 -52 -147 -70q-58 -13 -116 -12q-25 0 -51 2q-94 10 -151.5 43t-94 68t-60.5 57.5t-54 9.5q-23 -8 -29 -36q-4 -19 -4 -44q0 -12 1 -25q3 -40 13.5 -89t22.5 -100 q27 -106 64.5 -168t91 -94.5t121 -44t151.5 -17.5h-819q80 2 126 35t70.5 89t30.5 131q4 45 4 94q0 32 -2 66q-4 85 -13.5 177t-15.5 182q-12 201 -38.5 329t-60.5 201.5t-74 101.5t-79 28zM433 1029q9 -97 56 -212q37 -88 84.5 -150.5t99.5 -101.5t104 -56t97 -17 q49 0 95 20q55 29 92 83t50 128q7 38 7 81q0 40 -6 83q-12 90 -55 186q-43 92 -93.5 156.5t-101.5 105.5t-102 59.5t-98 18.5q-48 0 -89 -18q-43 -20 -79 -71q-38 -50 -54 -124q-11 -48 -10 -105q0 -32 3 -66z" />
<glyph unicode="Q" d="M61 748q0 147 51.5 279t139.5 231.5t208 158t257 58.5t257 -58.5t209 -158t140 -231.5t51 -279q0 -162 -42 -296.5t-115 -234.5q-26 -42 -26 -97q0 -16 2 -32q9 -76 36 -147q31 -82 80 -168q-57 76 -121 131q-27 25 -57.5 46t-64.5 35.5t-70 19.5q-11 2 -23 2 q-24 0 -49 -7q-49 -16 -100.5 -24.5t-106.5 -8.5q-129 0 -248 55.5t-210 158t-144.5 246.5t-53.5 321zM244 1050q-9 -53 -9 -112q0 -65 11 -138q20 -138 92 -294q47 -84 102.5 -157t119 -129t134 -93t146.5 -49q27 -2 49 6t38.5 25.5t22.5 43t-2 58.5q-16 72 -57 162 t-84 168q-49 92 -107 186q16 -23 45 -66t67 -94t81 -104t85 -96t79 -71t63 -28q47 0 78 64q27 56 27 159v27q-4 86 -31 181.5t-78 201.5q-57 125 -130 215t-148.5 148.5t-151.5 87t-139 28.5q-61 0 -105 -24q-74 -37 -127 -116t-71 -190z" />
<glyph unicode="R" horiz-adv-x="1837" d="M61 0q121 0 177.5 55.5t72.5 151.5q7 43 9 107q1 24 1 48q1 42 -1 86q-2 70 -6.5 145t-6.5 138q-6 117 -16 241t-35 225t-69 168t-115 69q29 0 66.5 2t77.5 6t79 8t70 6q78 8 167 13.5t195 5.5q236 0 371 -121t145 -338q1 -18 1 -35q0 -91 -26 -168q-32 -92 -94.5 -157.5 t-152.5 -102.5t-201 -37q-57 0 -123.5 14.5t-128.5 61.5q-23 16 -45 16q-20 0 -20 -20q0 -23 43 -51q25 -16 65.5 -27.5t88.5 -22t98.5 -20.5t93.5 -23q49 -14 95 -36.5t84 -65.5t68.5 -109.5t49.5 -169.5q27 -141 68.5 -223t114.5 -124t182.5 -55t271.5 -19 q-106 -2 -192 -2t-152 2q-134 4 -220 20q-82 16 -123.5 49t-63 87.5t-35 132t-42.5 184.5q-39 150 -131 242t-227 92q-92 0 -125 -75q-15 -33 -15 -78q0 -55 23 -126q16 -51 63.5 -85t106.5 -52.5t123.5 -25.5t114.5 -7h-820zM412 1168q6 -78 18 -173q14 -100 26.5 -180 t44 -136t92 -86t171.5 -30q68 0 118 33t80 91q31 57 41 139q5 37 5 78q0 49 -7 102q-27 221 -129 322.5t-251 101.5q-90 0 -136.5 -33t-62.5 -91q-12 -43 -12 -96q0 -21 2 -42z" />
<glyph unicode="S" horiz-adv-x="1284" d="M61 0l142 764q0 -82 -5 -159q-3 -48 -3 -93q0 -28 1 -54q3 -70 19 -130t55 -111t106.5 -90t174.5 -64q53 -12 98 -12q90 0 156.5 38t108.5 101.5t56 143.5q6 34 5 69q0 46 -10 93q-18 74 -99.5 141.5t-259.5 110.5q-23 6 -67.5 14t-98 23.5t-110 41t-103.5 66.5 t-79.5 99.5t-36.5 137.5q-1 17 -1 33q0 80 32 136q40 67 110 106t162 54.5t190 15.5q104 0 202.5 -12.5t176.5 -28.5l166 -654q-90 324 -223 479.5t-295 157.5q-76 0 -134.5 -17.5t-94.5 -55.5q-38 -36 -50 -94q-5 -25 -5 -55q0 -37 9 -81q10 -45 28.5 -94t51.5 -94t81 -81 t116 -54q100 -27 193.5 -45.5t169 -48t131 -81t79.5 -145.5q16 -56 16 -110q0 -43 -10 -85q-24 -92 -85.5 -160.5t-153.5 -108.5t-203 -40q-110 0 -235 47t-209 71t-138 24q-55 0 -83.5 -27t-43.5 -82z" />
<glyph unicode="T" horiz-adv-x="1359" d="M61 1434h1237l-163 -654q16 113 16 210q0 24 -1 47q-5 116 -31.5 196t-69.5 121q-34 32 -75 32q-11 0 -22 -2q-90 -16 -137 -138t-57 -312q-2 -53 -5 -118.5t-4 -136.5q0 -18 -1 -36q0 -55 3 -109q3 -74 9 -145q12 -135 43 -211t75 -113.5t98 -48t114 -16.5h-820 q59 6 114.5 16t100.5 47t76 113t41 213q8 71 10 145q1 49 1 98v48q-1 72 -4 137.5t-7 116.5q-10 193 -58 314.5t-145 135.5q-18 3 -34 3q-61 -1 -95 -37q-43 -46 -58 -131q-10 -59 -10 -131q0 -34 2 -70q7 -115 21 -238z" />
<glyph unicode="U" horiz-adv-x="1634" d="M61 1434h1512q-12 -2 -36 -6.5t-54.5 -18.5t-65 -44t-69.5 -81q-58 -92 -64 -180q-1 -10 -1 -21q0 -79 36 -172q37 -94 64.5 -201.5t30.5 -211.5v-22q0 -93 -22 -179q-26 -96 -93.5 -170t-184.5 -117t-295 -43t-294.5 43t-184.5 117t-94 170q-23 86 -22 179v22 q3 104 31 211.5t64 201.5q37 93 37 173q0 10 -1 20q-5 88 -64 180q-33 51 -69 81t-67.5 44t-56 18.5t-37.5 6.5zM436 462q-8 -51 -7 -98q1 -72 19 -132q32 -100 121.5 -160t249.5 -60q152 0 239 60q86 60 118 158q21 65 21 144q0 40 -5 84q-16 130 -72 271 q-43 111 -43 185.5t20.5 135t50.5 114t44 120.5q3 14 3 26q1 33 -23 54q-32 29 -90 43t-127.5 18.5t-135.5 4.5t-136.5 -4.5t-127.5 -18.5t-89 -43q-23 -21 -23 -54q0 -12 3 -26q16 -68 47 -122t53 -114q21 -58 20 -129v-7q-1 -74 -48 -183q-62 -137 -82 -267z" />
<glyph unicode="V" horiz-adv-x="1579" d="M66 1322q-3 19 -3 35q1 28 11 47q16 30 71 30h1373q-8 0 -41 -5.5t-74 -28t-84 -67.5t-74 -127q-18 -49 -56 -160.5t-86 -249t-102.5 -284.5t-109.5 -268t-107.5 -199t-93.5 -78q-33 0 -74 51.5t-87 136.5t-95 196.5t-97 231t-93 241t-84 223.5q-31 82 -57.5 152.5 t-36.5 122.5zM310 1314q-10 -24 -10 -56q0 -41 17 -97q25 -74 58 -173t71.5 -206.5t80.5 -212t85 -186.5t83 -133t75 -51t77 71.5t85 178t86 229.5t78 227q25 70 37 125q12 54 14 102v19q0 37 -6 69q-8 40 -29 78q-23 43 -65.5 69t-94 39t-104.5 17t-96 4q-106 0 -199.5 -5 t-156 -29.5t-86.5 -78.5z" />
<glyph unicode="W" horiz-adv-x="2547" d="M61 1434h2425q-86 -6 -132 -35t-67.5 -76t-26.5 -112.5t-11 -147.5q-6 -106 -15.5 -229t-31 -245t-63.5 -234.5t-116.5 -198.5t-188.5 -137.5t-278 -51.5q-88 0 -136 38t-69.5 97.5t-23.5 131.5q-1 36 -1 70.5t1 68.5q0 111 16.5 240.5t42.5 254.5q32 102 52 182 q15 61 15 107q0 13 -1 27q-6 54 -47 83t-131 29q-94 0 -134 -30t-44 -86q-1 -9 -1 -19q-1 -49 17 -115q20 -78 47 -178q29 -125 45.5 -255t16.5 -240q1 -34 1 -69q0 -34 -1 -70q-2 -72 -23.5 -131.5t-70 -97.5t-136.5 -38q-164 0 -277.5 51.5t-188 137.5t-117.5 198.5 t-64.5 234.5t-30 244.5t-14.5 229.5q-4 82 -9 147.5t-26.5 112.5t-69 75.5t-133.5 35.5zM446 1223q0 -129 11.5 -271.5t38 -279.5t68.5 -261t103.5 -216.5t144.5 -143.5q72 -44 161 -44q14 0 28 1q72 6 111 45q38 39 54 95q15 53 15 115v7q-1 66 -7 121q-10 100 -36 209 t-63 217.5t-86 208.5t-105.5 181t-122 137.5t-134.5 74.5q-25 8 -56 8q-53 0 -89 -45t-36 -159zM1371 270v-7q1 -61 15 -115q16 -56 52 -95t108 -45q14 -1 28 -1q90 0 162 44q84 51 145 143.5t102.5 216.5t68.5 261t38 279.5t11 271.5q0 117 -34.5 160.5t-90.5 43.5 q-12 0 -26.5 -2t-28.5 -6q-68 -18 -133.5 -73.5t-123.5 -136.5t-107.5 -181t-87 -207.5t-62.5 -218t-31 -211.5q-4 -55 -5 -121z" />
<glyph unicode="X" horiz-adv-x="1605" d="M61 1434h345q39 0 64.5 -6.5t45.5 -45.5q59 -113 110.5 -210t90.5 -170.5t63.5 -118.5t28.5 -52q33 -53 59 -53q31 0 57.5 62.5t73.5 160.5q53 111 69 195q5 26 6 50q0 51 -25 87q-25 35 -69 54.5t-95 28.5t-100.5 12.5t-84.5 5.5h820q-14 0 -40 -2t-54.5 -9.5 t-59.5 -20.5t-57 -36q-45 -39 -91.5 -96.5t-90.5 -129t-85 -153.5t-77 -168q-16 -39 -22.5 -60.5t-4.5 -40t11 -39t26 -54.5q47 -102 110.5 -214t126.5 -202q31 -45 64 -82t71.5 -64.5t87 -44t109.5 -18.5h-344q-39 0 -65.5 6t-42.5 41q-57 115 -108.5 213t-91.5 172 t-65.5 119t-29.5 51q-31 51 -56 51q-33 0 -65.5 -65.5t-79.5 -163.5q-52 -110 -64 -190q-3 -19 -3 -37q0 -56 28 -97q25 -35 69 -54t95 -28.5t100 -12.5t84 -5h-819q14 0 39 2t54.5 9t60 20.5t57.5 36.5q45 39 89 98t87 133t85 157t83 169q12 25 12 52q0 14 -3 29 q-9 44 -38 113q-41 104 -96 209t-115 191q-31 47 -63.5 84.5t-72.5 66.5t-89 45.5t-115 18.5z" />
<glyph unicode="Y" horiz-adv-x="1667" d="M61 1434h355q39 0 66.5 -6.5t37.5 -30.5q86 -223 149.5 -376t105.5 -247t63.5 -138t25.5 -50q37 -63 84 -64q45 0 90 52.5t80 144.5q33 90 60.5 173t41.5 158q11 57 11 108q0 18 -1 35q-5 67 -40 120q-27 43 -80 65.5t-113.5 33.5t-118 15.5t-92.5 6.5h820 q-111 -6 -173.5 -70t-108.5 -180.5t-94 -280.5t-132 -371q-23 -57 -46.5 -85.5t-40 -54t-21.5 -60.5q-1 -10 -1 -23q0 -32 8 -80q12 -59 35 -100t62 -67.5t96 -41t137 -20.5h-819q92 6 150.5 20.5t95.5 41t56 67.5t32 100q7 36 7 63q0 24 -5 41q-13 36 -38.5 65.5t-60 66.5 t-65.5 108q-29 66 -50.5 114t-39 89t-34.5 80t-37.5 86t-47.5 109.5t-65 150.5q-43 102 -129.5 165t-215.5 67z" />
<glyph unicode="Z" horiz-adv-x="1228" d="M61 0q41 61 69 103t49.5 73t42 57.5t48.5 57.5q39 47 93.5 100t119 111.5t134 120t137.5 122.5q37 33 76.5 67t71.5 62.5t49.5 52t6.5 36.5q-6 8 -20 8q-29 0 -82 -39t-117.5 -99.5t-134 -131t-129.5 -132.5q-43 -47 -91 -83.5t-89 -36.5q-27 0 -47 20q-30 30 -30 72 q0 24 10 51q26 76 124 149q92 72 166 126.5t135.5 105.5t113.5 103t101 120q38 52 38 88q0 38 -30 64q-28 24 -79.5 35.5t-110.5 11.5q-51 0 -102.5 -2t-97.5 -12.5t-83.5 -31t-62.5 -59.5q-46 -76 -46 -206v-6q1 -134 23 -298l-163 654h1013q-41 -45 -74.5 -82t-66.5 -72 t-67.5 -74t-79.5 -86q-86 -90 -178.5 -168t-164 -138t-110.5 -101q-24 -25 -24 -41q0 -10 10 -17q6 -4 14 -4q24 0 67 30q58 40 129.5 107.5t147.5 147.5t133 145q35 39 76 63.5t82 24.5t74 -30q26 -24 26 -58q0 -23 -12 -49q-29 -66 -98 -127q-35 -29 -67 -52.5t-65.5 -46 t-68.5 -48t-76 -60.5q-82 -70 -143.5 -132t-106.5 -114.5t-77.5 -97.5t-61.5 -82q-37 -63 -46 -106q-2 -11 -2 -21q-1 -29 19 -49q26 -26 94 -37.5t185 -11.5q154 0 241 34q88 34 124 116q33 74 32 193v27q-4 138 -35 347l142 -764h-1078z" />
<glyph unicode="[" horiz-adv-x="665" d="M63 343v179v141.5v84.5q0 45 1.5 140t3.5 220t3 265t3 276q2 82 43 112.5t100 30.5h387q-131 -6 -210 -16.5t-121 -32t-56 -58t-16 -98.5q-8 -217 -5 -423t3 -423q0 -104 -2 -218.5t-3 -229.5t0 -227.5t7 -210.5q4 -61 17 -98.5t55 -59t121 -31.5t210 -16h-387 q-59 0 -99 30.5t-44 112.5q-2 72 -4 165t-4.5 190.5t-2.5 194.5z" />
<glyph unicode="\" horiz-adv-x="1609" d="M61 1792h402q53 0 80.5 -23.5t44.5 -76.5l538 -1842q23 -74 49.5 -113.5t72.5 -60t118 -25.5t182 -9h-401q-53 0 -81 23.5t-44 76.5l-539 1841q-20 74 -47.5 114t-74 60.5t-118 25.5t-182.5 9z" />
<glyph unicode="]" horiz-adv-x="665" d="M61 -350q133 6 211 16t120 31.5t56.5 58.5t16.5 99q6 98 7 210.5t0 227.5t-3 229.5t-2 218.5q0 217 3 423t-5 423q-2 61 -16.5 98t-56.5 58.5t-119.5 32t-211.5 16.5h388q59 0 100 -30.5t43 -112.5q2 -135 4 -275.5t3 -265.5t2 -220t1 -140v-84.5v-141.5v-179t-2 -194.5 t-3 -190.5t-5 -165q-4 -82 -44 -112.5t-99 -30.5h-388z" />
<glyph unicode="^" horiz-adv-x="851" d="M61 842q51 96 86 163.5t63 126t53.5 116t62.5 132.5q23 43 43 69t57 26t57.5 -26t42.5 -69q37 -76 63.5 -133t54.5 -115.5t61.5 -126t85.5 -163.5q-53 78 -104.5 148.5t-98.5 123.5t-88 85t-74 32q-41 0 -82 -33t-86 -87t-93 -125t-104 -144z" />
<glyph unicode="_" horiz-adv-x="1552" d="M61 104v258q6 -86 14.5 -133t29 -69.5t60.5 -26.5t111 -4h1000q72 0 111.5 4t60 26.5t29 69.5t14.5 133v-258q0 -55 -35 -79.5t-76 -24.5h-1208q-41 0 -76 24.5t-35 79.5z" />
<glyph unicode="`" horiz-adv-x="598" d="M61 1923h476q-35 -4 -76 -15.5t-67.5 -32t-31 -51t34.5 -73.5q18 -18 33.5 -32.5t29 -37t21.5 -61.5t11 -107q-8 72 -32 110t-52.5 59.5t-60.5 35t-58 33.5q-45 35 -70.5 63.5t-47 50t-45.5 37t-65 21.5z" />
<glyph unicode="a" horiz-adv-x="1472" d="M66 395q18 240 72.5 412t133 292t177 193.5t207 114.5t221 54.5t221.5 13.5q41 0 62.5 -16.5t30.5 -62.5q8 -41 8 -114v-17q-1 -85 -3 -223q-2 -140 -3 -338v-58q0 -179 5 -413q0 -98 55.5 -165.5t157.5 -67.5h-819q180 10 275.5 60t137.5 148.5t47 245t5 349.5v87 t-6.5 58.5t-20.5 32.5t-43 10q-47 0 -86 -45t-73.5 -116.5t-67.5 -164t-65.5 -188.5t-69.5 -187t-79 -163t-93.5 -116t-114.5 -44q-150 1 -220 99q-56 78 -56 237q0 43 4 92zM171 580v-9q-1 -99 21 -177q22 -81 69 -130q44 -47 111 -47h5q47 2 99 62.5t107.5 156.5 t108.5 214t100.5 231.5t84 210t59.5 149.5t27 86t-6.5 51.5t-32 24.5t-50.5 4q-143 -8 -256.5 -63.5t-196.5 -140.5t-138.5 -191.5t-83 -217t-28.5 -214.5z" />
<glyph unicode="b" horiz-adv-x="1333" d="M61 0q37 0 83 9t83 43t59 102q14 43 13 107q0 36 -4 77q-8 66 -33.5 149.5t-60.5 188.5q-45 132 -51 240q-2 25 -2 49q0 79 16 146q22 87 65 151.5t95.5 108.5t107.5 67.5t100 29.5q53 6 99 7q98 0 161.5 -27t98.5 -71t45 -98q6 -32 6 -64q0 -23 -3 -45 q-7 -56 -28.5 -107t-48.5 -88q-12 -16 -8 -31.5t29 -21.5q57 -14 108 -34t96.5 -52.5t82 -79.5t63.5 -119q39 -99 38 -192q1 -30 -3 -60q-16 -121 -80 -214t-162 -148.5t-211 -55.5q-49 0 -98 13q-127 29 -210 40t-140 11q-45 0 -77 -5.5t-59.5 -10.5t-54 -10t-61.5 -5h-54z M207 1062q-5 -39 -5 -77q0 -41 6 -79q11 -72 43 -121.5t81 -51.5q33 0 70.5 30t72.5 69.5t63.5 80.5t43.5 62q37 53 71.5 124.5t48.5 140.5q7 33 6 63q0 31 -8 58q-14 52 -73 64q-22 5 -47 5q-28 0 -56 -6q-56 -11 -107.5 -40.5t-95.5 -73t-71 -98.5q-33 -68 -43 -150z M421 505q5 -81 34 -165q25 -72 64.5 -131t87.5 -101t101.5 -66t104.5 -24q39 0 72 13q57 23 94 73t53 120q12 50 12 106q0 22 -2 45q-6 82 -36 166q-27 72 -65 129t-84 98t-97 63.5t-101 22.5q-20 0 -38.5 -4t-36.5 -10q-57 -20 -96 -70q-40 -48 -56 -116q-13 -52 -12 -112 q0 -18 1 -37z" />
<glyph unicode="c" horiz-adv-x="1437" d="M61 748q0 147 51.5 279t139.5 231.5t208 158t257 58.5q150 0 275.5 -73t219.5 -183q27 -31 64 -52t90 -28h-328q-49 0 -74.5 16t-52.5 43q-96 94 -190 138t-172 44q-59 0 -107 -24q-74 -37 -127 -116q-53 -78 -71 -190q-9 -53 -9 -112q1 -65 11 -138q20 -138 92 -294 q63 -115 134 -197t143.5 -134t144 -76.5t133.5 -24.5q74 0 135 32q115 60 165 194q30 81 30 183q0 67 -13 144q-14 82 -28.5 132t-40 77.5t-68.5 39t-112 16.5h368q35 0 39 -40q2 -16 6 -68q1 -18 1 -39q0 -43 -5 -102q-14 -154 -68.5 -278.5t-141.5 -213t-199.5 -136.5 t-243.5 -48q-129 0 -248 55.5t-210 158t-144.5 246.5t-53.5 321z" />
<glyph unicode="d" horiz-adv-x="1368" d="M61 0q37 0 65 11.5t48.5 51t35.5 114.5t30 204q17 167 17 320v17q-1 161 -17 335q-10 123 -26.5 196.5t-38 113.5t-49.5 54.5t-65 16.5h369q100 0 199.5 -7.5t192.5 -34t175 -75.5t145.5 -133t106 -209t54.5 -299q4 -51 4 -97q0 -111 -21 -195q-29 -118 -84 -192.5 t-134 -113.5t-167 -56.5t-180 -19.5t-176 -2h-484zM373 1071q10 -154 15 -329q1 -42 1 -83q0 -132 -12 -260q-5 -49 -5 -90q0 -111 35 -172q48 -84 179 -90h103t111.5 14.5t105.5 53.5t87 116.5t55 203.5q11 80 11 186q0 60 -4 129q-12 227 -60.5 355t-118 190.5 t-150.5 76.5t-159 14q-63 0 -104 -19t-62.5 -58t-27.5 -99q-3 -30 -3 -64.5t3 -74.5z" />
<glyph unicode="e" horiz-adv-x="1372" d="M61 1434h994l166 -654q-53 176 -122 291t-142.5 182.5t-146.5 97t-134 35.5q-27 2 -53 2q-38 0 -72 -5q-57 -9 -99 -33.5t-66 -64.5t-24 -95q0 -106 42 -186t104.5 -133.5t137.5 -80t142 -26.5q49 0 79 20.5t45.5 52t17.5 71.5v20q0 29 -4 57l114 -565q-33 45 -82 101.5 t-106 105.5t-120.5 82.5t-125.5 33.5q-86 0 -133 -63.5t-57 -151.5q-4 -36 -4 -71q0 -53 9 -104q15 -85 57 -151.5t108.5 -108.5t161.5 -46q19 -1 37 -1q122 0 203 47q93 54 153 153q59 98 96 231t74 287l-142 -764h-1036q92 104 129 280q29 138 29 331q0 52 -2 108 q-4 96 -21.5 213t-46 223.5t-69.5 184t-91 94.5z" />
<glyph unicode="f" horiz-adv-x="1282" d="M61 1434q49 -12 117 -24.5t148 -21t164.5 -13.5t166.5 -5q129 0 236.5 14.5t161.5 49.5l166 -654q-31 86 -80 185.5t-129 182.5t-194 134q-98 44 -230 44q-21 0 -43 -1q-104 -6 -153 -58q-30 -31 -30 -89q0 -38 13 -88q25 -94 74 -157t107 -100.5t119.5 -53t110.5 -15.5 q70 0 99 24q16 14 24.5 42t12.5 58t5 56.5t-1 40.5l114 -563q-147 182 -256 256q-96 66 -164 66q-8 0 -16 -1q-78 -8 -108 -85q-15 -36 -15 -89q0 -56 17 -131q29 -123 61.5 -201.5t86.5 -127t135 -72t204 -37.5h-819q78 10 119 36.5t63 63.5q20 35 26 109q2 35 2 76 q0 44 -3 95q-6 97 -22.5 209.5t-40 225.5t-53.5 219.5t-61.5 191.5t-66.5 140t-68 68z" />
<glyph unicode="g" horiz-adv-x="1437" d="M61 748q0 147 51.5 279t139.5 231.5t208 158t257 58.5q150 0 277.5 -71t217.5 -185q29 -31 62 -53.5t92 -26.5h-328q-51 2 -76.5 17t-50.5 42q-96 94 -190 138t-172 44q-59 0 -107 -24q-74 -37 -127 -116t-71 -190q-9 -53 -9 -112q0 -65 11 -138q20 -138 92 -294 q63 -115 134 -197t143.5 -134t144 -76.5t133.5 -24.5q86 0 148.5 35.5t103.5 95t60.5 134.5t21.5 153q1 18 1 37q0 38 -3 81q-4 66 -16.5 123.5t-35 96t-57.5 38.5t-78 -43q-92 -92 -168.5 -176t-141 -147.5t-116 -101.5t-92.5 -38q-33 0 -57 25q-30 30 -30 72q0 24 9 51 q27 76 125 149q92 72 173 127.5t153 106.5t140.5 101t135.5 110q-57 -59 -123.5 -119.5t-132 -116t-125 -104.5t-100.5 -88t-59.5 -65.5t-1.5 -37.5q6 -4 14 -4q24 0 67 30q58 40 129.5 107.5t147.5 147.5t133 145q68 76 121 76q27 0 51 -18q29 -20 47.5 -70.5t27.5 -112 t10 -124.5v-18q0 -52 -5 -89q-14 -154 -69.5 -278.5t-141.5 -213t-198.5 -136.5t-243.5 -48q-129 0 -248 55.5t-210 158t-144.5 246.5t-53.5 321z" />
<glyph unicode="h" horiz-adv-x="1634" d="M61 0q117 2 175 52t80 146q20 88 20 216v24q-2 142 -6 328q-4 174 -8.5 299t-29 207t-76.5 121t-155 41h1512q-100 -2 -153.5 -41t-78 -121t-28.5 -207t-8 -299q-5 -186 -7 -328v-30q0 -124 20 -210q22 -96 80 -146t175 -52h-1512zM460 1053q0 -94 7.5 -150.5t42.5 -85.5 t106.5 -37t200.5 -8t201 8t106.5 37t43 85t8.5 151q0 106 -26 178t-73 116t-113.5 62t-146.5 18t-146.5 -18t-113.5 -62t-72 -116t-25 -178zM467 381q0 -111 24.5 -182.5t69.5 -114.5t110.5 -60.5t145.5 -17.5t144.5 17.5t110.5 60.5t70.5 114.5t24.5 182.5q0 117 -6 184.5 t-40 103.5t-104.5 46t-199.5 10t-199.5 -10t-104.5 -46t-40 -103.5t-6 -184.5z" />
<glyph unicode="i" horiz-adv-x="1064" d="M72 592q26 76 125 149q43 33 73.5 55.5t56 42t49 38t52.5 43.5q31 27 45 62.5t15 75.5v10q0 35 -6 71q-7 41 -19 78q-20 63 -55 104t-81 65.5t-100.5 36t-109.5 11.5h819q-254 0 -291 -217q-14 -88 -38.5 -161t-94.5 -132q-61 -53 -115.5 -98.5t-91.5 -79t-51 -56 t2 -35.5q6 -4 14 -4q24 0 67 30q58 40 130 107.5t147.5 147.5t133.5 145q35 39 75.5 63.5t81.5 24.5t74 -30q26 -25 26 -59q1 -22 -11 -48q-28 -66 -99 -127q-35 -29 -60.5 -47t-48 -33.5t-46 -30t-52.5 -36.5q-53 -39 -78 -86q-26 -46 -32 -100q-4 -29 -4 -60q0 -26 2 -52 q6 -58 14 -120q12 -106 40.5 -172t71.5 -102.5t101.5 -50t132.5 -15.5h-819q68 2 122 15.5t96 50t69.5 102t39.5 172.5q6 55 8.5 102t10.5 91.5t29.5 87.5t66.5 90q35 37 83 73.5t89 70.5t64.5 61.5t9.5 44.5q-6 8 -19 8q-29 0 -83 -39t-119.5 -98.5t-135 -130 t-129.5 -132.5q-43 -47 -91 -83.5t-89 -36.5q-27 0 -47 20q-30 30 -30 72q0 24 10 51z" />
<glyph unicode="j" horiz-adv-x="1646" d="M61 -358q143 2 279.5 9t258.5 25.5t224.5 53t179 96t124 153t55.5 222.5q4 55 6 141t4 186.5t3 205t1 194.5t-2 155t-4 88q-12 100 -49 157.5t-131 57.5q-57 0 -114.5 -32.5t-116 -105t-118 -187.5t-118.5 -279l164 652h878q-57 -8 -98 -28t-66.5 -63t-40 -115.5 t-20.5 -189.5q-8 -115 -8 -236.5v-243.5t-3 -238.5t-18 -223.5q-18 -135 -85.5 -221t-168 -137t-226.5 -72.5t-261 -27.5q-74 -3 -149 -3q-61 0 -123 3q-136 4 -257 4z" />
<glyph unicode="k" horiz-adv-x="1509" d="M61 1434h820q-172 -6 -263.5 -37t-131.5 -91.5t-42 -154.5v-36q0 -83 7 -195q4 -70 42.5 -102t92.5 -32q33 0 67.5 12.5t66.5 36t56.5 57.5t36.5 77q35 119 51.5 207t32.5 145t42 85t77 28h352q-109 -2 -166 -35t-94 -93.5t-67.5 -145.5t-84.5 -189q-18 -37 -45.5 -64.5 t-55.5 -46t-52.5 -30t-38.5 -19.5q-10 -6 -22.5 -14.5t-18.5 -17.5t-2 -19t27 -21q137 -55 216.5 -132t126 -159.5t73 -162.5t58 -143.5t82 -102.5t144.5 -39h-1366q82 2 124 27.5t61.5 79t25.5 137.5t14 200q6 80 10.5 167t4.5 173t-4.5 168t-14.5 156q-8 68 -15 127 t-29.5 103t-68 70t-129.5 26zM446 547v-11q0 -57 5 -143q4 -129 36.5 -206.5t85 -117.5t118.5 -51.5t140 -11.5q59 0 109 18q48 19 68 66q10 24 11 58q1 32 -9 73q-18 84 -97 215q-41 68 -98 132.5t-143 117.5q-98 61 -148 62q-57 0 -69 -82q-9 -59 -9 -119z" />
<glyph unicode="l" horiz-adv-x="1292" d="M61 1434h983q-37 0 -115.5 -6.5t-168.5 -19.5t-175 -34.5t-134 -54.5q-61 -41 -69 -119q-3 -29 -2 -62q0 -58 8 -130l28 -266q8 -74 8 -156q0 -85 -8 -178q-3 -37 -3 -71.5t3 -66.5q6 -64 33.5 -112.5t79 -77.5t135.5 -33q28 -1 55 -1q99 0 167 18q87 22 138 67 t71.5 110.5t23.5 147.5q1 19 1 39q0 64 -8 138q-10 96 -22 198l141 -764h-1098q39 47 69.5 110.5t52 149.5t31.5 200q7 80 6 175q0 40 -1 84q-4 139 -28.5 266t-58.5 224.5t-72 157.5t-71 67z" />
<glyph unicode="m" horiz-adv-x="2086" d="M61 0q10 0 49.5 2t87.5 19.5t98 58.5t83 123q29 72 61.5 184.5t60 237.5t47 244.5t23.5 201.5q1 19 1 36q0 63 -11 115q-14 66 -49 113t-93.5 73t-144.5 26q127 0 213 1h41q60 0 100 -2q54 -3 79.5 -13.5t31.5 -37.5q4 -12 13.5 -60t20.5 -106.5t22.5 -112.5t15.5 -77 q37 -137 68.5 -271t62.5 -238.5t63.5 -168t71.5 -63.5q35 0 68 63.5t64.5 165.5t63.5 235.5t64 274.5q4 23 15.5 77t22.5 112.5t21.5 107.5t12.5 61q6 25 30.5 36.5t76.5 14.5q39 2 99 2h41q87 -1 218 -1q-92 0 -152.5 -30t-94.5 -83t-44 -129q-6 -48 -6 -101q0 -32 2 -67 q2 -29 12.5 -89.5t26.5 -137t36.5 -163.5t41 -168t41 -150.5t37.5 -112.5q31 -82 71.5 -124t78.5 -59.5t66.5 -18.5t34.5 -1h-819q68 0 139.5 13.5t127 47t83.5 93.5q17 36 16 83q0 31 -7 68q-14 66 -31.5 144.5t-34 153.5t-32 138.5t-25.5 98.5q-8 29 -21.5 43t-27.5 14 t-27.5 -14.5t-19.5 -42.5q-16 -72 -39 -159t-49.5 -175t-55 -171t-59.5 -147.5t-60.5 -103.5t-56.5 -39q-39 0 -73.5 41t-67.5 108.5t-61.5 153.5t-55.5 175t-51.5 176t-46.5 155q-14 43 -43 43q-27 0 -33 -39l-96 -508q-10 -47 -10 -87q0 -51 17 -89q30 -68 89 -106.5 t136 -52t151 -15.5h-820z" />
<glyph unicode="n" horiz-adv-x="1474" d="M61 0q37 4 75 16t69 38t50 67t21 102q1 28 1 64q0 35 -1 79q-2 86 -6 188.5t-11 213.5t-17 215q-10 117 -20 208q-5 49 -5 90q0 35 4 63q8 62 40 96.5t101 34.5q33 0 72 -7q117 -20 198 -117.5t140 -233.5t104.5 -291.5t90.5 -295t96 -243t123 -133.5q25 -10 41 -11 q49 0 79 53q32 54 46 143q12 74 12 168q0 20 -1 40q-3 119 -22 248q-23 158 -53.5 260t-65 165.5t-71.5 95.5t-72 48q-45 23 -112.5 35t-139 19t-140.5 10.5t-118 5.5h545q25 0 48.5 -3.5t47 -13.5t43 -32.5t33.5 -61.5q31 -78 54.5 -192.5t40 -241.5t24.5 -253t8 -226 q0 -96 -10 -178t-37 -140.5t-70 -91.5t-110 -33q-88 0 -153.5 56.5t-118 147.5t-94.5 208t-78.5 239.5t-73.5 239.5t-79 208t-94.5 147.5t-119.5 56.5q-47 0 -66.5 -39t-21.5 -107v-25q0 -59 7 -132q9 -90 15 -193q16 -240 52 -387t101.5 -230t168 -115t250.5 -42h-820z" />
<glyph unicode="o" d="M61 748q0 147 51.5 279t139.5 231.5t208 158t257 58.5t257 -58.5t209 -158t140 -231.5t51 -279q0 -176 -50 -320.5t-137 -247t-208 -158t-262 -55.5q-129 0 -248 55.5t-210 158t-144.5 246.5t-53.5 321zM244 1046q-9 -52 -9 -111q1 -64 11 -136q20 -137 92 -293 q63 -115 134 -197t143.5 -134t144 -76.5t133.5 -24.5q74 0 135 32q76 39 125 113q49 73 65 175q6 41 6 88q0 66 -14 142q-22 128 -94 277q-57 123 -130 212t-147.5 146.5t-149.5 85t-138 27.5q-61 0 -109 -24q-74 -37 -127 -114.5t-71 -187.5z" />
<glyph unicode="p" horiz-adv-x="1380" d="M61 1434q182 4 360.5 22.5t369.5 18.5q268 0 398 -155t130 -441q0 -131 -40 -219.5t-104.5 -139.5t-147.5 -70q-58 -12 -116 -12q-26 0 -51 2q-94 10 -151.5 43t-94 68t-60.5 57.5t-54 9.5q-23 -8 -29 -36q-4 -20 -4 -44q0 -12 1 -25q3 -40 13.5 -89t22.5 -100 q27 -106 64.5 -168t91 -94.5t121 -44t151.5 -17.5h-819q80 2 126 35t70.5 89t30.5 131q4 45 4 94q0 32 -2 66q-4 85 -13.5 177t-15.5 182q-12 201 -38.5 329t-60.5 201.5t-74 101.5t-79 28zM433 1029q9 -97 56 -212q37 -88 84.5 -150.5t99.5 -101.5t104 -56t97 -17 q49 0 95 20q55 29 92 83t50 128q7 38 7 81q0 40 -6 83q-12 90 -55 186q-43 92 -93.5 156.5t-101.5 105.5t-102 59.5t-98 18.5q-48 0 -89 -18q-43 -20 -79.5 -70.5t-53.5 -124.5q-10 -48 -10 -105q0 -32 3 -66z" />
<glyph unicode="q" d="M61 748q0 147 51.5 279t139.5 231.5t208 158t257 58.5t257 -58.5t209 -158t140 -231.5t51 -279q0 -162 -42 -296.5t-115 -234.5q-26 -42 -26 -97q0 -16 2 -32q9 -76 36 -147q31 -82 80 -168q-57 76 -121 131q-27 25 -57.5 46t-64.5 35.5t-70 19.5q-11 2 -23 2 q-24 0 -49 -7q-49 -16 -100.5 -24.5t-106.5 -8.5q-129 0 -248 55.5t-210 158t-144.5 246.5t-53.5 321zM244 1050q-9 -53 -9 -112q0 -65 11 -138q20 -138 92 -294q47 -84 102.5 -157t119 -129t134 -93t146.5 -49q27 -2 49 6t38.5 25.5t22.5 43t-2 58.5q-16 72 -57 162 t-84 168q-49 92 -107 186q16 -23 45 -66t67 -94t81 -104t85 -96t79 -71t63 -28q47 0 78 64q27 56 27 159v27q-4 86 -31 181.5t-78 201.5q-57 125 -130 215t-148.5 148.5t-151.5 87t-139 28.5q-61 0 -105 -24q-74 -37 -127 -116t-71 -190z" />
<glyph unicode="r" horiz-adv-x="1837" d="M61 0q121 0 177.5 55.5t72.5 151.5q7 43 9 107q1 24 1 48q1 42 -1 86q-2 70 -6.5 145t-6.5 138q-6 117 -16 241t-35 225t-69 168t-115 69q29 0 66.5 2t77.5 6t79 8t70 6q78 8 167 13.5t195 5.5q236 0 371 -121t145 -338q1 -18 1 -35q0 -91 -26 -168q-32 -92 -94.5 -157.5 t-152.5 -102.5t-201 -37q-57 0 -123.5 14.5t-128.5 61.5q-23 16 -45 16q-20 0 -20 -20q0 -23 43 -51q25 -16 65.5 -27.5t88.5 -22t98.5 -20.5t93.5 -23q49 -14 95 -36.5t84 -65.5t68.5 -109.5t49.5 -169.5q27 -141 68.5 -223t114.5 -124t182.5 -55t271.5 -19 q-106 -2 -192 -2t-152 2q-134 4 -220 20q-82 16 -123.5 49t-63 87.5t-35 132t-42.5 184.5q-39 150 -131 242t-227 92q-92 0 -125 -75q-15 -33 -15 -78q0 -55 23 -126q16 -51 63.5 -85t106.5 -52.5t123.5 -25.5t114.5 -7h-820zM412 1168q6 -78 18 -173q14 -100 26.5 -180 t44 -136t92 -86t171.5 -30q68 0 118 33t80 91q31 57 41 139q5 37 5 78q0 49 -7 102q-27 221 -129 322.5t-251 101.5q-90 0 -136.5 -33t-62.5 -91q-12 -43 -12 -96q0 -21 2 -42z" />
<glyph unicode="s" horiz-adv-x="1284" d="M61 0l142 764q0 -82 -5 -159q-3 -48 -3 -93q0 -28 1 -54q3 -70 19 -130t55 -111t106.5 -90t174.5 -64q53 -12 98 -12q90 0 156.5 38t108.5 101.5t56 143.5q6 34 5 69q0 46 -10 93q-18 74 -99.5 141.5t-259.5 110.5q-23 6 -67.5 14t-98 23.5t-110 41t-103.5 66.5 t-79.5 99.5t-36.5 137.5q-1 17 -1 33q0 80 32 136q40 67 110 106t162 54.5t190 15.5q104 0 202.5 -12.5t176.5 -28.5l166 -654q-90 324 -223 479.5t-295 157.5q-76 0 -134.5 -17.5t-94.5 -55.5q-38 -36 -50 -94q-5 -25 -5 -55q0 -37 9 -81q10 -45 28.5 -94t51.5 -94t81 -81 t116 -54q100 -27 193.5 -45.5t169 -48t131 -81t79.5 -145.5q16 -56 16 -110q0 -43 -10 -85q-24 -92 -85.5 -160.5t-153.5 -108.5t-203 -40q-110 0 -235 47t-209 71t-138 24q-55 0 -83.5 -27t-43.5 -82z" />
<glyph unicode="t" horiz-adv-x="1359" d="M61 1434h1237l-163 -654q16 113 16 210q0 24 -1 47q-5 116 -31.5 196t-69.5 121q-34 32 -75 32q-11 0 -22 -2q-90 -16 -137 -138t-57 -312q-2 -53 -5 -118.5t-4 -136.5q0 -18 -1 -36q0 -55 3 -109q3 -74 9 -145q12 -135 43 -211t75 -113.5t98 -48t114 -16.5h-820 q59 6 114.5 16t100.5 47t76 113t41 213q8 71 10 145q1 49 1 98v48q-1 72 -4 137.5t-7 116.5q-10 193 -58 314.5t-145 135.5q-18 3 -34 3q-61 -1 -95 -37q-43 -46 -58 -131q-10 -59 -10 -131q0 -34 2 -70q7 -115 21 -238z" />
<glyph unicode="u" horiz-adv-x="1634" d="M61 1434h1512q-12 -2 -36 -6.5t-54.5 -18.5t-65 -44t-69.5 -81q-58 -92 -64 -180q-1 -10 -1 -21q0 -79 36 -172q37 -94 64.5 -201.5t30.5 -211.5v-22q0 -93 -22 -179q-26 -96 -93.5 -170t-184.5 -117t-295 -43t-294.5 43t-184.5 117t-94 170q-23 86 -22 179v22 q3 104 31 211.5t64 201.5q37 93 37 173q0 10 -1 20q-5 88 -64 180q-33 51 -69 81t-67.5 44t-56 18.5t-37.5 6.5zM436 462q-8 -51 -7 -98q1 -72 19 -132q32 -100 121.5 -160t249.5 -60q152 0 239 60q86 60 118 158q21 65 21 144q0 40 -5 84q-16 130 -72 271 q-43 111 -43 185.5t20.5 135t50.5 114t44 120.5q3 14 3 26q1 33 -23 54q-32 29 -90 43t-127.5 18.5t-135.5 4.5t-136.5 -4.5t-127.5 -18.5t-89 -43q-23 -21 -23 -54q0 -12 3 -26q16 -68 47 -122t53 -114q21 -58 20 -129v-7q-1 -74 -48 -183q-62 -137 -82 -267z" />
<glyph unicode="v" horiz-adv-x="1579" d="M66 1322q-3 19 -3 35q1 28 11 47q16 30 71 30h1373q-8 0 -41 -5.5t-74 -28t-84 -67.5t-74 -127q-18 -49 -56 -160.5t-86 -249t-102.5 -284.5t-109.5 -268t-107.5 -199t-93.5 -78q-33 0 -74 51.5t-87 136.5t-95 196.5t-97 231t-93 241t-84 223.5q-31 82 -57.5 152.5 t-36.5 122.5zM310 1314q-10 -24 -10 -56q0 -41 17 -97q25 -74 58 -173t71.5 -206.5t80.5 -212t85 -186.5t83 -133t75 -51t77 71.5t85 178t86 229.5t78 227q25 70 37 125q12 54 14 102v19q0 37 -6 69q-8 40 -29 78q-23 43 -65.5 69t-94 39t-104.5 17t-96 4q-106 0 -199.5 -5 t-156 -29.5t-86.5 -78.5z" />
<glyph unicode="w" horiz-adv-x="2547" d="M61 1434h2425q-86 -6 -132 -35t-67.5 -76t-26.5 -112.5t-11 -147.5q-6 -106 -15.5 -229t-31 -245t-63.5 -234.5t-116.5 -198.5t-188.5 -137.5t-278 -51.5q-88 0 -136 38t-69.5 97.5t-23.5 131.5q-1 36 -1 70.5t1 68.5q0 111 16.5 240.5t42.5 254.5q32 102 52 182 q15 61 15 107q0 13 -1 27q-6 54 -47 83t-131 29q-94 0 -134 -30t-44 -86q-1 -9 -1 -19q-1 -49 17 -115q20 -78 47 -178q29 -125 45.5 -255t16.5 -240q1 -34 1 -69q0 -34 -1 -70q-2 -72 -23.5 -131.5t-70 -97.5t-136.5 -38q-164 0 -277.5 51.5t-188 137.5t-117.5 198.5 t-64.5 234.5t-30 244.5t-14.5 229.5q-4 82 -9 147.5t-26.5 112.5t-69 75.5t-133.5 35.5zM446 1223q0 -129 11.5 -271.5t38 -279.5t68.5 -261t103.5 -216.5t144.5 -143.5q72 -44 161 -44q14 0 28 1q72 6 111 45q38 39 54 95q15 53 15 115v7q-1 66 -7 121q-10 100 -36 209 t-63 217.5t-86 208.5t-105.5 181t-122 137.5t-134.5 74.5q-25 8 -56 8q-53 0 -89 -45t-36 -159zM1371 270v-7q1 -61 15 -115q16 -56 52 -95t108 -45q14 -1 28 -1q90 0 162 44q84 51 145 143.5t102.5 216.5t68.5 261t38 279.5t11 271.5q0 117 -34.5 160.5t-90.5 43.5 q-12 0 -26.5 -2t-28.5 -6q-68 -18 -133.5 -73.5t-123.5 -136.5t-107.5 -181t-87 -207.5t-62.5 -218t-31 -211.5q-4 -55 -5 -121z" />
<glyph unicode="x" horiz-adv-x="1605" d="M61 1434h345q39 0 64.5 -6.5t45.5 -45.5q59 -113 110.5 -210t90.5 -170.5t63.5 -118.5t28.5 -52q33 -53 59 -53q31 0 57.5 62.5t73.5 160.5q53 111 69 195q5 26 6 50q0 51 -25 87q-25 35 -69 54.5t-95 28.5t-100.5 12.5t-84.5 5.5h820q-14 0 -40 -2t-54.5 -9.5 t-59.5 -20.5t-57 -36q-45 -39 -91.5 -96.5t-90.5 -129t-85 -153.5t-77 -168q-16 -39 -22.5 -60.5t-4.5 -40t11 -39t26 -54.5q47 -102 110.5 -214t126.5 -202q31 -45 64 -82t71.5 -64.5t87 -44t109.5 -18.5h-344q-39 0 -65.5 6t-42.5 41q-57 115 -108.5 213t-91.5 172 t-65.5 119t-29.5 51q-31 51 -56 51q-33 0 -65.5 -65.5t-79.5 -163.5q-52 -110 -64 -190q-3 -19 -3 -37q0 -56 28 -97q25 -35 69 -54t95 -28.5t100 -12.5t84 -5h-819q14 0 39 2t54.5 9t60 20.5t57.5 36.5q45 39 89 98t87 133t85 157t83 169q12 25 12 52q0 14 -3 29 q-9 44 -38 113q-41 104 -96 209t-115 191q-31 47 -63.5 84.5t-72.5 66.5t-89 45.5t-115 18.5z" />
<glyph unicode="y" horiz-adv-x="1667" d="M61 1434h355q39 0 66.5 -6.5t37.5 -30.5q86 -223 149.5 -376t105.5 -247t63.5 -138t25.5 -50q37 -63 84 -64q45 0 90 52.5t80 144.5q33 90 60.5 173t41.5 158q11 57 11 108q0 18 -1 35q-5 67 -40 120q-27 43 -80 65.5t-113.5 33.5t-118 15.5t-92.5 6.5h820 q-111 -6 -173.5 -70t-108.5 -180.5t-94 -280.5t-132 -371q-23 -57 -46.5 -85.5t-40 -54t-21.5 -60.5q-1 -10 -1 -23q0 -32 8 -80q12 -59 35 -100t62 -67.5t96 -41t137 -20.5h-819q92 6 150.5 20.5t95.5 41t56 67.5t32 100q7 36 7 63q0 24 -5 41q-13 36 -38.5 65.5t-60 66.5 t-65.5 108q-29 66 -50.5 114t-39 89t-34.5 80t-37.5 86t-47.5 109.5t-65 150.5q-43 102 -129.5 165t-215.5 67z" />
<glyph unicode="z" horiz-adv-x="1228" d="M61 0q41 61 69 103t49.5 73t42 57.5t48.5 57.5q39 47 93.5 100t119 111.5t134 120t137.5 122.5q37 33 76.5 67t71.5 62.5t49.5 52t6.5 36.5q-6 8 -20 8q-29 0 -82 -39t-117.5 -99.5t-134 -131t-129.5 -132.5q-43 -47 -91 -83.5t-89 -36.5q-27 0 -47 20q-30 30 -30 72 q0 24 10 51q26 76 124 149q92 72 166 126.5t135.5 105.5t113.5 103t101 120q38 52 38 88q0 38 -30 64q-28 24 -79.5 35.5t-110.5 11.5q-51 0 -102.5 -2t-97.5 -12.5t-83.5 -31t-62.5 -59.5q-46 -76 -46 -206v-6q1 -134 23 -298l-163 654h1013q-41 -45 -74.5 -82t-66.5 -72 t-67.5 -74t-79.5 -86q-86 -90 -178.5 -168t-164 -138t-110.5 -101q-24 -25 -24 -41q0 -10 10 -17q6 -4 14 -4q24 0 67 30q58 40 129.5 107.5t147.5 147.5t133 145q35 39 76 63.5t82 24.5t74 -30q26 -24 26 -58q0 -23 -12 -49q-29 -66 -98 -127q-35 -29 -67 -52.5t-65.5 -46 t-68.5 -48t-76 -60.5q-82 -70 -143.5 -132t-106.5 -114.5t-77.5 -97.5t-61.5 -82q-37 -63 -46 -106q-2 -11 -2 -21q-1 -29 19 -49q26 -26 94 -37.5t185 -11.5q154 0 241 34q88 34 124 116q33 74 32 193v27q-4 138 -35 347l142 -764h-1078z" />
<glyph unicode="{" horiz-adv-x="1026" d="M61 721q45 0 107.5 12t120 48t97.5 100.5t40 171.5q2 135 4 285.5t4 310.5q2 82 43 112.5t101 30.5h387q-131 -6 -210 -16.5t-121 -32t-56.5 -58t-16.5 -98.5q-2 -76 -3 -146.5t-1 -138v-136v-142.5q0 -63 -11 -105t-27.5 -68t-36 -41t-36.5 -26q-33 -20 -66.5 -30.5 t-61 -14.5t-45 -7t-17.5 -11t17.5 -11t45 -7.5t61.5 -14.5t66 -31q16 -10 36 -25.5t36.5 -41t27.5 -67.5t11 -105v-142.5v-136t1 -138.5t3 -146q2 -61 16.5 -98.5t56.5 -59t121 -31.5t210 -16h-387q-59 0 -100.5 30.5t-43.5 112.5q-2 160 -4 310.5t-4 285.5q0 106 -40 172 t-97.5 100.5t-120 47t-107.5 12.5z" />
<glyph unicode="|" horiz-adv-x="1054" d="M61 -350q133 6 211 16t119 31.5t55.5 58.5t18.5 99l2 32v239v234.5v210v166.5q0 2 1 41t1 105.5t1 152.5t0 179.5t-2 189.5t-3 182q-2 61 -15.5 98t-55.5 58.5t-120.5 32t-212.5 16.5h932q-131 -6 -211 -16.5t-123 -32t-56 -58t-13 -98.5l-2 -844v-44v-111.5v-158.5v-183 v-187.5v-171.5l2 -32q4 -61 18.5 -98.5t55.5 -59t119.5 -31.5t209.5 -16h-932z" />
<glyph unicode="}" horiz-adv-x="1026" d="M61 -350q133 6 211 16t120 31.5t56.5 58.5t16.5 99q4 76 5 146.5t1 138t-1 136t-1 142.5q0 63 11.5 105t27.5 67.5t35.5 41t36.5 25.5q33 20 66.5 30.5t61 15t45 7.5t17.5 11t-17.5 11t-45 7t-61.5 14.5t-66 30.5q-16 10 -36 25.5t-36 41.5t-27.5 68t-11.5 105 q0 74 1 142.5t1 136t-1 138t-5 146.5q-2 61 -16.5 98t-56.5 58.5t-119.5 32t-211.5 16.5h388q59 0 100 -30.5t43 -112.5q2 -160 4 -310.5t4 -285.5q0 -106 41 -171t97.5 -101t119 -48t107.5 -12q-45 0 -107.5 -12.5t-119 -47t-97.5 -100t-41 -172.5q-2 -135 -4 -285.5 t-4 -310.5q-2 -82 -43 -112.5t-100 -30.5h-388z" />
<glyph unicode="~" horiz-adv-x="847" d="M61 559q4 109 27 197q10 37 24.5 71.5t35 62.5t48 44t64.5 16q41 0 68.5 -24.5t49 -58t39 -70.5t36.5 -64q23 -35 62.5 -53t82.5 -18q92 0 135 74.5t53 193.5q-4 -109 -24 -195q-12 -49 -33.5 -94t-55.5 -73.5t-83 -28.5q-41 0 -67.5 22.5t-45 53t-34 65.5t-33.5 59 q-61 80 -156 80q-96 0 -138.5 -72.5t-54.5 -187.5z" />
<glyph unicode="&#xa1;" horiz-adv-x="942" d="M61 0q74 0 131.5 15.5t100.5 60.5t71.5 125t43.5 209q4 29 12 114.5t19.5 198.5t20.5 237t11 228q4 -104 14.5 -228t21.5 -237t20.5 -199t13.5 -114q18 -129 43.5 -209t65.5 -125t96.5 -60.5t134.5 -15.5h-820zM348 1354q0 51 37 86t86 35q47 0 85 -35t38 -86 q0 -53 -38 -89t-85 -36q-49 0 -86 35.5t-37 89.5z" />
<glyph unicode="&#xa2;" horiz-adv-x="1089" d="M62.5 725q0.5 125 50 230.5t143.5 179t223 88.5q29 6 36 20t7 47v185h47v-185q0 -35 5.5 -49t37.5 -20q84 -16 168 -61.5t138 -106.5q16 -20 41.5 -34.5t60.5 -19.5h-283q-33 0 -50 11.5t-36 27.5q-51 51 -69 52q-12 0 -13 -25v-692q0 -47 24.5 -74t65.5 -27q39 0 93 29 q78 41 101.5 132t0.5 220q-8 55 -18.5 89t-27.5 53.5t-46 26.5t-76 9h309q23 0 27 -26q2 -10 5 -46t-3 -95q-23 -205 -134.5 -318t-275.5 -135q-31 -4 -38 -16.5t-7 -38.5v-156h-47v141q0 33 -8 48.5t-43 21.5q-53 4 -103.5 20.5t-95.5 47t-84.5 80.5t-72.5 122 q-53 119 -52.5 244zM246 948.5q-14 -141.5 82 -352.5q23 -41 49 -82t51 -73.5t46.5 -53t35.5 -20.5q10 0 11 14t1 37v667q0 35 -24.5 54.5t-61.5 19.5q-35 0 -76 -18q-100 -51 -114 -192.5z" />
<glyph unicode="&#xa3;" horiz-adv-x="1220" d="M61 0q18 49 30.5 89t34 78t60.5 78t109 91q33 23 65.5 39t63.5 31.5t56.5 33t43.5 41.5q18 33 -28 33h-435v47h435q41 2 51 13.5t0 50.5q-12 41 -48 74.5t-82 68.5t-96.5 72t-93.5 80t-72.5 95t-33.5 118q-4 102 29.5 167.5t94 104.5t140.5 54.5t166 15.5 q96 0 189.5 -15.5t170.5 -25.5l166 -654q-45 160 -103.5 280t-122 199.5t-129 120.5t-122.5 45q-150 10 -199 -69.5t-30 -225.5q12 -104 48 -169.5t74.5 -119t69.5 -107.5t37 -134q4 -27 12.5 -33t34.5 -6h293v-47h-324q-10 0 -17 -4t-15 -21q-25 -63 -74 -105t-97 -76 t-81 -68.5t-21 -81.5q10 -45 46 -68.5t87.5 -33t111.5 -9.5h122q160 6 239.5 62.5t108.5 152.5t19.5 229.5t-27.5 292.5l141 -784h-1098z" />
<glyph unicode="&#xa5;" horiz-adv-x="1667" d="M61 1434h355q39 0 66.5 -6.5t37.5 -30.5q86 -223 149.5 -376t105.5 -247t63.5 -138t25.5 -50q37 -63 84 -64q45 0 90 52.5t80 144.5q33 90 60.5 173t42 158.5t9.5 142.5t-40 120q-27 43 -80 65.5t-113.5 33.5t-118 15.5t-92.5 6.5h820q-111 -6 -173.5 -70t-108.5 -180.5 t-94 -280.5t-132 -371q-18 -49 -39 -76.5t-36 -49t-25.5 -44t-8.5 -63.5q4 -29 20.5 -35t39.5 -6h303v-47h-289q-35 0 -47 -5t-2 -38q45 -121 145 -121h193v-47h-879v47h215q57 0 89 34t52 99q6 23 -7 27t-46 4h-303v47h324q41 0 46 15.5t3 50.5q-6 33 -23.5 54t-41 46 t-50 59.5t-51.5 89.5q-29 66 -50.5 114t-39 89t-34.5 80t-37.5 86t-47.5 109.5t-65 150.5q-43 102 -129.5 165t-215.5 67z" />
<glyph unicode="&#xa7;" horiz-adv-x="929" d="M61 0l99 530q0 -86 -4 -162.5t13 -139t69.5 -109.5t162.5 -74q33 -8 70 -8q61 0 107.5 26.5t76 69.5t38.5 98.5t-3 112.5q-14 53 -69.5 99t-180.5 77q-25 6 -80 16.5t-112.5 38t-102.5 77.5t-49 134q-2 61 15.5 101.5t45 65t61.5 36.5t62.5 18.5t48 8.5t19.5 8 q0 8 -38 14t-84 29t-86 69t-44 132q-4 72 23.5 118t77 73.5t112 37.5t129.5 10q72 0 142.5 -9t124.5 -19l114 -455q-61 223 -155.5 332.5t-210.5 109.5q-104 0 -156.5 -50t-30.5 -161q6 -31 18.5 -64.5t35 -65t55.5 -57.5t80 -38q70 -18 136 -31.5t121.5 -35t93.5 -58.5 t52 -104q20 -98 -3.5 -154.5t-59 -88.5t-69.5 -45t-34 -26q0 -8 19.5 -12t47 -17.5t55.5 -42t44 -87.5q18 -70 2 -133.5t-59 -111.5t-106.5 -77t-141.5 -29q-74 0 -162 33q-86 35 -144.5 50.5t-96.5 15.5q-39 0 -58.5 -18.5t-30.5 -57.5zM266 774q10 -49 33 -91t55.5 -75 t75.5 -51t94 -18q49 0 86 21.5t58.5 58t26.5 86t-9 104.5q-23 84 -87 130t-142 46q-104 2 -159 -49t-32 -162z" />
<glyph unicode="&#xa8;" horiz-adv-x="778" d="M61 1714q0 53 37 89t86 36q47 0 85 -36t38 -89q0 -51 -38 -86t-85 -35q-49 0 -86 35t-37 86zM471 1714q0 53 37 89t86 36q47 0 85 -36t38 -89q0 -51 -38 -86t-85 -35q-49 0 -86 35t-37 86z" />
<glyph unicode="&#xa9;" horiz-adv-x="1726" d="M61 737q0 160 61.5 300.5t171 244.5t258 164.5t322.5 60.5q170 0 314.5 -60.5t251 -164.5t166 -244.5t59.5 -300.5t-59.5 -300t-166 -244.5t-251 -165t-314.5 -60.5q-174 0 -322.5 60.5t-258 165t-171 245t-61.5 299.5zM307 737q0 -166 43 -300t119 -228t180 -144.5 t225 -50.5t221.5 50.5t172 144.5t111.5 228t40 300t-40 300t-111.5 228.5t-172 144.5t-221.5 50t-225 -50t-180 -144.5t-119 -228.5t-43 -300zM457 752q0 94 31.5 176t87 142t129 95t157.5 35q43 0 87 -14.5t85 -39t77 -55t63 -63.5q16 -16 36.5 -29.5t53.5 -17.5h-213 q-29 0 -44.5 9t-29.5 26q-115 115 -217 114q-35 0 -64 -16q-43 -25 -73.5 -72t-42 -112.5t1 -146.5t57.5 -173q33 -68 72 -116t81 -78.5t82.5 -44t77.5 -13.5q49 0 88 23q72 41 98.5 114.5t12.5 186.5q-6 47 -14.5 76.5t-23.5 46t-40.5 23t-66.5 8.5h229q33 0 33 -39 q0 -10 1 -32t-3 -75q-8 -86 -44 -161.5t-90.5 -132t-124 -89.5t-145.5 -33q-84 0 -157.5 37t-129 101.5t-87 151.5t-31.5 188z" />
<glyph unicode="&#xaa;" horiz-adv-x="976" d="M66 1161q18 227 83.5 363.5t157.5 208t199.5 93t210.5 17.5q27 0 41 -11t19 -40t5 -82t-2 -140t-3 -212t3 -297q0 -63 35 -106.5t100 -43.5h-516q113 6 170.5 38t82 93.5t25.5 154.5t1 222q0 41 -5 65.5t-38 24.5q-41 0 -70.5 -46t-56.5 -114.5t-52.5 -148.5t-56 -148.5 t-69.5 -114.5t-92 -46q-96 0 -139.5 61.5t-32.5 208.5zM152 1232q2 -81 26.5 -133t65.5 -50q51 4 87 56t74.5 141t87 205t123.5 245q18 33 21.5 52t-4.5 29.5t-22.5 13.5t-32.5 3q-117 -6 -200 -64.5t-133 -141.5t-72.5 -179t-20.5 -177z" />
<glyph unicode="&#xab;" horiz-adv-x="1042" d="M61 750q0 35 27 55t68 45q76 43 130 70.5t108.5 53t119 57.5t160.5 83q-68 -45 -133.5 -95t-117.5 -99.5t-85 -93t-33 -76.5q0 -41 30 -82t80 -86t117.5 -93.5t141.5 -103.5q-96 51 -160.5 83t-119 57.5t-109 53t-129.5 70.5q-41 25 -68 45.5t-27 55.5zM389 750 q0 35 26.5 53t67.5 47q76 51 127.5 84t101.5 68.5t111.5 84t157.5 130.5q-158 -168 -253 -284.5t-95 -182.5q0 -41 26.5 -87.5t72.5 -101.5t110.5 -123.5t138.5 -154.5q-96 82 -157.5 130t-111.5 83.5t-101.5 68.5t-127.5 84q-41 29 -67.5 47.5t-26.5 53.5z" />
<glyph unicode="&#xae;" horiz-adv-x="1726" d="M61 737q0 160 61.5 300.5t171 244.5t258 164.5t322.5 60.5q170 0 314.5 -60.5t251 -164.5t166 -244.5t59.5 -300.5q0 -188 -80 -347t-221 -263q-20 -16 -19 -25.5t21 -17.5q47 -14 110.5 -19.5t147.5 -9.5q-121 -2 -210 -6t-152 -2q-10 0 -20.5 -1t-20.5 -5 q-78 -35 -165 -54.5t-182 -19.5q-174 0 -322.5 60.5t-258 165t-171 244.5t-61.5 300zM307 737q0 -166 43 -300t119 -228t180.5 -144.5t224.5 -50.5q90 0 173 29q37 16 46 27.5t-3 40.5q-16 43 -27.5 101t-25 115.5t-36 106.5t-63.5 74q-80 49 -133 49t-70.5 -44t6.5 -122 q10 -35 41 -56.5t69 -32.5t78 -15t66 -4h-524q78 0 112.5 34.5t46 96t6.5 146.5t-9 185q-2 80 -10.5 161t-25 145.5t-44 105.5t-70.5 41q47 0 92 5t96.5 10.5t108.5 8.5t125 3q147 -4 243.5 -84t104.5 -215q4 -76 -20.5 -131.5t-62.5 -93t-85 -58t-90 -27.5q-35 -4 -95 -4 t-128 35q-35 18 -41 8q-8 -10 27 -32q25 -16 62.5 -22.5t79.5 -14.5t86 -20.5t84 -41t69.5 -76t44.5 -124.5q10 -59 23 -96.5t36 -37.5q14 0 33 23q150 207 149 524q0 166 -40 300t-111.5 228.5t-172 144.5t-221.5 50t-225 -50t-180 -144.5t-119 -228.5t-43 -300z M705 1046.5q0 -53.5 10 -133.5q8 -57 15 -106t26.5 -85t58.5 -55.5t111 -19.5q98 0 131 61.5t16 211.5q-18 147 -72.5 207.5t-169.5 60.5q-45 0 -72.5 -12.5t-40.5 -44t-13 -85z" />
<glyph unicode="&#xaf;" horiz-adv-x="847" d="M61 1524v135q0 59 34 83.5t77 24.5h399q72 0 112 4.5t60.5 19.5t28.5 46t14 86v-139q0 -55 -34.5 -80t-75.5 -25h-397q-72 0 -113 -3t-61.5 -18.5t-28.5 -47t-15 -86.5z" />
<glyph unicode="&#xb0;" horiz-adv-x="540" d="M66 1268q-12 86 33.5 152.5t140.5 82.5q47 8 87 -2t70.5 -34.5t51 -59.5t26.5 -76q12 -88 -35 -155.5t-139 -83.5q-94 -14 -158.5 38t-76.5 138zM156.5 1383.5q3.5 -56.5 40.5 -121.5q35 -70 81.5 -105.5t81.5 -17.5q31 16 27 72.5t-41 119.5q-35 72 -82 108t-78 19 q-33 -18 -29.5 -74.5z" />
<glyph unicode="&#xb1;" horiz-adv-x="942" d="M61 938q131 4 208 8t117 21.5t53.5 55.5t19.5 107q4 53 7 111.5t5 112.5l14 -224q4 -70 17.5 -107.5t53.5 -55t117 -21.5t208 -8q-131 -8 -208 -15.5t-117 -24.5t-53.5 -49t-17.5 -91q-4 -53 -7 -111.5t-5 -111.5q-4 53 -7 111.5t-7 111.5q-6 59 -19.5 91t-53.5 49 t-116.5 24.5t-208.5 15.5zM92 147v576q6 -86 14.5 -133t29 -69.5t60.5 -27t111 -4.5h328q72 0 111.5 4.5t60 27t29 69.5t14.5 133v-576q-6 86 -14.5 133.5t-29 70t-60 26.5t-111.5 4h-328q-72 0 -111.5 -4t-60 -26.5t-29 -70t-14.5 -133.5z" />
<glyph unicode="&#xb2;" horiz-adv-x="821" d="M61 911q12 31 25.5 79t43.5 105.5t82 121t140 124.5q106 74 153.5 137.5t57.5 151.5q12 92 -18.5 136t-126.5 38q-74 -4 -155 -96t-148 -301l104 416q49 8 109.5 14t120.5 6q55 0 106 -9t90 -32.5t60.5 -64.5t17.5 -107q-4 -61 -40 -107t-87 -83t-109.5 -69t-109.5 -62 q-51 -33 -91 -77t-60.5 -89t-19.5 -85t32 -67q16 -14 30.5 -22t36 -12.5t53 -5.5t78.5 -1q109 0 163 33t73.5 93.5t14.5 145.5t-17 187l90 -498h-699z" />
<glyph unicode="&#xb3;" horiz-adv-x="849" d="M61 911l91 484q-2 -82 -6.5 -150.5t12 -124t64.5 -96.5t151 -66q68 -16 133 24t94 114q31 76 35 138t-9.5 106t-42 67t-65.5 18q-31 -2 -52.5 -17t-39.5 -34.5t-34.5 -40t-37.5 -35.5q-23 -14 -47 -23t-47 -9q-35 0 -49 22q-20 33 -2 78t61 72q61 39 113.5 57t93.5 33.5 t68.5 36t42.5 61.5q27 78 10.5 127t-80.5 53q-61 4 -112.5 -27.5t-94.5 -89t-75.5 -131t-57.5 -153.5l105 414q49 10 106 17t113 7q51 0 95 -9t76 -30.5t45 -58.5t3 -92q-8 -43 -29.5 -70t-54.5 -43t-75 -27.5t-93 -25.5q-76 -20 -110.5 -52t-22.5 -49q8 -12 22.5 -0.5 t37 30t58 36.5t87.5 23q49 4 94 -12.5t79 -51.5t54 -86t20 -117q0 -68 -20 -126t-57 -100t-89.5 -66.5t-115.5 -24.5q-72 0 -144 29q-154 61 -217 61q-66 0 -84 -70z" />
<glyph unicode="&#xb4;" horiz-adv-x="598" d="M61 1923h476q-41 -6 -64.5 -21.5t-45 -37t-47.5 -50t-71 -63.5q-27 -20 -58.5 -33.5t-60 -35t-51 -59.5t-33.5 -110q2 68 10.5 107t22 61.5t28.5 37t34 32.5q39 43 34.5 73.5t-31 51t-67.5 32t-76 15.5z" />
<glyph unicode="&#xb6;" horiz-adv-x="1511" d="M61 1110q0 68 26 127t72 102t110.5 69t142.5 26h1038q-143 0 -203 -84q-31 -41 -47 -102.5t-23.5 -137.5t-9.5 -164t-4 -180q-4 -319 -5 -532.5t22.5 -342.5t83 -184t176.5 -57h-1235q72 6 135 14t115.5 28.5t91.5 58.5t61 104q6 25 12.5 70.5t11.5 106t7 130t2 141.5 q0 152 1 272.5t-2 206.5t-14.5 131t-35.5 45q-23 0 -35 -31.5t-34.5 -68.5t-65.5 -67.5t-129 -28.5q-119 2 -192 88t-73 260zM759 1153q3 -72 3 -162q2 -231 3 -459.5t-1 -459.5q0 -109 4 -188t16.5 -130t37 -74.5t65.5 -23.5q49 0 78.5 25.5t45 73.5t19.5 118t4 158v960 q0 84 3 156t-6 125t-37.5 83.5t-94.5 30.5q-63 -2 -93 -30.5t-40 -79.5t-7 -123z" />
<glyph unicode="&#xb7;" horiz-adv-x="368" d="M61 694q0 53 37 89t86 36q47 0 85 -36t38 -89q0 -51 -38 -86t-85 -35q-49 0 -86 35t-37 86z" />
<glyph unicode="&#xb8;" horiz-adv-x="768" d="M61 -379q59 -119 119 -165t139 -44q78 2 133.5 34t77.5 87q25 57 21 107.5t-30.5 87t-76 57t-114.5 20.5q-66 0 -150 -24q80 39 155 93t122 126h49q-18 -27 -58 -72t-112 -90q43 6 84 6q82 0 143.5 -27.5t96 -73.5t43 -106.5t-16.5 -125.5q-16 -43 -46 -73t-69 -48.5 t-82 -26.5t-83 -8q-125 -2 -204 59.5t-141 206.5z" />
<glyph unicode="&#xb9;" horiz-adv-x="645" d="M61 1405q53 63 104.5 139t98.5 142.5t89 111.5t77 45q82 0 57 -117q-20 -100 -35.5 -207.5t-22.5 -203.5t-8 -174t5 -119q8 -41 26.5 -63.5t42 -33t47 -12.5t42.5 -2h-518q68 2 110.5 14.5t69 40t41 72.5t22.5 113q10 74 16.5 126t10.5 98t9 93.5t11 108.5q6 53 9.5 90 t-25.5 37q-12 0 -33.5 -23.5t-54.5 -63.5t-79 -95.5t-112 -116.5z" />
<glyph unicode="&#xba;" horiz-adv-x="968" d="M61 1393q0 96 33 180t90.5 148.5t134 101.5t164.5 37t166 -37t135.5 -101.5t90 -148.5t32.5 -180q0 -113 -31.5 -206t-89 -158.5t-135.5 -101.5t-168 -36q-84 0 -159.5 36t-134 101.5t-93.5 158.5t-35 206zM180.5 1584q-12.5 -71 1 -159t58.5 -188q82 -150 179 -214.5 t177 -64.5q47 0 88 21q49 25 81 72t42 113.5t-5.5 148.5t-60.5 178q-37 80 -84 137.5t-95 94t-96 54t-89 17.5q-37 0 -70 -16q-47 -25 -80.5 -74t-46 -120z" />
<glyph unicode="&#xbb;" horiz-adv-x="1042" d="M61 283q74 86 138.5 154.5t110.5 123.5t73 101.5t27 87.5q0 66 -95.5 182.5t-253.5 284.5q96 -82 158 -130.5t112 -84t101 -68.5t127 -84q41 -29 67.5 -47.5t26.5 -52.5q0 -35 -26.5 -53.5t-67.5 -47.5q-76 -51 -127 -84t-101 -68.5t-111.5 -83.5t-158.5 -130zM369 385 q74 55 141.5 103.5t117.5 93.5t79.5 86t29.5 82q0 33 -32.5 76.5t-85 93t-118 99.5t-132.5 95q96 -51 160.5 -83t118.5 -57.5t108.5 -53t130.5 -70.5q41 -25 67.5 -45.5t26.5 -54.5q0 -35 -26.5 -55.5t-67.5 -45.5q-76 -43 -130.5 -70.5t-108.5 -53t-118.5 -57.5t-160.5 -83 z" />
<glyph unicode="&#xbf;" horiz-adv-x="1181" d="M61 309q0 76 27 130.5t70 92t97 63.5t107.5 43t100.5 30.5t78 25.5q82 35 124 83t60 109.5t19 134.5t1 155q6 -94 11.5 -174t-8 -144.5t-56.5 -116t-133 -90.5q-51 -20 -96 -56t-79 -78t-54.5 -88t-22.5 -89q-6 -88 11.5 -148.5t55.5 -98.5t95 -54t133 -16 q162 0 295 156.5t223 479.5l-166 -653q-84 -12 -193.5 -25.5t-221.5 -13.5q-92 0 -178.5 14.5t-153 53.5t-106.5 104.5t-40 169.5zM616 1354q0 51 38 86t85 35q49 0 86 -35t37 -86q0 -53 -37 -89t-86 -36q-47 0 -85 36t-38 89z" />
<glyph unicode="&#xc0;" horiz-adv-x="1472" d="M66 395q18 240 72.5 412t133 292t177 193.5t207 114.5t221 54.5t221.5 13.5q41 0 62.5 -16.5t30.5 -62.5t8 -131t-3 -223.5t-3 -337t5 -471.5q0 -98 55.5 -165.5t157.5 -67.5h-819q180 10 275.5 60.5t137.5 148.5t47 244.5t5 349.5v87t-6.5 58.5t-20.5 32.5t-43 10 q-47 0 -86 -45t-73.5 -116.5t-67.5 -164t-65.5 -188.5t-69.5 -187t-79 -163t-93.5 -116t-114.5 -44q-150 0 -220.5 98.5t-51.5 329.5zM171 579.5q-1 -104.5 21.5 -185.5t68.5 -130t116 -47q47 2 99 62.5t107.5 156.5t108.5 214t100.5 231.5t84 210t59.5 149.5t27 86 t-6.5 51.5t-32 24.5t-50.5 4q-143 -8 -256.5 -63.5t-196.5 -140.5t-138.5 -191.5t-83 -217t-28.5 -215zM499 1923h476q-35 -4 -76 -15.5t-67.5 -32t-31 -51t34.5 -73.5q18 -18 33.5 -32.5t29 -37t21.5 -61.5t11 -107q-8 72 -32 110t-52.5 59.5t-60.5 35t-58 33.5 q-45 35 -70.5 63.5t-47 50t-45.5 37t-65 21.5z" />
<glyph unicode="&#xc1;" horiz-adv-x="1472" d="M66 395q18 240 72.5 412t133 292t177 193.5t207 114.5t221 54.5t221.5 13.5q41 0 62.5 -16.5t30.5 -62.5t8 -131t-3 -223.5t-3 -337t5 -471.5q0 -98 55.5 -165.5t157.5 -67.5h-819q180 10 275.5 60.5t137.5 148.5t47 244.5t5 349.5v87t-6.5 58.5t-20.5 32.5t-43 10 q-47 0 -86 -45t-73.5 -116.5t-67.5 -164t-65.5 -188.5t-69.5 -187t-79 -163t-93.5 -116t-114.5 -44q-150 0 -220.5 98.5t-51.5 329.5zM171 579.5q-1 -104.5 21.5 -185.5t68.5 -130t116 -47q47 2 99 62.5t107.5 156.5t108.5 214t100.5 231.5t84 210t59.5 149.5t27 86 t-6.5 51.5t-32 24.5t-50.5 4q-143 -8 -256.5 -63.5t-196.5 -140.5t-138.5 -191.5t-83 -217t-28.5 -215zM704 1923h476q-41 -6 -64.5 -21.5t-45 -37t-47.5 -50t-71 -63.5q-27 -20 -58.5 -33.5t-60 -35t-51 -59.5t-33.5 -110q2 68 10.5 107t22 61.5t28.5 37t34 32.5 q39 43 34.5 73.5t-31 51t-67.5 32t-76 15.5z" />
<glyph unicode="&#xc2;" horiz-adv-x="1472" d="M66 395q18 240 72.5 412t133 292t177 193.5t207 114.5t221 54.5t221.5 13.5q41 0 62.5 -16.5t30.5 -62.5t8 -131t-3 -223.5t-3 -337t5 -471.5q0 -98 55.5 -165.5t157.5 -67.5h-819q180 10 275.5 60.5t137.5 148.5t47 244.5t5 349.5v87t-6.5 58.5t-20.5 32.5t-43 10 q-47 0 -86 -45t-73.5 -116.5t-67.5 -164t-65.5 -188.5t-69.5 -187t-79 -163t-93.5 -116t-114.5 -44q-150 0 -220.5 98.5t-51.5 329.5zM171 579.5q-1 -104.5 21.5 -185.5t68.5 -130t116 -47q47 2 99 62.5t107.5 156.5t108.5 214t100.5 231.5t84 210t59.5 149.5t27 86 t-6.5 51.5t-32 24.5t-50.5 4q-143 -8 -256.5 -63.5t-196.5 -140.5t-138.5 -191.5t-83 -217t-28.5 -215zM602 1505q55 68 86 111t53.5 79t44 72.5t58.5 90.5q20 29 36.5 47t41.5 18t41 -18.5t37 -46.5q37 -53 58.5 -90t44 -73t53 -79t85.5 -111q-117 111 -194.5 178.5 t-124.5 67.5q-57 0 -133 -70.5t-187 -175.5z" />
<glyph unicode="&#xc3;" horiz-adv-x="1472" d="M66 395q18 240 72.5 412t133 292t177 193.5t207 114.5t221 54.5t221.5 13.5q41 0 62.5 -16.5t30.5 -62.5t8 -131t-3 -223.5t-3 -337t5 -471.5q0 -98 55.5 -165.5t157.5 -67.5h-819q180 10 275.5 60.5t137.5 148.5t47 244.5t5 349.5v87t-6.5 58.5t-20.5 32.5t-43 10 q-47 0 -86 -45t-73.5 -116.5t-67.5 -164t-65.5 -188.5t-69.5 -187t-79 -163t-93.5 -116t-114.5 -44q-150 0 -220.5 98.5t-51.5 329.5zM171 579.5q-1 -104.5 21.5 -185.5t68.5 -130t116 -47q47 2 99 62.5t107.5 156.5t108.5 214t100.5 231.5t84 210t59.5 149.5t27 86 t-6.5 51.5t-32 24.5t-50.5 4q-143 -8 -256.5 -63.5t-196.5 -140.5t-138.5 -191.5t-83 -217t-28.5 -215zM538 1532q4 109 27 197q10 37 24.5 71.5t35 62t48 44t64.5 16.5q41 0 68.5 -24.5t49 -58.5t39 -70.5t36.5 -63.5q23 -35 62.5 -53.5t82.5 -18.5q92 0 135 75t53 194 q-4 -109 -24 -195q-12 -49 -33.5 -94t-55.5 -74t-83 -29q-41 0 -67.5 22.5t-45 53.5t-34 66t-33.5 59q-61 80 -156 80q-96 0 -138.5 -72.5t-54.5 -187.5z" />
<glyph unicode="&#xc4;" horiz-adv-x="1472" d="M66 395q18 240 72.5 412t133 292t177 193.5t207 114.5t221 54.5t221.5 13.5q41 0 62.5 -16.5t30.5 -62.5t8 -131t-3 -223.5t-3 -337t5 -471.5q0 -98 55.5 -165.5t157.5 -67.5h-819q180 10 275.5 60.5t137.5 148.5t47 244.5t5 349.5v87t-6.5 58.5t-20.5 32.5t-43 10 q-47 0 -86 -45t-73.5 -116.5t-67.5 -164t-65.5 -188.5t-69.5 -187t-79 -163t-93.5 -116t-114.5 -44q-150 0 -220.5 98.5t-51.5 329.5zM171 579.5q-1 -104.5 21.5 -185.5t68.5 -130t116 -47q47 2 99 62.5t107.5 156.5t108.5 214t100.5 231.5t84 210t59.5 149.5t27 86 t-6.5 51.5t-32 24.5t-50.5 4q-143 -8 -256.5 -63.5t-196.5 -140.5t-138.5 -191.5t-83 -217t-28.5 -215zM573 1714q0 53 37 89t86 36q47 0 85 -36t38 -89q0 -51 -38 -86t-85 -35q-49 0 -86 35t-37 86zM983 1714q0 53 37 89t86 36q47 0 85 -36t38 -89q0 -51 -38 -86t-85 -35 q-49 0 -86 35t-37 86z" />
<glyph unicode="&#xc5;" horiz-adv-x="1472" d="M66 395q18 240 72.5 412t133 292t177 193.5t207 114.5t221 54.5t221.5 13.5q41 0 62.5 -16.5t30.5 -62.5t8 -131t-3 -223.5t-3 -337t5 -471.5q0 -98 55.5 -165.5t157.5 -67.5h-819q180 10 275.5 60.5t137.5 148.5t47 244.5t5 349.5v87t-6.5 58.5t-20.5 32.5t-43 10 q-47 0 -86 -45t-73.5 -116.5t-67.5 -164t-65.5 -188.5t-69.5 -187t-79 -163t-93.5 -116t-114.5 -44q-150 0 -220.5 98.5t-51.5 329.5zM171 579.5q-1 -104.5 21.5 -185.5t68.5 -130t116 -47q47 2 99 62.5t107.5 156.5t108.5 214t100.5 231.5t84 210t59.5 149.5t27 86 t-6.5 51.5t-32 24.5t-50.5 4q-143 -8 -256.5 -63.5t-196.5 -140.5t-138.5 -191.5t-83 -217t-28.5 -215zM697 1686q-12 86 33.5 152.5t140.5 82.5q47 8 87 -2t70.5 -34.5t51 -59.5t26.5 -76q12 -88 -35 -156t-139 -84q-94 -14 -158.5 38t-76.5 139zM787.5 1801.5 q3.5 -56.5 40.5 -122.5q35 -70 81.5 -105.5t81.5 -17.5q31 16 27 73t-41 120q-35 72 -82 107.5t-78 19.5q-33 -18 -29.5 -74.5z" />
<glyph unicode="&#xc6;" horiz-adv-x="2140" d="M66 395q18 303 106 509t213 333t272.5 182.5t286.5 55.5q121 0 225 -35q86 -29 173.5 -53.5t185.5 -24.5q68 0 141.5 15.5t153.5 56.5l166 -654q-2 8 -16.5 48t-42 96.5t-70.5 122t-102.5 122t-137.5 97.5t-176 49q-61 6 -117.5 6t-99.5 -12.5t-70 -40t-27 -78.5 q-2 -117 45.5 -198t114 -132t140 -73.5t126.5 -22.5q55 0 85 22.5t42.5 56.5t13.5 72.5t-3 69.5l114 -565q-139 180 -247.5 251.5t-186.5 71.5q-43 0 -76.5 -17t-58.5 -47t-39 -69t-18 -82q-8 -88 6 -173t55 -151.5t109 -109.5t164 -47q147 -8 240 46t152.5 152.5 t96.5 231.5t74 287l-142 -764h-1345q180 10 275.5 60.5t137.5 148.5t47 244.5t5 349.5v87t-6.5 58.5t-20.5 32.5t-43 10q-47 0 -86 -45t-73.5 -116.5t-67.5 -164t-65.5 -188.5t-69.5 -187t-79 -163t-93.5 -116t-114.5 -44q-150 0 -220.5 98.5t-51.5 329.5zM174 583.5 q-2 -106.5 19.5 -188.5t67.5 -131t116 -47q47 2 99 62.5t107.5 156.5t108.5 214t100.5 231.5t84 210t59.5 149.5t28 88t-2.5 55.5t-28 28.5t-48.5 6q-143 -8 -257 -63.5t-198 -141.5t-140.5 -194.5t-85 -219t-30.5 -217z" />
<glyph unicode="&#xc7;" horiz-adv-x="1437" d="M61 748q0 147 51.5 279t139.5 231.5t208 158t257 58.5q150 0 275.5 -73t219.5 -183q27 -31 64 -51.5t90 -28.5h-328q-49 2 -74.5 17t-52.5 42q-96 94 -190 138t-172 44q-59 0 -107 -24q-74 -37 -127 -116t-71.5 -190.5t2 -249.5t92.5 -294q63 -115 134 -197t143.5 -134 t144 -76.5t133.5 -24.5q74 0 135 32q115 59 165 193.5t17 327.5q-14 82 -28.5 132t-40 77.5t-68.5 39t-112 15.5h368q35 0 39 -39q2 -16 6 -68.5t-4 -140.5q-14 -154 -68.5 -278.5t-141.5 -213t-199.5 -136.5t-243.5 -48q-129 0 -248 55.5t-210 158t-144.5 246.5t-53.5 321z M389 -379q59 -119 119 -165t139 -44q78 2 133.5 34t77.5 87q25 57 21 107.5t-30.5 87t-76 57t-114.5 20.5q-66 0 -150 -24q80 39 155 93t122 126h49q-18 -27 -58 -72t-112 -90q43 6 84 6q82 0 143.5 -27.5t96 -73.5t43 -106.5t-16.5 -125.5q-16 -43 -46 -73t-69 -48.5 t-82 -26.5t-83 -8q-125 -2 -204 59.5t-141 206.5z" />
<glyph unicode="&#xc8;" horiz-adv-x="1372" d="M61 1434h994l166 -654q-53 176 -122 291t-142.5 182.5t-146.5 97t-134 35.5q-68 6 -125 -3t-99 -33.5t-66 -64.5t-24 -95q0 -106 42 -186t104.5 -133.5t137.5 -80t142 -26.5q49 0 79 20.5t45.5 52t17.5 71.5t-4 77l114 -565q-33 45 -82 101.5t-106 105.5t-120.5 82.5 t-125.5 33.5q-86 0 -133 -63.5t-57 -151.5q-10 -90 5 -175t57 -151.5t108.5 -108.5t161.5 -46q147 -8 240 46t153 153q59 98 96 231t74 287l-142 -764h-1036q92 104 129 279.5t27 439.5q-4 96 -21.5 213t-46 223.5t-69.5 184t-91 94.5zM346 1923h476q-35 -4 -76 -15.5 t-67.5 -32t-31 -51t34.5 -73.5q18 -18 33.5 -32.5t29 -37t21.5 -61.5t11 -107q-8 72 -32 110t-52.5 59.5t-60.5 35t-58 33.5q-45 35 -70.5 63.5t-47 50t-45.5 37t-65 21.5z" />
<glyph unicode="&#xc9;" horiz-adv-x="1372" d="M61 1434h994l166 -654q-53 176 -122 291t-142.5 182.5t-146.5 97t-134 35.5q-68 6 -125 -3t-99 -33.5t-66 -64.5t-24 -95q0 -106 42 -186t104.5 -133.5t137.5 -80t142 -26.5q49 0 79 20.5t45.5 52t17.5 71.5t-4 77l114 -565q-33 45 -82 101.5t-106 105.5t-120.5 82.5 t-125.5 33.5q-86 0 -133 -63.5t-57 -151.5q-10 -90 5 -175t57 -151.5t108.5 -108.5t161.5 -46q147 -8 240 46t153 153q59 98 96 231t74 287l-142 -764h-1036q92 104 129 279.5t27 439.5q-4 96 -21.5 213t-46 223.5t-69.5 184t-91 94.5zM469 1923h476q-41 -6 -64.5 -21.5 t-45 -37t-47.5 -50t-71 -63.5q-27 -20 -58.5 -33.5t-60 -35t-51 -59.5t-33.5 -110q2 68 10.5 107t22 61.5t28.5 37t34 32.5q39 43 34.5 73.5t-31 51t-67.5 32t-76 15.5z" />
<glyph unicode="&#xca;" horiz-adv-x="1372" d="M61 1434h994l166 -654q-53 176 -122 291t-142.5 182.5t-146.5 97t-134 35.5q-68 6 -125 -3t-99 -33.5t-66 -64.5t-24 -95q0 -106 42 -186t104.5 -133.5t137.5 -80t142 -26.5q49 0 79 20.5t45.5 52t17.5 71.5t-4 77l114 -565q-33 45 -82 101.5t-106 105.5t-120.5 82.5 t-125.5 33.5q-86 0 -133 -63.5t-57 -151.5q-10 -90 5 -175t57 -151.5t108.5 -108.5t161.5 -46q147 -8 240 46t153 153q59 98 96 231t74 287l-142 -764h-1036q92 104 129 279.5t27 439.5q-4 96 -21.5 213t-46 223.5t-69.5 184t-91 94.5zM305 1505q55 68 86 111t53.5 79 t44 72.5t58.5 90.5q20 29 36.5 47t41.5 18t41 -18.5t37 -46.5q37 -53 58.5 -90t44 -73t53 -79t85.5 -111q-117 111 -194.5 178.5t-124.5 67.5q-57 0 -133 -70.5t-187 -175.5z" />
<glyph unicode="&#xcb;" horiz-adv-x="1372" d="M61 1434h994l166 -654q-53 176 -122 291t-142.5 182.5t-146.5 97t-134 35.5q-68 6 -125 -3t-99 -33.5t-66 -64.5t-24 -95q0 -106 42 -186t104.5 -133.5t137.5 -80t142 -26.5q49 0 79 20.5t45.5 52t17.5 71.5t-4 77l114 -565q-33 45 -82 101.5t-106 105.5t-120.5 82.5 t-125.5 33.5q-86 0 -133 -63.5t-57 -151.5q-10 -90 5 -175t57 -151.5t108.5 -108.5t161.5 -46q147 -8 240 46t153 153q59 98 96 231t74 287l-142 -764h-1036q92 104 129 279.5t27 439.5q-4 96 -21.5 213t-46 223.5t-69.5 184t-91 94.5zM276 1714q0 53 37 89t86 36 q47 0 85 -36t38 -89q0 -51 -38 -86t-85 -35q-49 0 -86 35t-37 86zM686 1714q0 53 37 89t86 36q47 0 85 -36t38 -89q0 -51 -38 -86t-85 -35q-49 0 -86 35t-37 86z" />
<glyph unicode="&#xcc;" horiz-adv-x="1064" d="M71.5 592q26.5 76 125.5 149q43 33 73.5 55.5t56 42t49 38t52.5 43.5q31 27 45 62.5t15 75.5t-6 81t-19 78q-20 63 -55 104t-81 65.5t-100.5 36t-109.5 11.5h819q-254 0 -291 -217q-14 -88 -38.5 -161t-94.5 -132q-61 -53 -115.5 -98.5t-91.5 -79t-51 -56t2 -35.5 q23 -14 81 26t130 107.5t147.5 147.5t133.5 145q35 39 75.5 63.5t81.5 24.5t74 -30q43 -41 14.5 -107.5t-98.5 -126.5q-35 -29 -60.5 -47t-48 -33.5t-46 -30t-52.5 -36.5q-53 -39 -78.5 -86t-32 -100.5t-1 -112t13.5 -119.5q12 -106 40.5 -172t71.5 -102.5t101.5 -50 t132.5 -15.5h-819q68 2 122 15.5t96 50t69.5 102t39.5 172.5q6 55 8.5 102t10.5 91.5t29.5 87.5t66.5 90q35 37 83 73.5t89 70.5t64.5 61.5t9.5 44.5q-6 8 -19 8q-29 0 -83 -39t-119.5 -98.5t-135 -130t-129.5 -132.5q-43 -47 -91 -83.5t-89 -36.5q-27 0 -47 20 q-47 47 -20.5 123zM215 1923h476q-35 -4 -76 -15.5t-67.5 -32t-31 -51t34.5 -73.5q18 -18 33.5 -32.5t29 -37t21.5 -61.5t11 -107q-8 72 -32 110t-52.5 59.5t-60.5 35t-58 33.5q-45 35 -70.5 63.5t-47 50t-45.5 37t-65 21.5z" />
<glyph unicode="&#xcd;" horiz-adv-x="1064" d="M71.5 592q26.5 76 125.5 149q43 33 73.5 55.5t56 42t49 38t52.5 43.5q31 27 45 62.5t15 75.5t-6 81t-19 78q-20 63 -55 104t-81 65.5t-100.5 36t-109.5 11.5h819q-254 0 -291 -217q-14 -88 -38.5 -161t-94.5 -132q-61 -53 -115.5 -98.5t-91.5 -79t-51 -56t2 -35.5 q23 -14 81 26t130 107.5t147.5 147.5t133.5 145q35 39 75.5 63.5t81.5 24.5t74 -30q43 -41 14.5 -107.5t-98.5 -126.5q-35 -29 -60.5 -47t-48 -33.5t-46 -30t-52.5 -36.5q-53 -39 -78.5 -86t-32 -100.5t-1 -112t13.5 -119.5q12 -106 40.5 -172t71.5 -102.5t101.5 -50 t132.5 -15.5h-819q68 2 122 15.5t96 50t69.5 102t39.5 172.5q6 55 8.5 102t10.5 91.5t29.5 87.5t66.5 90q35 37 83 73.5t89 70.5t64.5 61.5t9.5 44.5q-6 8 -19 8q-29 0 -83 -39t-119.5 -98.5t-135 -130t-129.5 -132.5q-43 -47 -91 -83.5t-89 -36.5q-27 0 -47 20 q-47 47 -20.5 123zM358 1923h476q-41 -6 -64.5 -21.5t-45 -37t-47.5 -50t-71 -63.5q-27 -20 -58.5 -33.5t-60 -35t-51 -59.5t-33.5 -110q2 68 10.5 107t22 61.5t28.5 37t34 32.5q39 43 34.5 73.5t-31 51t-67.5 32t-76 15.5z" />
<glyph unicode="&#xce;" horiz-adv-x="1064" d="M71.5 592q26.5 76 125.5 149q43 33 73.5 55.5t56 42t49 38t52.5 43.5q31 27 45 62.5t15 75.5t-6 81t-19 78q-20 63 -55 104t-81 65.5t-100.5 36t-109.5 11.5h819q-254 0 -291 -217q-14 -88 -38.5 -161t-94.5 -132q-61 -53 -115.5 -98.5t-91.5 -79t-51 -56t2 -35.5 q23 -14 81 26t130 107.5t147.5 147.5t133.5 145q35 39 75.5 63.5t81.5 24.5t74 -30q43 -41 14.5 -107.5t-98.5 -126.5q-35 -29 -60.5 -47t-48 -33.5t-46 -30t-52.5 -36.5q-53 -39 -78.5 -86t-32 -100.5t-1 -112t13.5 -119.5q12 -106 40.5 -172t71.5 -102.5t101.5 -50 t132.5 -15.5h-819q68 2 122 15.5t96 50t69.5 102t39.5 172.5q6 55 8.5 102t10.5 91.5t29.5 87.5t66.5 90q35 37 83 73.5t89 70.5t64.5 61.5t9.5 44.5q-6 8 -19 8q-29 0 -83 -39t-119.5 -98.5t-135 -130t-129.5 -132.5q-43 -47 -91 -83.5t-89 -36.5q-27 0 -47 20 q-47 47 -20.5 123zM215 1505q55 68 86 111t53.5 79t44 72.5t58.5 90.5q20 29 36.5 47t41.5 18t41 -18.5t37 -46.5q37 -53 58.5 -90t44 -73t53 -79t85.5 -111q-117 111 -194.5 178.5t-124.5 67.5q-57 0 -133 -70.5t-187 -175.5z" />
<glyph unicode="&#xcf;" horiz-adv-x="1064" d="M71.5 592q26.5 76 125.5 149q43 33 73.5 55.5t56 42t49 38t52.5 43.5q31 27 45 62.5t15 75.5t-6 81t-19 78q-20 63 -55 104t-81 65.5t-100.5 36t-109.5 11.5h819q-254 0 -291 -217q-14 -88 -38.5 -161t-94.5 -132q-61 -53 -115.5 -98.5t-91.5 -79t-51 -56t2 -35.5 q23 -14 81 26t130 107.5t147.5 147.5t133.5 145q35 39 75.5 63.5t81.5 24.5t74 -30q43 -41 14.5 -107.5t-98.5 -126.5q-35 -29 -60.5 -47t-48 -33.5t-46 -30t-52.5 -36.5q-53 -39 -78.5 -86t-32 -100.5t-1 -112t13.5 -119.5q12 -106 40.5 -172t71.5 -102.5t101.5 -50 t132.5 -15.5h-819q68 2 122 15.5t96 50t69.5 102t39.5 172.5q6 55 8.5 102t10.5 91.5t29.5 87.5t66.5 90q35 37 83 73.5t89 70.5t64.5 61.5t9.5 44.5q-6 8 -19 8q-29 0 -83 -39t-119.5 -98.5t-135 -130t-129.5 -132.5q-43 -47 -91 -83.5t-89 -36.5q-27 0 -47 20 q-47 47 -20.5 123zM206 1714q0 53 37 89t86 36q47 0 85 -36t38 -89q0 -51 -38 -86t-85 -35q-49 0 -86 35t-37 86zM616 1714q0 53 37 89t86 36q47 0 85 -36t38 -89q0 -51 -38 -86t-85 -35q-49 0 -86 35t-37 86z" />
<glyph unicode="&#xd0;" horiz-adv-x="1368" d="M61 0q37 0 65 11.5t48.5 51t35.5 114.5t30 204q2 25 3 58.5t2 71.5t1 76v68q0 39 -11.5 54.5t-54.5 15.5h-119v47h113q53 0 66.5 18.5t11.5 75.5q-2 90 -12 187q-10 123 -26.5 196.5t-38 113.5t-49.5 54.5t-65 16.5h369q100 0 199.5 -7.5t192.5 -34t175 -75.5t145.5 -133 t105.5 -209t55 -299q12 -174 -17 -292t-84 -192.5t-134 -113.5t-167 -56.5t-180 -19.5t-176 -2h-484zM373 1071l12 -201q2 -27 4 -45t9.5 -30.5t21.5 -17.5t41 -5h260v-47h-256q-45 0 -58.5 -18.5t-15.5 -63.5q-2 -31 -3 -65.5t-3 -68.5t-4 -62.5t-4 -47.5q-18 -178 30 -262 t179 -90h103t111.5 14.5t105.5 53.5t87 116.5t54.5 203.5t7.5 315q-12 227 -60.5 355t-118 190.5t-150.5 76.5t-159 14q-63 0 -104 -19t-62.5 -58t-27.5 -98.5t0 -139.5z" />
<glyph unicode="&#xd1;" horiz-adv-x="1474" d="M61 0q37 4 75 16.5t69 38t50 66.5t21 102q2 57 0 143.5t-6 188.5t-11 213t-17 215q-10 117 -19.5 208t-1.5 153.5t40 96.5t101 34q33 0 72 -7q117 -20 198 -117.5t140 -233.5t104.5 -291.5t90.5 -295t96 -243t123 -133.5q25 -10 41 -11q49 0 79.5 53.5t45 142.5t11.5 208 t-22 248q-23 158 -53.5 260t-65 165.5t-71.5 95.5t-72 48q-45 23 -112.5 35t-139 19t-140.5 10.5t-118 5.5h545q25 0 48.5 -3.5t47 -13.5t43 -32.5t33.5 -61.5q31 -78 54.5 -192.5t40 -241.5t24.5 -253t8 -226q0 -96 -10 -178t-37 -140.5t-70 -91.5t-110 -33 q-88 0 -153.5 56.5t-118 147.5t-94.5 208t-78.5 239.5t-73.5 239.5t-79 208t-94.5 147.5t-119.5 56.5q-47 0 -66.5 -39t-21.5 -106.5t7 -157.5t15 -193q16 -240 52 -387t101.5 -230t168 -115t250.5 -42h-820zM354 1532q4 109 27 197q10 37 24.5 71.5t35 62t48 44t64.5 16.5 q41 0 68.5 -24.5t49 -58.5t39 -70.5t36.5 -63.5q23 -35 62.5 -53.5t82.5 -18.5q92 0 135 75t53 194q-4 -109 -24 -195q-12 -49 -33.5 -94t-55.5 -74t-83 -29q-41 0 -67.5 22.5t-45 53.5t-34 66t-33.5 59q-61 80 -156 80q-96 0 -138.5 -72.5t-54.5 -187.5z" />
<glyph unicode="&#xd2;" d="M61 748q0 147 51.5 279t139.5 231.5t208 158t257 58.5t257 -58.5t209 -158t140 -231.5t51 -279q0 -176 -50 -320.5t-137 -247t-208 -158t-262 -55.5q-129 0 -248 55.5t-210 158t-144.5 246.5t-53.5 321zM243.5 1045.5q-18.5 -109.5 2 -246.5t92.5 -293q63 -115 134 -197 t143.5 -134t144 -76.5t133.5 -24.5q74 0 135 32q76 39 125 113t64.5 175.5t-7 229.5t-94.5 277q-57 123 -130 212t-147.5 146.5t-149.5 85t-138 27.5q-61 0 -109 -24q-74 -37 -127 -115t-71.5 -187.5zM378 1923h476q-35 -4 -76 -15.5t-67.5 -32t-31 -51t34.5 -73.5 q18 -18 33.5 -32.5t29 -37t21.5 -61.5t11 -107q-8 72 -32 110t-52.5 59.5t-60.5 35t-58 33.5q-45 35 -70.5 63.5t-47 50t-45.5 37t-65 21.5z" />
<glyph unicode="&#xd3;" d="M61 748q0 147 51.5 279t139.5 231.5t208 158t257 58.5t257 -58.5t209 -158t140 -231.5t51 -279q0 -176 -50 -320.5t-137 -247t-208 -158t-262 -55.5q-129 0 -248 55.5t-210 158t-144.5 246.5t-53.5 321zM243.5 1045.5q-18.5 -109.5 2 -246.5t92.5 -293q63 -115 134 -197 t143.5 -134t144 -76.5t133.5 -24.5q74 0 135 32q76 39 125 113t64.5 175.5t-7 229.5t-94.5 277q-57 123 -130 212t-147.5 146.5t-149.5 85t-138 27.5q-61 0 -109 -24q-74 -37 -127 -115t-71.5 -187.5zM481 1923h476q-41 -6 -64.5 -21.5t-45 -37t-47.5 -50t-71 -63.5 q-27 -20 -58.5 -33.5t-60 -35t-51 -59.5t-33.5 -110q2 68 10.5 107t22 61.5t28.5 37t34 32.5q39 43 34.5 73.5t-31 51t-67.5 32t-76 15.5z" />
<glyph unicode="&#xd4;" d="M61 748q0 147 51.5 279t139.5 231.5t208 158t257 58.5t257 -58.5t209 -158t140 -231.5t51 -279q0 -176 -50 -320.5t-137 -247t-208 -158t-262 -55.5q-129 0 -248 55.5t-210 158t-144.5 246.5t-53.5 321zM243.5 1045.5q-18.5 -109.5 2 -246.5t92.5 -293q63 -115 134 -197 t143.5 -134t144 -76.5t133.5 -24.5q74 0 135 32q76 39 125 113t64.5 175.5t-7 229.5t-94.5 277q-57 123 -130 212t-147.5 146.5t-149.5 85t-138 27.5q-61 0 -109 -24q-74 -37 -127 -115t-71.5 -187.5zM399 1505q55 68 86 111t53.5 79t44 72.5t58.5 90.5q20 29 36.5 47 t41.5 18t41 -18.5t37 -46.5q37 -53 58.5 -90t44 -73t53 -79t85.5 -111q-117 111 -194.5 178.5t-124.5 67.5q-57 0 -133 -70.5t-187 -175.5z" />
<glyph unicode="&#xd5;" d="M61 748q0 147 51.5 279t139.5 231.5t208 158t257 58.5t257 -58.5t209 -158t140 -231.5t51 -279q0 -176 -50 -320.5t-137 -247t-208 -158t-262 -55.5q-129 0 -248 55.5t-210 158t-144.5 246.5t-53.5 321zM243.5 1045.5q-18.5 -109.5 2 -246.5t92.5 -293q63 -115 134 -197 t143.5 -134t144 -76.5t133.5 -24.5q74 0 135 32q76 39 125 113t64.5 175.5t-7 229.5t-94.5 277q-57 123 -130 212t-147.5 146.5t-149.5 85t-138 27.5q-61 0 -109 -24q-74 -37 -127 -115t-71.5 -187.5zM315 1532q4 109 27 197q10 37 24.5 71.5t35 62t48 44t64.5 16.5 q41 0 68.5 -24.5t49 -58.5t39 -70.5t36.5 -63.5q23 -35 62.5 -53.5t82.5 -18.5q92 0 135 75t53 194q-4 -109 -24 -195q-12 -49 -33.5 -94t-55.5 -74t-83 -29q-41 0 -67.5 22.5t-45 53.5t-34 66t-33.5 59q-61 80 -156 80q-96 0 -138.5 -72.5t-54.5 -187.5z" />
<glyph unicode="&#xd6;" d="M61 748q0 147 51.5 279t139.5 231.5t208 158t257 58.5t257 -58.5t209 -158t140 -231.5t51 -279q0 -176 -50 -320.5t-137 -247t-208 -158t-262 -55.5q-129 0 -248 55.5t-210 158t-144.5 246.5t-53.5 321zM243.5 1045.5q-18.5 -109.5 2 -246.5t92.5 -293q63 -115 134 -197 t143.5 -134t144 -76.5t133.5 -24.5q74 0 135 32q76 39 125 113t64.5 175.5t-7 229.5t-94.5 277q-57 123 -130 212t-147.5 146.5t-149.5 85t-138 27.5q-61 0 -109 -24q-74 -37 -127 -115t-71.5 -187.5zM370 1714q0 53 37 89t86 36q47 0 85 -36t38 -89q0 -51 -38 -86t-85 -35 q-49 0 -86 35t-37 86zM780 1714q0 53 37 89t86 36q47 0 85 -36t38 -89q0 -51 -38 -86t-85 -35q-49 0 -86 35t-37 86z" />
<glyph unicode="&#xd7;" horiz-adv-x="692" d="M61 1030q117 -111 178.5 -163t106.5 -54q23 0 48.5 13.5t58 40t76.5 67.5t102 96q-86 -98 -135.5 -157.5t-65.5 -100.5t-2 -73.5t51 -77.5q10 -10 17.5 -20.5t17.5 -20.5l78 -86q10 -10 18 -20.5t17 -20.5q-39 37 -83 75.5t-83 73.5q-35 29 -60.5 44.5t-54.5 12.5 q-29 2 -54.5 -13t-60.5 -44q-39 -35 -83 -74t-82 -75q10 10 17 20t17 21l78 86q10 10 18.5 20t16.5 21q37 45 51.5 77.5t-2 73.5t-66 100.5t-135.5 157.5z" />
<glyph unicode="&#xd8;" d="M61 748q0 147 51.5 279t139.5 231.5t208 158t257 58.5q90 0 173 -29t154 -74q18 -12 29 -12q12 0 31 24l31 50h61l-61 -99q-12 -18 2 -32q111 -100 174 -245t63 -310q0 -176 -50 -320.5t-137 -247t-208 -158t-262 -55.5q-174 0 -326 99q-25 14 -35 14q-8 0 -20 -12 l-43 -68h-53l53 86q16 29 11 41t-21 29q-100 104 -161 254t-61 338zM243.5 1049.5q-18.5 -111.5 2 -249.5t92.5 -294q41 -59 65.5 -88t47.5 -29q20 0 40.5 23.5t49.5 70.5l358 572q18 33 27.5 54t8.5 38.5t-14.5 35t-37.5 42.5q-88 78 -177.5 115.5t-162.5 37.5 q-55 0 -101 -22q-74 -37 -127 -116t-71.5 -190.5zM504 301q2 -18 16.5 -36.5t42.5 -47.5q86 -74 171 -108.5t161 -34.5q72 0 133 32q76 39 126 113t65.5 176.5t-8 230.5t-95.5 275q-41 88 -67.5 129t-51.5 41q-20 0 -42.5 -27.5t-55.5 -82.5l4 6l-358 -568 q-23 -35 -33 -57.5t-8 -40.5z" />
<glyph unicode="&#xd9;" horiz-adv-x="1634" d="M61 1434h1512q-12 -2 -36 -6.5t-54.5 -18.5t-65 -44t-69.5 -81q-59 -92 -64.5 -180t35.5 -193q37 -94 64.5 -201.5t30.5 -212t-22.5 -200.5t-93 -170t-184.5 -117t-295 -43t-294.5 43t-184.5 117t-93.5 170t-22.5 200.5t31 212t64 201.5q41 104 36 192.5t-64 180.5 q-33 51 -69 81t-67.5 44t-56 18.5t-37.5 6.5zM436.5 462q-20.5 -130 11 -229.5t121.5 -160t250 -60.5q152 0 239 59.5t118.5 158t15.5 228.5t-72 271q-43 111 -43 185.5t20.5 135t50.5 114t44 120.5q12 51 -20.5 80t-90 43t-127 18.5t-135.5 4.5t-136.5 -4.5t-127.5 -18.5 t-89 -43t-20 -80q16 -68 47 -122t52.5 -114.5t20.5 -135t-48 -183.5q-61 -137 -81.5 -267zM497 1923h476q-35 -4 -76 -15.5t-67.5 -32t-31 -51t34.5 -73.5q18 -18 33.5 -32.5t29 -37t21.5 -61.5t11 -107q-8 72 -32 110t-52.5 59.5t-60.5 35t-58 33.5q-45 35 -70.5 63.5 t-47 50t-45.5 37t-65 21.5z" />
<glyph unicode="&#xda;" horiz-adv-x="1634" d="M61 1434h1512q-12 -2 -36 -6.5t-54.5 -18.5t-65 -44t-69.5 -81q-59 -92 -64.5 -180t35.5 -193q37 -94 64.5 -201.5t30.5 -212t-22.5 -200.5t-93 -170t-184.5 -117t-295 -43t-294.5 43t-184.5 117t-93.5 170t-22.5 200.5t31 212t64 201.5q41 104 36 192.5t-64 180.5 q-33 51 -69 81t-67.5 44t-56 18.5t-37.5 6.5zM436.5 462q-20.5 -130 11 -229.5t121.5 -160t250 -60.5q152 0 239 59.5t118.5 158t15.5 228.5t-72 271q-43 111 -43 185.5t20.5 135t50.5 114t44 120.5q12 51 -20.5 80t-90 43t-127 18.5t-135.5 4.5t-136.5 -4.5t-127.5 -18.5 t-89 -43t-20 -80q16 -68 47 -122t52.5 -114.5t20.5 -135t-48 -183.5q-61 -137 -81.5 -267zM641 1923h476q-41 -6 -64.5 -21.5t-45 -37t-47.5 -50t-71 -63.5q-27 -20 -58.5 -33.5t-60 -35t-51 -59.5t-33.5 -110q2 68 10.5 107t22 61.5t28.5 37t34 32.5q39 43 34.5 73.5 t-31 51t-67.5 32t-76 15.5z" />
<glyph unicode="&#xdb;" horiz-adv-x="1634" d="M61 1434h1512q-12 -2 -36 -6.5t-54.5 -18.5t-65 -44t-69.5 -81q-59 -92 -64.5 -180t35.5 -193q37 -94 64.5 -201.5t30.5 -212t-22.5 -200.5t-93 -170t-184.5 -117t-295 -43t-294.5 43t-184.5 117t-93.5 170t-22.5 200.5t31 212t64 201.5q41 104 36 192.5t-64 180.5 q-33 51 -69 81t-67.5 44t-56 18.5t-37.5 6.5zM436.5 462q-20.5 -130 11 -229.5t121.5 -160t250 -60.5q152 0 239 59.5t118.5 158t15.5 228.5t-72 271q-43 111 -43 185.5t20.5 135t50.5 114t44 120.5q12 51 -20.5 80t-90 43t-127 18.5t-135.5 4.5t-136.5 -4.5t-127.5 -18.5 t-89 -43t-20 -80q16 -68 47 -122t52.5 -114.5t20.5 -135t-48 -183.5q-61 -137 -81.5 -267zM497 1505q55 68 86 111t53.5 79t44 72.5t58.5 90.5q20 29 36.5 47t41.5 18t41 -18.5t37 -46.5q37 -53 58.5 -90t44 -73t53 -79t85.5 -111q-117 111 -194.5 178.5t-124.5 67.5 q-57 0 -133 -70.5t-187 -175.5z" />
<glyph unicode="&#xdc;" horiz-adv-x="1634" d="M61 1434h1512q-12 -2 -36 -6.5t-54.5 -18.5t-65 -44t-69.5 -81q-59 -92 -64.5 -180t35.5 -193q37 -94 64.5 -201.5t30.5 -212t-22.5 -200.5t-93 -170t-184.5 -117t-295 -43t-294.5 43t-184.5 117t-93.5 170t-22.5 200.5t31 212t64 201.5q41 104 36 192.5t-64 180.5 q-33 51 -69 81t-67.5 44t-56 18.5t-37.5 6.5zM436.5 462q-20.5 -130 11 -229.5t121.5 -160t250 -60.5q152 0 239 59.5t118.5 158t15.5 228.5t-72 271q-43 111 -43 185.5t20.5 135t50.5 114t44 120.5q12 51 -20.5 80t-90 43t-127 18.5t-135.5 4.5t-136.5 -4.5t-127.5 -18.5 t-89 -43t-20 -80q16 -68 47 -122t52.5 -114.5t20.5 -135t-48 -183.5q-61 -137 -81.5 -267zM489 1714q0 53 37 89t86 36q47 0 85 -36t38 -89q0 -51 -38 -86t-85 -35q-49 0 -86 35t-37 86zM899 1714q0 53 37 89t86 36q47 0 85 -36t38 -89q0 -51 -38 -86t-85 -35q-49 0 -86 35 t-37 86z" />
<glyph unicode="&#xdd;" horiz-adv-x="1667" d="M61 1434h355q39 0 66.5 -6.5t37.5 -30.5q86 -223 149.5 -376t105.5 -247t63.5 -138t25.5 -50q37 -63 84 -64q45 0 90 52.5t80 144.5q33 90 60.5 173t42 158.5t9.5 142.5t-40 120q-27 43 -80 65.5t-113.5 33.5t-118 15.5t-92.5 6.5h820q-111 -6 -173.5 -70t-108.5 -180.5 t-94 -280.5t-132 -371q-23 -57 -46.5 -85.5t-40 -54t-21.5 -60.5t7 -103q12 -59 35 -100t62 -67.5t96 -41t137 -20.5h-819q92 6 150.5 20.5t95.5 41t56 67.5t32 100q14 68 1.5 104t-38 65.5t-60 66.5t-65.5 108q-29 66 -50.5 114t-39 89t-34.5 80t-37.5 86t-47.5 109.5 t-65 150.5q-43 102 -129.5 165t-215.5 67zM657 1923h476q-41 -6 -64.5 -21.5t-45 -37t-47.5 -50t-71 -63.5q-27 -20 -58.5 -33.5t-60 -35t-51 -59.5t-33.5 -110q2 68 10.5 107t22 61.5t28.5 37t34 32.5q39 43 34.5 73.5t-31 51t-67.5 32t-76 15.5z" />
<glyph unicode="&#xde;" horiz-adv-x="1394" d="M61 0q117 2 175.5 52t80 146.5t19.5 239t-6 328.5q-4 174 -8.5 299t-29 207t-76.5 121t-155 41h756q-135 -4 -215 -54.5t-115 -142.5q-16 -53 -1.5 -85t51.5 -32q25 0 52 12.5t62 28t80 27.5t107 12q113 0 204 -35t155.5 -99.5t100 -154.5t35.5 -200q0 -102 -36.5 -189.5 t-98 -150t-142.5 -98t-171 -35.5q-45 0 -84 8q-43 8 -81 23.5t-71 29.5t-60.5 24.5t-49.5 10.5q-37 0 -51.5 -38t1.5 -89q31 -104 110 -153.5t218 -53.5h-756zM486 771q5 -81 36 -165q53 -143 151.5 -230t203.5 -87q37 0 69 12q55 20 94 70.5t55.5 119t12.5 149.5t-35 165 q-27 72 -65.5 131t-86 101t-98.5 64.5t-102 22.5q-35 0 -70 -12q-57 -20 -96 -71.5t-56.5 -120t-12.5 -149.5z" />
<glyph unicode="&#xdf;" horiz-adv-x="1501" d="M61 0q117 2 175.5 84t80 216t19.5 309t-6 362v51q-6 178 30.5 299t94 196.5t126 112.5t130.5 43q127 14 216 -13.5t146 -80.5t82 -127t18.5 -152.5t-40 -154.5t-93.5 -137q-16 -16 -10 -32t31 -22q141 -37 232 -126t125 -202.5t11.5 -237.5t-108.5 -226 q-49 -61 -104.5 -94t-137.5 -48.5t-204.5 -17.5t-307.5 -2h-506zM432 1169q4 -49 6 -87t5 -72.5t5.5 -69.5t6.5 -78q4 -37 6 -82t3 -102t2 -130t1 -167q0 -186 74.5 -280.5t249.5 -94.5q59 0 110 5t94 21.5t81 47.5t71 82q45 70 59.5 151.5t3 165.5t-48.5 161t-94 134 t-135 88t-170 21q-51 -6 -99.5 -16.5t-87 -20.5t-62.5 -18l-24 -9l24 9q24 8 55.5 22t68.5 33.5t63 40.5q70 53 121 125.5t81 152.5t38 157t-8.5 138.5t-59.5 98t-112 34.5q-92 -2 -157.5 -38t-105.5 -97t-55.5 -144t-9.5 -182z" />
<glyph unicode="&#xe0;" horiz-adv-x="1472" d="M66 395q18 240 72.5 412t133 292t177 193.5t207 114.5t221 54.5t221.5 13.5q41 0 62.5 -16.5t30.5 -62.5t8 -131t-3 -223.5t-3 -337t5 -471.5q0 -98 55.5 -165.5t157.5 -67.5h-819q180 10 275.5 60.5t137.5 148.5t47 244.5t5 349.5v87t-6.5 58.5t-20.5 32.5t-43 10 q-47 0 -86 -45t-73.5 -116.5t-67.5 -164t-65.5 -188.5t-69.5 -187t-79 -163t-93.5 -116t-114.5 -44q-150 0 -220.5 98.5t-51.5 329.5zM171 579.5q-1 -104.5 21.5 -185.5t68.5 -130t116 -47q47 2 99 62.5t107.5 156.5t108.5 214t100.5 231.5t84 210t59.5 149.5t27 86 t-6.5 51.5t-32 24.5t-50.5 4q-143 -8 -256.5 -63.5t-196.5 -140.5t-138.5 -191.5t-83 -217t-28.5 -215zM499 1923h476q-35 -4 -76 -15.5t-67.5 -32t-31 -51t34.5 -73.5q18 -18 33.5 -32.5t29 -37t21.5 -61.5t11 -107q-8 72 -32 110t-52.5 59.5t-60.5 35t-58 33.5 q-45 35 -70.5 63.5t-47 50t-45.5 37t-65 21.5z" />
<glyph unicode="&#xe1;" horiz-adv-x="1472" d="M66 395q18 240 72.5 412t133 292t177 193.5t207 114.5t221 54.5t221.5 13.5q41 0 62.5 -16.5t30.5 -62.5t8 -131t-3 -223.5t-3 -337t5 -471.5q0 -98 55.5 -165.5t157.5 -67.5h-819q180 10 275.5 60.5t137.5 148.5t47 244.5t5 349.5v87t-6.5 58.5t-20.5 32.5t-43 10 q-47 0 -86 -45t-73.5 -116.5t-67.5 -164t-65.5 -188.5t-69.5 -187t-79 -163t-93.5 -116t-114.5 -44q-150 0 -220.5 98.5t-51.5 329.5zM171 579.5q-1 -104.5 21.5 -185.5t68.5 -130t116 -47q47 2 99 62.5t107.5 156.5t108.5 214t100.5 231.5t84 210t59.5 149.5t27 86 t-6.5 51.5t-32 24.5t-50.5 4q-143 -8 -256.5 -63.5t-196.5 -140.5t-138.5 -191.5t-83 -217t-28.5 -215zM704 1923h476q-41 -6 -64.5 -21.5t-45 -37t-47.5 -50t-71 -63.5q-27 -20 -58.5 -33.5t-60 -35t-51 -59.5t-33.5 -110q2 68 10.5 107t22 61.5t28.5 37t34 32.5 q39 43 34.5 73.5t-31 51t-67.5 32t-76 15.5z" />
<glyph unicode="&#xe2;" horiz-adv-x="1472" d="M66 395q18 240 72.5 412t133 292t177 193.5t207 114.5t221 54.5t221.5 13.5q41 0 62.5 -16.5t30.5 -62.5t8 -131t-3 -223.5t-3 -337t5 -471.5q0 -98 55.5 -165.5t157.5 -67.5h-819q180 10 275.5 60.5t137.5 148.5t47 244.5t5 349.5v87t-6.5 58.5t-20.5 32.5t-43 10 q-47 0 -86 -45t-73.5 -116.5t-67.5 -164t-65.5 -188.5t-69.5 -187t-79 -163t-93.5 -116t-114.5 -44q-150 0 -220.5 98.5t-51.5 329.5zM171 579.5q-1 -104.5 21.5 -185.5t68.5 -130t116 -47q47 2 99 62.5t107.5 156.5t108.5 214t100.5 231.5t84 210t59.5 149.5t27 86 t-6.5 51.5t-32 24.5t-50.5 4q-143 -8 -256.5 -63.5t-196.5 -140.5t-138.5 -191.5t-83 -217t-28.5 -215zM602 1505q55 68 86 111t53.5 79t44 72.5t58.5 90.5q20 29 36.5 47t41.5 18t41 -18.5t37 -46.5q37 -53 58.5 -90t44 -73t53 -79t85.5 -111q-117 111 -194.5 178.5 t-124.5 67.5q-57 0 -133 -70.5t-187 -175.5z" />
<glyph unicode="&#xe3;" horiz-adv-x="1472" d="M66 395q18 240 72.5 412t133 292t177 193.5t207 114.5t221 54.5t221.5 13.5q41 0 62.5 -16.5t30.5 -62.5t8 -131t-3 -223.5t-3 -337t5 -471.5q0 -98 55.5 -165.5t157.5 -67.5h-819q180 10 275.5 60.5t137.5 148.5t47 244.5t5 349.5v87t-6.5 58.5t-20.5 32.5t-43 10 q-47 0 -86 -45t-73.5 -116.5t-67.5 -164t-65.5 -188.5t-69.5 -187t-79 -163t-93.5 -116t-114.5 -44q-150 0 -220.5 98.5t-51.5 329.5zM171 579.5q-1 -104.5 21.5 -185.5t68.5 -130t116 -47q47 2 99 62.5t107.5 156.5t108.5 214t100.5 231.5t84 210t59.5 149.5t27 86 t-6.5 51.5t-32 24.5t-50.5 4q-143 -8 -256.5 -63.5t-196.5 -140.5t-138.5 -191.5t-83 -217t-28.5 -215zM538 1532q4 109 27 197q10 37 24.5 71.5t35 62t48 44t64.5 16.5q41 0 68.5 -24.5t49 -58.5t39 -70.5t36.5 -63.5q23 -35 62.5 -53.5t82.5 -18.5q92 0 135 75t53 194 q-4 -109 -24 -195q-12 -49 -33.5 -94t-55.5 -74t-83 -29q-41 0 -67.5 22.5t-45 53.5t-34 66t-33.5 59q-61 80 -156 80q-96 0 -138.5 -72.5t-54.5 -187.5z" />
<glyph unicode="&#xe4;" horiz-adv-x="1472" d="M66 395q18 240 72.5 412t133 292t177 193.5t207 114.5t221 54.5t221.5 13.5q41 0 62.5 -16.5t30.5 -62.5t8 -131t-3 -223.5t-3 -337t5 -471.5q0 -98 55.5 -165.5t157.5 -67.5h-819q180 10 275.5 60.5t137.5 148.5t47 244.5t5 349.5v87t-6.5 58.5t-20.5 32.5t-43 10 q-47 0 -86 -45t-73.5 -116.5t-67.5 -164t-65.5 -188.5t-69.5 -187t-79 -163t-93.5 -116t-114.5 -44q-150 0 -220.5 98.5t-51.5 329.5zM171 579.5q-1 -104.5 21.5 -185.5t68.5 -130t116 -47q47 2 99 62.5t107.5 156.5t108.5 214t100.5 231.5t84 210t59.5 149.5t27 86 t-6.5 51.5t-32 24.5t-50.5 4q-143 -8 -256.5 -63.5t-196.5 -140.5t-138.5 -191.5t-83 -217t-28.5 -215zM573 1714q0 53 37 89t86 36q47 0 85 -36t38 -89q0 -51 -38 -86t-85 -35q-49 0 -86 35t-37 86zM983 1714q0 53 37 89t86 36q47 0 85 -36t38 -89q0 -51 -38 -86t-85 -35 q-49 0 -86 35t-37 86z" />
<glyph unicode="&#xe5;" horiz-adv-x="1472" d="M66 395q18 240 72.5 412t133 292t177 193.5t207 114.5t221 54.5t221.5 13.5q41 0 62.5 -16.5t30.5 -62.5t8 -131t-3 -223.5t-3 -337t5 -471.5q0 -98 55.5 -165.5t157.5 -67.5h-819q180 10 275.5 60.5t137.5 148.5t47 244.5t5 349.5v87t-6.5 58.5t-20.5 32.5t-43 10 q-47 0 -86 -45t-73.5 -116.5t-67.5 -164t-65.5 -188.5t-69.5 -187t-79 -163t-93.5 -116t-114.5 -44q-150 0 -220.5 98.5t-51.5 329.5zM171 579.5q-1 -104.5 21.5 -185.5t68.5 -130t116 -47q47 2 99 62.5t107.5 156.5t108.5 214t100.5 231.5t84 210t59.5 149.5t27 86 t-6.5 51.5t-32 24.5t-50.5 4q-143 -8 -256.5 -63.5t-196.5 -140.5t-138.5 -191.5t-83 -217t-28.5 -215zM697 1686q-12 86 33.5 152.5t140.5 82.5q47 8 87 -2t70.5 -34.5t51 -59.5t26.5 -76q12 -88 -35 -156t-139 -84q-94 -14 -158.5 38t-76.5 139zM787.5 1801.5 q3.5 -56.5 40.5 -122.5q35 -70 81.5 -105.5t81.5 -17.5q31 16 27 73t-41 120q-35 72 -82 107.5t-78 19.5q-33 -18 -29.5 -74.5z" />
<glyph unicode="&#xe6;" horiz-adv-x="2140" d="M66 395q18 303 106 509t213 333t272.5 182.5t286.5 55.5q121 0 225 -35q86 -29 173.5 -53.5t185.5 -24.5q68 0 141.5 15.5t153.5 56.5l166 -654q-2 8 -16.5 48t-42 96.5t-70.5 122t-102.5 122t-137.5 97.5t-176 49q-61 6 -117.5 6t-99.5 -12.5t-70 -40t-27 -78.5 q-2 -117 45.5 -198t114 -132t140 -73.5t126.5 -22.5q55 0 85 22.5t42.5 56.5t13.5 72.5t-3 69.5l114 -565q-139 180 -247.5 251.5t-186.5 71.5q-43 0 -76.5 -17t-58.5 -47t-39 -69t-18 -82q-8 -88 6 -173t55 -151.5t109 -109.5t164 -47q147 -8 240 46t152.5 152.5 t96.5 231.5t74 287l-142 -764h-1345q180 10 275.5 60.5t137.5 148.5t47 244.5t5 349.5v87t-6.5 58.5t-20.5 32.5t-43 10q-47 0 -86 -45t-73.5 -116.5t-67.5 -164t-65.5 -188.5t-69.5 -187t-79 -163t-93.5 -116t-114.5 -44q-150 0 -220.5 98.5t-51.5 329.5zM174 583.5 q-2 -106.5 19.5 -188.5t67.5 -131t116 -47q47 2 99 62.5t107.5 156.5t108.5 214t100.5 231.5t84 210t59.5 149.5t28 88t-2.5 55.5t-28 28.5t-48.5 6q-143 -8 -257 -63.5t-198 -141.5t-140.5 -194.5t-85 -219t-30.5 -217z" />
<glyph unicode="&#xe7;" horiz-adv-x="1437" d="M61 748q0 147 51.5 279t139.5 231.5t208 158t257 58.5q150 0 275.5 -73t219.5 -183q27 -31 64 -51.5t90 -28.5h-328q-49 2 -74.5 17t-52.5 42q-96 94 -190 138t-172 44q-59 0 -107 -24q-74 -37 -127 -116t-71.5 -190.5t2 -249.5t92.5 -294q63 -115 134 -197t143.5 -134 t144 -76.5t133.5 -24.5q74 0 135 32q115 59 165 193.5t17 327.5q-14 82 -28.5 132t-40 77.5t-68.5 39t-112 15.5h368q35 0 39 -39q2 -16 6 -68.5t-4 -140.5q-14 -154 -68.5 -278.5t-141.5 -213t-199.5 -136.5t-243.5 -48q-129 0 -248 55.5t-210 158t-144.5 246.5t-53.5 321z M389 -379q59 -119 119 -165t139 -44q78 2 133.5 34t77.5 87q25 57 21 107.5t-30.5 87t-76 57t-114.5 20.5q-66 0 -150 -24q80 39 155 93t122 126h49q-18 -27 -58 -72t-112 -90q43 6 84 6q82 0 143.5 -27.5t96 -73.5t43 -106.5t-16.5 -125.5q-16 -43 -46 -73t-69 -48.5 t-82 -26.5t-83 -8q-125 -2 -204 59.5t-141 206.5z" />
<glyph unicode="&#xe8;" horiz-adv-x="1372" d="M61 1434h994l166 -654q-53 176 -122 291t-142.5 182.5t-146.5 97t-134 35.5q-68 6 -125 -3t-99 -33.5t-66 -64.5t-24 -95q0 -106 42 -186t104.5 -133.5t137.5 -80t142 -26.5q49 0 79 20.5t45.5 52t17.5 71.5t-4 77l114 -565q-33 45 -82 101.5t-106 105.5t-120.5 82.5 t-125.5 33.5q-86 0 -133 -63.5t-57 -151.5q-10 -90 5 -175t57 -151.5t108.5 -108.5t161.5 -46q147 -8 240 46t153 153q59 98 96 231t74 287l-142 -764h-1036q92 104 129 279.5t27 439.5q-4 96 -21.5 213t-46 223.5t-69.5 184t-91 94.5zM346 1923h476q-35 -4 -76 -15.5 t-67.5 -32t-31 -51t34.5 -73.5q18 -18 33.5 -32.5t29 -37t21.5 -61.5t11 -107q-8 72 -32 110t-52.5 59.5t-60.5 35t-58 33.5q-45 35 -70.5 63.5t-47 50t-45.5 37t-65 21.5z" />
<glyph unicode="&#xe9;" horiz-adv-x="1372" d="M61 1434h994l166 -654q-53 176 -122 291t-142.5 182.5t-146.5 97t-134 35.5q-68 6 -125 -3t-99 -33.5t-66 -64.5t-24 -95q0 -106 42 -186t104.5 -133.5t137.5 -80t142 -26.5q49 0 79 20.5t45.5 52t17.5 71.5t-4 77l114 -565q-33 45 -82 101.5t-106 105.5t-120.5 82.5 t-125.5 33.5q-86 0 -133 -63.5t-57 -151.5q-10 -90 5 -175t57 -151.5t108.5 -108.5t161.5 -46q147 -8 240 46t153 153q59 98 96 231t74 287l-142 -764h-1036q92 104 129 279.5t27 439.5q-4 96 -21.5 213t-46 223.5t-69.5 184t-91 94.5zM469 1923h476q-41 -6 -64.5 -21.5 t-45 -37t-47.5 -50t-71 -63.5q-27 -20 -58.5 -33.5t-60 -35t-51 -59.5t-33.5 -110q2 68 10.5 107t22 61.5t28.5 37t34 32.5q39 43 34.5 73.5t-31 51t-67.5 32t-76 15.5z" />
<glyph unicode="&#xea;" horiz-adv-x="1372" d="M61 1434h994l166 -654q-53 176 -122 291t-142.5 182.5t-146.5 97t-134 35.5q-68 6 -125 -3t-99 -33.5t-66 -64.5t-24 -95q0 -106 42 -186t104.5 -133.5t137.5 -80t142 -26.5q49 0 79 20.5t45.5 52t17.5 71.5t-4 77l114 -565q-33 45 -82 101.5t-106 105.5t-120.5 82.5 t-125.5 33.5q-86 0 -133 -63.5t-57 -151.5q-10 -90 5 -175t57 -151.5t108.5 -108.5t161.5 -46q147 -8 240 46t153 153q59 98 96 231t74 287l-142 -764h-1036q92 104 129 279.5t27 439.5q-4 96 -21.5 213t-46 223.5t-69.5 184t-91 94.5zM305 1505q55 68 86 111t53.5 79 t44 72.5t58.5 90.5q20 29 36.5 47t41.5 18t41 -18.5t37 -46.5q37 -53 58.5 -90t44 -73t53 -79t85.5 -111q-117 111 -194.5 178.5t-124.5 67.5q-57 0 -133 -70.5t-187 -175.5z" />
<glyph unicode="&#xeb;" horiz-adv-x="1372" d="M61 1434h994l166 -654q-53 176 -122 291t-142.5 182.5t-146.5 97t-134 35.5q-68 6 -125 -3t-99 -33.5t-66 -64.5t-24 -95q0 -106 42 -186t104.5 -133.5t137.5 -80t142 -26.5q49 0 79 20.5t45.5 52t17.5 71.5t-4 77l114 -565q-33 45 -82 101.5t-106 105.5t-120.5 82.5 t-125.5 33.5q-86 0 -133 -63.5t-57 -151.5q-10 -90 5 -175t57 -151.5t108.5 -108.5t161.5 -46q147 -8 240 46t153 153q59 98 96 231t74 287l-142 -764h-1036q92 104 129 279.5t27 439.5q-4 96 -21.5 213t-46 223.5t-69.5 184t-91 94.5zM276 1714q0 53 37 89t86 36 q47 0 85 -36t38 -89q0 -51 -38 -86t-85 -35q-49 0 -86 35t-37 86zM686 1714q0 53 37 89t86 36q47 0 85 -36t38 -89q0 -51 -38 -86t-85 -35q-49 0 -86 35t-37 86z" />
<glyph unicode="&#xec;" horiz-adv-x="1064" d="M71.5 592q26.5 76 125.5 149q43 33 73.5 55.5t56 42t49 38t52.5 43.5q31 27 45 62.5t15 75.5t-6 81t-19 78q-20 63 -55 104t-81 65.5t-100.5 36t-109.5 11.5h819q-254 0 -291 -217q-14 -88 -38.5 -161t-94.5 -132q-61 -53 -115.5 -98.5t-91.5 -79t-51 -56t2 -35.5 q23 -14 81 26t130 107.5t147.5 147.5t133.5 145q35 39 75.5 63.5t81.5 24.5t74 -30q43 -41 14.5 -107.5t-98.5 -126.5q-35 -29 -60.5 -47t-48 -33.5t-46 -30t-52.5 -36.5q-53 -39 -78.5 -86t-32 -100.5t-1 -112t13.5 -119.5q12 -106 40.5 -172t71.5 -102.5t101.5 -50 t132.5 -15.5h-819q68 2 122 15.5t96 50t69.5 102t39.5 172.5q6 55 8.5 102t10.5 91.5t29.5 87.5t66.5 90q35 37 83 73.5t89 70.5t64.5 61.5t9.5 44.5q-6 8 -19 8q-29 0 -83 -39t-119.5 -98.5t-135 -130t-129.5 -132.5q-43 -47 -91 -83.5t-89 -36.5q-27 0 -47 20 q-47 47 -20.5 123zM215 1923h476q-35 -4 -76 -15.5t-67.5 -32t-31 -51t34.5 -73.5q18 -18 33.5 -32.5t29 -37t21.5 -61.5t11 -107q-8 72 -32 110t-52.5 59.5t-60.5 35t-58 33.5q-45 35 -70.5 63.5t-47 50t-45.5 37t-65 21.5z" />
<glyph unicode="&#xed;" horiz-adv-x="1064" d="M71.5 592q26.5 76 125.5 149q43 33 73.5 55.5t56 42t49 38t52.5 43.5q31 27 45 62.5t15 75.5t-6 81t-19 78q-20 63 -55 104t-81 65.5t-100.5 36t-109.5 11.5h819q-254 0 -291 -217q-14 -88 -38.5 -161t-94.5 -132q-61 -53 -115.5 -98.5t-91.5 -79t-51 -56t2 -35.5 q23 -14 81 26t130 107.5t147.5 147.5t133.5 145q35 39 75.5 63.5t81.5 24.5t74 -30q43 -41 14.5 -107.5t-98.5 -126.5q-35 -29 -60.5 -47t-48 -33.5t-46 -30t-52.5 -36.5q-53 -39 -78.5 -86t-32 -100.5t-1 -112t13.5 -119.5q12 -106 40.5 -172t71.5 -102.5t101.5 -50 t132.5 -15.5h-819q68 2 122 15.5t96 50t69.5 102t39.5 172.5q6 55 8.5 102t10.5 91.5t29.5 87.5t66.5 90q35 37 83 73.5t89 70.5t64.5 61.5t9.5 44.5q-6 8 -19 8q-29 0 -83 -39t-119.5 -98.5t-135 -130t-129.5 -132.5q-43 -47 -91 -83.5t-89 -36.5q-27 0 -47 20 q-47 47 -20.5 123zM358 1923h476q-41 -6 -64.5 -21.5t-45 -37t-47.5 -50t-71 -63.5q-27 -20 -58.5 -33.5t-60 -35t-51 -59.5t-33.5 -110q2 68 10.5 107t22 61.5t28.5 37t34 32.5q39 43 34.5 73.5t-31 51t-67.5 32t-76 15.5z" />
<glyph unicode="&#xee;" horiz-adv-x="1064" d="M71.5 592q26.5 76 125.5 149q43 33 73.5 55.5t56 42t49 38t52.5 43.5q31 27 45 62.5t15 75.5t-6 81t-19 78q-20 63 -55 104t-81 65.5t-100.5 36t-109.5 11.5h819q-254 0 -291 -217q-14 -88 -38.5 -161t-94.5 -132q-61 -53 -115.5 -98.5t-91.5 -79t-51 -56t2 -35.5 q23 -14 81 26t130 107.5t147.5 147.5t133.5 145q35 39 75.5 63.5t81.5 24.5t74 -30q43 -41 14.5 -107.5t-98.5 -126.5q-35 -29 -60.5 -47t-48 -33.5t-46 -30t-52.5 -36.5q-53 -39 -78.5 -86t-32 -100.5t-1 -112t13.5 -119.5q12 -106 40.5 -172t71.5 -102.5t101.5 -50 t132.5 -15.5h-819q68 2 122 15.5t96 50t69.5 102t39.5 172.5q6 55 8.5 102t10.5 91.5t29.5 87.5t66.5 90q35 37 83 73.5t89 70.5t64.5 61.5t9.5 44.5q-6 8 -19 8q-29 0 -83 -39t-119.5 -98.5t-135 -130t-129.5 -132.5q-43 -47 -91 -83.5t-89 -36.5q-27 0 -47 20 q-47 47 -20.5 123zM215 1505q55 68 86 111t53.5 79t44 72.5t58.5 90.5q20 29 36.5 47t41.5 18t41 -18.5t37 -46.5q37 -53 58.5 -90t44 -73t53 -79t85.5 -111q-117 111 -194.5 178.5t-124.5 67.5q-57 0 -133 -70.5t-187 -175.5z" />
<glyph unicode="&#xef;" horiz-adv-x="1064" d="M71.5 592q26.5 76 125.5 149q43 33 73.5 55.5t56 42t49 38t52.5 43.5q31 27 45 62.5t15 75.5t-6 81t-19 78q-20 63 -55 104t-81 65.5t-100.5 36t-109.5 11.5h819q-254 0 -291 -217q-14 -88 -38.5 -161t-94.5 -132q-61 -53 -115.5 -98.5t-91.5 -79t-51 -56t2 -35.5 q23 -14 81 26t130 107.5t147.5 147.5t133.5 145q35 39 75.5 63.5t81.5 24.5t74 -30q43 -41 14.5 -107.5t-98.5 -126.5q-35 -29 -60.5 -47t-48 -33.5t-46 -30t-52.5 -36.5q-53 -39 -78.5 -86t-32 -100.5t-1 -112t13.5 -119.5q12 -106 40.5 -172t71.5 -102.5t101.5 -50 t132.5 -15.5h-819q68 2 122 15.5t96 50t69.5 102t39.5 172.5q6 55 8.5 102t10.5 91.5t29.5 87.5t66.5 90q35 37 83 73.5t89 70.5t64.5 61.5t9.5 44.5q-6 8 -19 8q-29 0 -83 -39t-119.5 -98.5t-135 -130t-129.5 -132.5q-43 -47 -91 -83.5t-89 -36.5q-27 0 -47 20 q-47 47 -20.5 123zM206 1714q0 53 37 89t86 36q47 0 85 -36t38 -89q0 -51 -38 -86t-85 -35q-49 0 -86 35t-37 86zM616 1714q0 53 37 89t86 36q47 0 85 -36t38 -89q0 -51 -38 -86t-85 -35q-49 0 -86 35t-37 86z" />
<glyph unicode="&#xf0;" horiz-adv-x="1368" d="M61 0q37 0 65 11.5t48.5 51t35.5 114.5t30 204q2 25 3 58.5t2 71.5t1 76v68q0 39 -11.5 54.5t-54.5 15.5h-119v47h113q53 0 66.5 18.5t11.5 75.5q-2 90 -12 187q-10 123 -26.5 196.5t-38 113.5t-49.5 54.5t-65 16.5h369q100 0 199.5 -7.5t192.5 -34t175 -75.5t145.5 -133 t105.5 -209t55 -299q12 -174 -17 -292t-84 -192.5t-134 -113.5t-167 -56.5t-180 -19.5t-176 -2h-484zM373 1071l12 -201q2 -27 4 -45t9.5 -30.5t21.5 -17.5t41 -5h260v-47h-256q-45 0 -58.5 -18.5t-15.5 -63.5q-2 -31 -3 -65.5t-3 -68.5t-4 -62.5t-4 -47.5q-18 -178 30 -262 t179 -90h103t111.5 14.5t105.5 53.5t87 116.5t54.5 203.5t7.5 315q-12 227 -60.5 355t-118 190.5t-150.5 76.5t-159 14q-63 0 -104 -19t-62.5 -58t-27.5 -98.5t0 -139.5z" />
<glyph unicode="&#xf1;" horiz-adv-x="1474" d="M61 0q37 4 75 16.5t69 38t50 66.5t21 102q2 57 0 143.5t-6 188.5t-11 213t-17 215q-10 117 -19.5 208t-1.5 153.5t40 96.5t101 34q33 0 72 -7q117 -20 198 -117.5t140 -233.5t104.5 -291.5t90.5 -295t96 -243t123 -133.5q25 -10 41 -11q49 0 79.5 53.5t45 142.5t11.5 208 t-22 248q-23 158 -53.5 260t-65 165.5t-71.5 95.5t-72 48q-45 23 -112.5 35t-139 19t-140.5 10.5t-118 5.5h545q25 0 48.5 -3.5t47 -13.5t43 -32.5t33.5 -61.5q31 -78 54.5 -192.5t40 -241.5t24.5 -253t8 -226q0 -96 -10 -178t-37 -140.5t-70 -91.5t-110 -33 q-88 0 -153.5 56.5t-118 147.5t-94.5 208t-78.5 239.5t-73.5 239.5t-79 208t-94.5 147.5t-119.5 56.5q-47 0 -66.5 -39t-21.5 -106.5t7 -157.5t15 -193q16 -240 52 -387t101.5 -230t168 -115t250.5 -42h-820zM354 1532q4 109 27 197q10 37 24.5 71.5t35 62t48 44t64.5 16.5 q41 0 68.5 -24.5t49 -58.5t39 -70.5t36.5 -63.5q23 -35 62.5 -53.5t82.5 -18.5q92 0 135 75t53 194q-4 -109 -24 -195q-12 -49 -33.5 -94t-55.5 -74t-83 -29q-41 0 -67.5 22.5t-45 53.5t-34 66t-33.5 59q-61 80 -156 80q-96 0 -138.5 -72.5t-54.5 -187.5z" />
<glyph unicode="&#xf2;" d="M61 748q0 147 51.5 279t139.5 231.5t208 158t257 58.5t257 -58.5t209 -158t140 -231.5t51 -279q0 -176 -50 -320.5t-137 -247t-208 -158t-262 -55.5q-129 0 -248 55.5t-210 158t-144.5 246.5t-53.5 321zM243.5 1045.5q-18.5 -109.5 2 -246.5t92.5 -293q63 -115 134 -197 t143.5 -134t144 -76.5t133.5 -24.5q74 0 135 32q76 39 125 113t64.5 175.5t-7 229.5t-94.5 277q-57 123 -130 212t-147.5 146.5t-149.5 85t-138 27.5q-61 0 -109 -24q-74 -37 -127 -115t-71.5 -187.5zM378 1923h476q-35 -4 -76 -15.5t-67.5 -32t-31 -51t34.5 -73.5 q18 -18 33.5 -32.5t29 -37t21.5 -61.5t11 -107q-8 72 -32 110t-52.5 59.5t-60.5 35t-58 33.5q-45 35 -70.5 63.5t-47 50t-45.5 37t-65 21.5z" />
<glyph unicode="&#xf3;" d="M61 748q0 147 51.5 279t139.5 231.5t208 158t257 58.5t257 -58.5t209 -158t140 -231.5t51 -279q0 -176 -50 -320.5t-137 -247t-208 -158t-262 -55.5q-129 0 -248 55.5t-210 158t-144.5 246.5t-53.5 321zM243.5 1045.5q-18.5 -109.5 2 -246.5t92.5 -293q63 -115 134 -197 t143.5 -134t144 -76.5t133.5 -24.5q74 0 135 32q76 39 125 113t64.5 175.5t-7 229.5t-94.5 277q-57 123 -130 212t-147.5 146.5t-149.5 85t-138 27.5q-61 0 -109 -24q-74 -37 -127 -115t-71.5 -187.5zM481 1923h476q-41 -6 -64.5 -21.5t-45 -37t-47.5 -50t-71 -63.5 q-27 -20 -58.5 -33.5t-60 -35t-51 -59.5t-33.5 -110q2 68 10.5 107t22 61.5t28.5 37t34 32.5q39 43 34.5 73.5t-31 51t-67.5 32t-76 15.5z" />
<glyph unicode="&#xf4;" d="M61 748q0 147 51.5 279t139.5 231.5t208 158t257 58.5t257 -58.5t209 -158t140 -231.5t51 -279q0 -176 -50 -320.5t-137 -247t-208 -158t-262 -55.5q-129 0 -248 55.5t-210 158t-144.5 246.5t-53.5 321zM243.5 1045.5q-18.5 -109.5 2 -246.5t92.5 -293q63 -115 134 -197 t143.5 -134t144 -76.5t133.5 -24.5q74 0 135 32q76 39 125 113t64.5 175.5t-7 229.5t-94.5 277q-57 123 -130 212t-147.5 146.5t-149.5 85t-138 27.5q-61 0 -109 -24q-74 -37 -127 -115t-71.5 -187.5zM399 1505q55 68 86 111t53.5 79t44 72.5t58.5 90.5q20 29 36.5 47 t41.5 18t41 -18.5t37 -46.5q37 -53 58.5 -90t44 -73t53 -79t85.5 -111q-117 111 -194.5 178.5t-124.5 67.5q-57 0 -133 -70.5t-187 -175.5z" />
<glyph unicode="&#xf5;" d="M61 748q0 147 51.5 279t139.5 231.5t208 158t257 58.5t257 -58.5t209 -158t140 -231.5t51 -279q0 -176 -50 -320.5t-137 -247t-208 -158t-262 -55.5q-129 0 -248 55.5t-210 158t-144.5 246.5t-53.5 321zM243.5 1045.5q-18.5 -109.5 2 -246.5t92.5 -293q63 -115 134 -197 t143.5 -134t144 -76.5t133.5 -24.5q74 0 135 32q76 39 125 113t64.5 175.5t-7 229.5t-94.5 277q-57 123 -130 212t-147.5 146.5t-149.5 85t-138 27.5q-61 0 -109 -24q-74 -37 -127 -115t-71.5 -187.5zM315 1532q4 109 27 197q10 37 24.5 71.5t35 62t48 44t64.5 16.5 q41 0 68.5 -24.5t49 -58.5t39 -70.5t36.5 -63.5q23 -35 62.5 -53.5t82.5 -18.5q92 0 135 75t53 194q-4 -109 -24 -195q-12 -49 -33.5 -94t-55.5 -74t-83 -29q-41 0 -67.5 22.5t-45 53.5t-34 66t-33.5 59q-61 80 -156 80q-96 0 -138.5 -72.5t-54.5 -187.5z" />
<glyph unicode="&#xf6;" d="M61 748q0 147 51.5 279t139.5 231.5t208 158t257 58.5t257 -58.5t209 -158t140 -231.5t51 -279q0 -176 -50 -320.5t-137 -247t-208 -158t-262 -55.5q-129 0 -248 55.5t-210 158t-144.5 246.5t-53.5 321zM243.5 1045.5q-18.5 -109.5 2 -246.5t92.5 -293q63 -115 134 -197 t143.5 -134t144 -76.5t133.5 -24.5q74 0 135 32q76 39 125 113t64.5 175.5t-7 229.5t-94.5 277q-57 123 -130 212t-147.5 146.5t-149.5 85t-138 27.5q-61 0 -109 -24q-74 -37 -127 -115t-71.5 -187.5zM370 1714q0 53 37 89t86 36q47 0 85 -36t38 -89q0 -51 -38 -86t-85 -35 q-49 0 -86 35t-37 86zM780 1714q0 53 37 89t86 36q47 0 85 -36t38 -89q0 -51 -38 -86t-85 -35q-49 0 -86 35t-37 86z" />
<glyph unicode="&#xf8;" d="M61 748q0 147 51.5 279t139.5 231.5t208 158t257 58.5q90 0 173 -29t154 -74q18 -12 29 -12q12 0 31 24l31 50h61l-61 -99q-12 -18 2 -32q111 -100 174 -245t63 -310q0 -176 -50 -320.5t-137 -247t-208 -158t-262 -55.5q-174 0 -326 99q-25 14 -35 14q-8 0 -20 -12 l-43 -68h-53l53 86q16 29 11 41t-21 29q-100 104 -161 254t-61 338zM243.5 1049.5q-18.5 -111.5 2 -249.5t92.5 -294q41 -59 65.5 -88t47.5 -29q20 0 40.5 23.5t49.5 70.5l358 572q18 33 27.5 54t8.5 38.5t-14.5 35t-37.5 42.5q-88 78 -177.5 115.5t-162.5 37.5 q-55 0 -101 -22q-74 -37 -127 -116t-71.5 -190.5zM504 301q2 -18 16.5 -36.5t42.5 -47.5q86 -74 171 -108.5t161 -34.5q72 0 133 32q76 39 126 113t65.5 176.5t-8 230.5t-95.5 275q-41 88 -67.5 129t-51.5 41q-20 0 -42.5 -27.5t-55.5 -82.5l4 6l-358 -568 q-23 -35 -33 -57.5t-8 -40.5z" />
<glyph unicode="&#xf9;" horiz-adv-x="1634" d="M61 1434h1512q-12 -2 -36 -6.5t-54.5 -18.5t-65 -44t-69.5 -81q-59 -92 -64.5 -180t35.5 -193q37 -94 64.5 -201.5t30.5 -212t-22.5 -200.5t-93 -170t-184.5 -117t-295 -43t-294.5 43t-184.5 117t-93.5 170t-22.5 200.5t31 212t64 201.5q41 104 36 192.5t-64 180.5 q-33 51 -69 81t-67.5 44t-56 18.5t-37.5 6.5zM436.5 462q-20.5 -130 11 -229.5t121.5 -160t250 -60.5q152 0 239 59.5t118.5 158t15.5 228.5t-72 271q-43 111 -43 185.5t20.5 135t50.5 114t44 120.5q12 51 -20.5 80t-90 43t-127 18.5t-135.5 4.5t-136.5 -4.5t-127.5 -18.5 t-89 -43t-20 -80q16 -68 47 -122t52.5 -114.5t20.5 -135t-48 -183.5q-61 -137 -81.5 -267zM497 1923h476q-35 -4 -76 -15.5t-67.5 -32t-31 -51t34.5 -73.5q18 -18 33.5 -32.5t29 -37t21.5 -61.5t11 -107q-8 72 -32 110t-52.5 59.5t-60.5 35t-58 33.5q-45 35 -70.5 63.5 t-47 50t-45.5 37t-65 21.5z" />
<glyph unicode="&#xfa;" horiz-adv-x="1634" d="M61 1434h1512q-12 -2 -36 -6.5t-54.5 -18.5t-65 -44t-69.5 -81q-59 -92 -64.5 -180t35.5 -193q37 -94 64.5 -201.5t30.5 -212t-22.5 -200.5t-93 -170t-184.5 -117t-295 -43t-294.5 43t-184.5 117t-93.5 170t-22.5 200.5t31 212t64 201.5q41 104 36 192.5t-64 180.5 q-33 51 -69 81t-67.5 44t-56 18.5t-37.5 6.5zM436.5 462q-20.5 -130 11 -229.5t121.5 -160t250 -60.5q152 0 239 59.5t118.5 158t15.5 228.5t-72 271q-43 111 -43 185.5t20.5 135t50.5 114t44 120.5q12 51 -20.5 80t-90 43t-127 18.5t-135.5 4.5t-136.5 -4.5t-127.5 -18.5 t-89 -43t-20 -80q16 -68 47 -122t52.5 -114.5t20.5 -135t-48 -183.5q-61 -137 -81.5 -267zM641 1923h476q-41 -6 -64.5 -21.5t-45 -37t-47.5 -50t-71 -63.5q-27 -20 -58.5 -33.5t-60 -35t-51 -59.5t-33.5 -110q2 68 10.5 107t22 61.5t28.5 37t34 32.5q39 43 34.5 73.5 t-31 51t-67.5 32t-76 15.5z" />
<glyph unicode="&#xfb;" horiz-adv-x="1634" d="M61 1434h1512q-12 -2 -36 -6.5t-54.5 -18.5t-65 -44t-69.5 -81q-59 -92 -64.5 -180t35.5 -193q37 -94 64.5 -201.5t30.5 -212t-22.5 -200.5t-93 -170t-184.5 -117t-295 -43t-294.5 43t-184.5 117t-93.5 170t-22.5 200.5t31 212t64 201.5q41 104 36 192.5t-64 180.5 q-33 51 -69 81t-67.5 44t-56 18.5t-37.5 6.5zM436.5 462q-20.5 -130 11 -229.5t121.5 -160t250 -60.5q152 0 239 59.5t118.5 158t15.5 228.5t-72 271q-43 111 -43 185.5t20.5 135t50.5 114t44 120.5q12 51 -20.5 80t-90 43t-127 18.5t-135.5 4.5t-136.5 -4.5t-127.5 -18.5 t-89 -43t-20 -80q16 -68 47 -122t52.5 -114.5t20.5 -135t-48 -183.5q-61 -137 -81.5 -267zM497 1505q55 68 86 111t53.5 79t44 72.5t58.5 90.5q20 29 36.5 47t41.5 18t41 -18.5t37 -46.5q37 -53 58.5 -90t44 -73t53 -79t85.5 -111q-117 111 -194.5 178.5t-124.5 67.5 q-57 0 -133 -70.5t-187 -175.5z" />
<glyph unicode="&#xfc;" horiz-adv-x="1634" d="M61 1434h1512q-12 -2 -36 -6.5t-54.5 -18.5t-65 -44t-69.5 -81q-59 -92 -64.5 -180t35.5 -193q37 -94 64.5 -201.5t30.5 -212t-22.5 -200.5t-93 -170t-184.5 -117t-295 -43t-294.5 43t-184.5 117t-93.5 170t-22.5 200.5t31 212t64 201.5q41 104 36 192.5t-64 180.5 q-33 51 -69 81t-67.5 44t-56 18.5t-37.5 6.5zM436.5 462q-20.5 -130 11 -229.5t121.5 -160t250 -60.5q152 0 239 59.5t118.5 158t15.5 228.5t-72 271q-43 111 -43 185.5t20.5 135t50.5 114t44 120.5q12 51 -20.5 80t-90 43t-127 18.5t-135.5 4.5t-136.5 -4.5t-127.5 -18.5 t-89 -43t-20 -80q16 -68 47 -122t52.5 -114.5t20.5 -135t-48 -183.5q-61 -137 -81.5 -267zM489 1714q0 53 37 89t86 36q47 0 85 -36t38 -89q0 -51 -38 -86t-85 -35q-49 0 -86 35t-37 86zM899 1714q0 53 37 89t86 36q47 0 85 -36t38 -89q0 -51 -38 -86t-85 -35q-49 0 -86 35 t-37 86z" />
<glyph unicode="&#xfd;" horiz-adv-x="1667" d="M61 1434h355q39 0 66.5 -6.5t37.5 -30.5q86 -223 149.5 -376t105.5 -247t63.5 -138t25.5 -50q37 -63 84 -64q45 0 90 52.5t80 144.5q33 90 60.5 173t42 158.5t9.5 142.5t-40 120q-27 43 -80 65.5t-113.5 33.5t-118 15.5t-92.5 6.5h820q-111 -6 -173.5 -70t-108.5 -180.5 t-94 -280.5t-132 -371q-23 -57 -46.5 -85.5t-40 -54t-21.5 -60.5t7 -103q12 -59 35 -100t62 -67.5t96 -41t137 -20.5h-819q92 6 150.5 20.5t95.5 41t56 67.5t32 100q14 68 1.5 104t-38 65.5t-60 66.5t-65.5 108q-29 66 -50.5 114t-39 89t-34.5 80t-37.5 86t-47.5 109.5 t-65 150.5q-43 102 -129.5 165t-215.5 67zM657 1923h476q-41 -6 -64.5 -21.5t-45 -37t-47.5 -50t-71 -63.5q-27 -20 -58.5 -33.5t-60 -35t-51 -59.5t-33.5 -110q2 68 10.5 107t22 61.5t28.5 37t34 32.5q39 43 34.5 73.5t-31 51t-67.5 32t-76 15.5z" />
<glyph unicode="&#xfe;" horiz-adv-x="1394" d="M61 0q117 2 175.5 52t80 146.5t19.5 239t-6 328.5q-4 174 -8.5 299t-29 207t-76.5 121t-155 41h756q-135 -4 -215 -54.5t-115 -142.5q-16 -53 -1.5 -85t51.5 -32q25 0 52 12.5t62 28t80 27.5t107 12q113 0 204 -35t155.5 -99.5t100 -154.5t35.5 -200q0 -102 -36.5 -189.5 t-98 -150t-142.5 -98t-171 -35.5q-45 0 -84 8q-43 8 -81 23.5t-71 29.5t-60.5 24.5t-49.5 10.5q-37 0 -51.5 -38t1.5 -89q31 -104 110 -153.5t218 -53.5h-756zM486 771q5 -81 36 -165q53 -143 151.5 -230t203.5 -87q37 0 69 12q55 20 94 70.5t55.5 119t12.5 149.5t-35 165 q-27 72 -65.5 131t-86 101t-98.5 64.5t-102 22.5q-35 0 -70 -12q-57 -20 -96 -71.5t-56.5 -120t-12.5 -149.5z" />
<glyph unicode="&#xff;" horiz-adv-x="1667" d="M61 1434h355q39 0 66.5 -6.5t37.5 -30.5q86 -223 149.5 -376t105.5 -247t63.5 -138t25.5 -50q37 -63 84 -64q45 0 90 52.5t80 144.5q33 90 60.5 173t42 158.5t9.5 142.5t-40 120q-27 43 -80 65.5t-113.5 33.5t-118 15.5t-92.5 6.5h820q-111 -6 -173.5 -70t-108.5 -180.5 t-94 -280.5t-132 -371q-23 -57 -46.5 -85.5t-40 -54t-21.5 -60.5t7 -103q12 -59 35 -100t62 -67.5t96 -41t137 -20.5h-819q92 6 150.5 20.5t95.5 41t56 67.5t32 100q14 68 1.5 104t-38 65.5t-60 66.5t-65.5 108q-29 66 -50.5 114t-39 89t-34.5 80t-37.5 86t-47.5 109.5 t-65 150.5q-43 102 -129.5 165t-215.5 67zM526 1714q0 53 37 89t86 36q47 0 85 -36t38 -89q0 -51 -38 -86t-85 -35q-49 0 -86 35t-37 86zM936 1714q0 53 37 89t86 36q47 0 85 -36t38 -89q0 -51 -38 -86t-85 -35q-49 0 -86 35t-37 86z" />
<glyph unicode="&#x152;" horiz-adv-x="2228" d="M61 748q0 147 51.5 279t136.5 231.5t195.5 158t231.5 58.5q61 0 124.5 -10.5t128 -25t129 -28.5t132.5 -22q55 -6 146 -13.5t196 -7.5q109 0 211 13.5t168 52.5l166 -654q-2 8 -16.5 49t-43 98.5t-72.5 123t-105.5 123t-143.5 97.5t-185 46q-61 4 -115.5 3t-93 -13.5 t-61 -39t-22.5 -77.5q0 -117 47 -199t113.5 -132t139 -72.5t126.5 -22.5q55 0 84.5 23.5t42 57.5t13.5 71.5t-3 68.5l114 -565q-111 154 -226.5 238.5t-207.5 84.5q-72 0 -120 -54t-62 -175q-8 -82 4 -168t51 -156.5t105 -119t164 -54.5q147 -8 240 50.5t152.5 163 t96.5 242.5t74 292l-142 -764q-117 -20 -204.5 -26.5t-157.5 -6.5q-94 0 -157.5 11.5t-111.5 24.5t-90 24.5t-96 11.5q-61 0 -118.5 -11.5t-116 -24.5t-117.5 -24.5t-121 -11.5q-145 0 -268 63.5t-213 171t-141.5 249t-51.5 297.5zM243.5 1045.5q-18.5 -109.5 2 -246.5 t92.5 -293q63 -115 134 -197t143.5 -134t144 -76.5t133.5 -24.5q74 0 135 32q76 39 126 113t65.5 176.5t-8 230.5t-95.5 275q-57 123 -129 212t-147.5 146.5t-150.5 85t-138 27.5q-61 0 -109 -24q-74 -37 -127 -115t-71.5 -187.5z" />
<glyph unicode="&#x153;" horiz-adv-x="2228" d="M61 748q0 147 51.5 279t136.5 231.5t195.5 158t231.5 58.5q61 0 124.5 -10.5t128 -25t129 -28.5t132.5 -22q55 -6 146 -13.5t196 -7.5q109 0 211 13.5t168 52.5l166 -654q-2 8 -16.5 49t-43 98.5t-72.5 123t-105.5 123t-143.5 97.5t-185 46q-61 4 -115.5 3t-93 -13.5 t-61 -39t-22.5 -77.5q0 -117 47 -199t113.5 -132t139 -72.5t126.5 -22.5q55 0 84.5 23.5t42 57.5t13.5 71.5t-3 68.5l114 -565q-111 154 -226.5 238.5t-207.5 84.5q-72 0 -120 -54t-62 -175q-8 -82 4 -168t51 -156.5t105 -119t164 -54.5q147 -8 240 50.5t152.5 163 t96.5 242.5t74 292l-142 -764q-117 -20 -204.5 -26.5t-157.5 -6.5q-94 0 -157.5 11.5t-111.5 24.5t-90 24.5t-96 11.5q-61 0 -118.5 -11.5t-116 -24.5t-117.5 -24.5t-121 -11.5q-145 0 -268 63.5t-213 171t-141.5 249t-51.5 297.5zM243.5 1045.5q-18.5 -109.5 2 -246.5 t92.5 -293q63 -115 134 -197t143.5 -134t144 -76.5t133.5 -24.5q74 0 135 32q76 39 126 113t65.5 176.5t-8 230.5t-95.5 275q-57 123 -129 212t-147.5 146.5t-150.5 85t-138 27.5q-61 0 -109 -24q-74 -37 -127 -115t-71.5 -187.5z" />
<glyph unicode="&#x178;" horiz-adv-x="1667" d="M61 1434h355q39 0 66.5 -6.5t37.5 -30.5q86 -223 149.5 -376t105.5 -247t63.5 -138t25.5 -50q37 -63 84 -64q45 0 90 52.5t80 144.5q33 90 60.5 173t42 158.5t9.5 142.5t-40 120q-27 43 -80 65.5t-113.5 33.5t-118 15.5t-92.5 6.5h820q-111 -6 -173.5 -70t-108.5 -180.5 t-94 -280.5t-132 -371q-23 -57 -46.5 -85.5t-40 -54t-21.5 -60.5t7 -103q12 -59 35 -100t62 -67.5t96 -41t137 -20.5h-819q92 6 150.5 20.5t95.5 41t56 67.5t32 100q14 68 1.5 104t-38 65.5t-60 66.5t-65.5 108q-29 66 -50.5 114t-39 89t-34.5 80t-37.5 86t-47.5 109.5 t-65 150.5q-43 102 -129.5 165t-215.5 67zM567 1714q0 53 37 89t86 36q47 0 85 -36t38 -89q0 -51 -38 -86t-85 -35q-49 0 -86 35t-37 86zM977 1714q0 53 37 89t86 36q47 0 85 -36t38 -89q0 -51 -38 -86t-85 -35q-49 0 -86 35t-37 86z" />
<glyph unicode="&#x2c6;" horiz-adv-x="761" d="M61 1505q55 68 86 111t53.5 79t44 72.5t58.5 90.5q20 29 36.5 47t41.5 18t41 -18.5t37 -46.5q37 -53 58.5 -90t44 -73t53 -79t85.5 -111q-117 111 -194.5 178.5t-124.5 67.5q-57 0 -133 -70.5t-187 -175.5z" />
<glyph unicode="&#x2dc;" horiz-adv-x="847" d="M61 1532q4 109 27 197q10 37 24.5 71.5t35 62t48 44t64.5 16.5q41 0 68.5 -24.5t49 -58.5t39 -70.5t36.5 -63.5q23 -35 62.5 -53.5t82.5 -18.5q92 0 135 75t53 194q-4 -109 -24 -195q-12 -49 -33.5 -94t-55.5 -74t-83 -29q-41 0 -67.5 22.5t-45 53.5t-34 66t-33.5 59 q-61 80 -156 80q-96 0 -138.5 -72.5t-54.5 -187.5z" />
<glyph unicode="&#x2013;" horiz-adv-x="1552" d="M61 449v253q0 59 34 84t77 25h1104q72 0 111.5 4t60 26.5t29 69.5t14.5 133v-258q0 -55 -35 -79.5t-76 -24.5h-1101q-72 0 -113 -4t-61.5 -26.5t-28.5 -69.5t-15 -133z" />
<glyph unicode="&#x2014;" horiz-adv-x="2004" d="M61 449v253q0 59 34 84t77 25h1557q72 0 111.5 4t60 26.5t28.5 69.5t15 133v-258q0 -55 -35 -79.5t-76 -24.5h-1554q-72 0 -113 -4t-61.5 -26.5t-28.5 -69.5t-15 -133z" />
<glyph unicode="&#x2018;" horiz-adv-x="421" d="M68 1350q-12 68 2 125t51 111t96 107.5t137 114.5q-78 -61 -132 -129.5t-81.5 -127t-31 -97.5t21.5 -39q14 0 20.5 9.5t14.5 20.5t23.5 20.5t48.5 9.5q59 0 90.5 -38t31.5 -91q0 -47 -35.5 -81t-88.5 -38q-68 -4 -113 29t-55 94z" />
<glyph unicode="&#x2019;" horiz-adv-x="421" d="M61 1356q0 47 36 80.5t89 38.5q68 4 113 -29t55 -94q12 -68 -2 -125.5t-51 -111.5t-96.5 -107.5t-136.5 -114.5q78 61 132 130t81.5 127t30.5 97t-21 39q-14 0 -20.5 -9t-14.5 -19.5t-23.5 -19.5t-48.5 -9q-59 0 -91 37t-32 90z" />
<glyph unicode="&#x201a;" horiz-adv-x="598" d="M61 -219h476q-41 -6 -64.5 -21.5t-45 -37t-47.5 -50t-71 -63.5q-27 -20 -58.5 -33.5t-60 -35t-51 -60.5t-33.5 -109q2 68 10.5 107t22 61.5t28.5 36.5t34 33q39 43 34.5 73.5t-31 51t-67.5 32t-76 15.5z" />
<glyph unicode="&#x201c;" horiz-adv-x="774" d="M68 1350q-12 68 2 125t51 111t96 107.5t137 114.5q-78 -61 -132 -129.5t-81.5 -127t-31 -97.5t21.5 -39q14 0 20.5 9.5t14.5 20.5t23.5 20.5t48.5 9.5q59 0 90.5 -38t31.5 -91q0 -47 -35.5 -81t-88.5 -38q-68 -4 -113 29t-55 94zM420 1350q-12 68 2 125t51 111 t96.5 107.5t137.5 114.5q-78 -61 -132.5 -129.5t-82 -127t-30.5 -97.5t21 -39q14 0 20.5 9.5t14.5 20.5t23.5 20.5t48.5 9.5q59 0 91 -38t32 -91q0 -47 -36 -81t-89 -38q-68 -4 -113 29t-55 94z" />
<glyph unicode="&#x201d;" horiz-adv-x="774" d="M61 1356q0 47 36 80.5t89 38.5q68 4 113 -29t55 -94q12 -68 -2 -125.5t-51 -111.5t-96.5 -107.5t-136.5 -114.5q78 61 132 130t81.5 127t30.5 97t-21 39q-14 0 -20.5 -8t-14.5 -19.5t-23.5 -19.5t-48.5 -8q-59 0 -91 36t-32 89zM414 1356q0 47 35.5 80.5t89.5 38.5 q68 4 113 -29t55 -94q12 -68 -2.5 -125.5t-51.5 -111.5t-96 -107.5t-137 -114.5q78 61 132 130t82 127t31 97t-22 39q-14 0 -20.5 -8t-14.5 -19.5t-23.5 -19.5t-47.5 -8q-59 0 -91 36t-32 89z" />
<glyph unicode="&#x201e;" horiz-adv-x="774" d="M61 94q0 47 36 81t89 38q68 4 113 -29t55 -94q12 -68 -2 -125t-51 -111.5t-96.5 -107.5t-136.5 -115q78 61 132 130t81.5 127.5t30.5 97.5t-21 39q-14 0 -20.5 -9.5t-14.5 -19.5t-23.5 -19.5t-48.5 -9.5q-59 0 -91 37t-32 90zM414 94q0 47 35.5 81t89.5 38q68 4 113 -29 t55 -94q12 -68 -2.5 -125t-51.5 -111.5t-96 -107.5t-137 -115q78 61 132 130t82 127.5t31 97.5t-22 39q-14 0 -20.5 -9.5t-14.5 -19.5t-23.5 -19.5t-47.5 -9.5q-59 0 -91 37t-32 90z" />
<glyph unicode="&#x2022;" horiz-adv-x="532" d="M61 696q0 43 16.5 81t44.5 65.5t65.5 44t78.5 16.5t78 -16.5t64.5 -44t45 -65.5t17.5 -81t-17.5 -79.5t-45 -64.5t-64.5 -43t-78 -15t-78.5 15t-65.5 43t-44.5 64.5t-16.5 79.5z" />
<glyph unicode="&#x2026;" horiz-adv-x="1187" d="M61 88q0 53 37 89t86 36q47 0 85 -36t38 -89q0 -51 -38 -86t-85 -35q-49 0 -86 35t-37 86zM471 88q0 53 37 89t86 36q47 0 85 -36t38 -89q0 -51 -38 -86t-85 -35q-49 0 -86 35t-37 86zM881 88q0 53 36.5 89t86.5 36q47 0 84.5 -36t37.5 -89q0 -51 -37.5 -86t-84.5 -35 q-49 0 -86 35t-37 86z" />
<glyph unicode="&#x2039;" horiz-adv-x="714" d="M61 696q0 35 27 53.5t68 47.5q76 51 127 83.5t101 68.5t111.5 84t157.5 130q-158 -168 -253 -284.5t-95 -182.5q0 -41 26.5 -87t73 -101t111 -124t137.5 -155q-96 82 -157.5 130.5t-111.5 84t-101.5 68.5t-126.5 84q-41 29 -68 47.5t-27 52.5z" />
<glyph unicode="&#x203a;" horiz-adv-x="714" d="M61 229q74 86 138.5 155t110.5 124t73 101t27 87q0 66 -95.5 182.5t-253.5 284.5q96 -82 158 -130t112 -84t101 -68.5t127 -83.5q41 -29 67.5 -47.5t26.5 -53.5t-26.5 -53t-67.5 -47q-76 -51 -127 -84t-101 -68.5t-111.5 -84t-158.5 -130.5z" />
<glyph unicode="&#x20ac;" horiz-adv-x="1619" d="M61 633v47h136q41 0 45 14.5t4 53.5q0 29 1 47t-1 28.5t-10.5 15.5t-28.5 5h-146v47h156q27 0 35 5t12 17q25 119 84.5 221.5t142 178.5t188 119t222.5 43q150 0 276 -73t220 -183q27 -31 63.5 -52.5t89.5 -29.5l-327 2q-49 0 -75 16t-52 43q-96 94 -190.5 138t-172.5 44 q-80 0 -138 -41t-97 -103t-57.5 -138t-20.5 -144q0 -41 15.5 -51t74.5 -12h430v-47h-446q-37 0 -51.5 -10.5t-8.5 -49.5q8 -35 13.5 -55t12.5 -31.5t19.5 -14.5t32.5 -3h428v-47h-434q-31 0 -21 -35q35 -96 99.5 -190.5t144.5 -169t169 -120.5t177 -46q76 0 137 34 q115 59 165 193.5t18 327.5q-14 82 -28.5 132t-40.5 77.5t-69 39t-112 15.5h368q35 0 39 -39q2 -16 5.5 -68.5t-3.5 -140.5q-14 -154 -69 -278.5t-141.5 -213t-199 -136.5t-243.5 -48q-115 0 -222.5 44t-193.5 126t-145 198t-82 259q-4 23 -10 31t-25 8h-162z" />
<glyph unicode="&#x2122;" horiz-adv-x="1568" d="M61 1434q29 -8 105 -18.5t192 -10.5q117 0 190 10t103 19l-78 -312q6 80 6.5 130.5t-8 78t-29 36.5t-57.5 3q-47 -6 -63 -47t-21 -133q-4 -51 -5 -118.5t5 -135.5q6 -63 16.5 -99t28 -53.5t43 -23.5t62.5 -10h-391q37 4 63.5 9t45 22.5t28.5 53t14 101.5q6 68 5 136.5 t-5 117.5q-6 92 -24.5 133t-65.5 47q-39 6 -59.5 -9t-26.5 -49t-3 -82t7 -108zM571 750h13h-13zM584 750q10 0 27.5 3t36 13t36.5 28.5t33 51.5q14 35 29.5 88t28.5 112.5t22.5 117t11.5 96.5q2 80 -25.5 126t-111.5 48q123 -2 172 -1t57 -24q2 -6 6 -29.5t9.5 -51.5 t10.5 -53.5t7 -35.5q14 -66 27.5 -130.5t26.5 -114.5t27.5 -79.5t28.5 -29.5t27.5 29.5t29 78.5t31 112.5t31.5 133.5q2 10 8.5 35.5t13.5 53.5t12 51.5t7 29.5q6 25 56.5 24t175.5 1q-88 -2 -115 -54.5t-21 -140.5q2 -20 12.5 -72.5t25 -114t30 -118.5t27.5 -88t26.5 -50.5 t27.5 -28.5t25.5 -13t20.5 -4h-379q33 0 65.5 6t57.5 22.5t37 45t2 71.5q-6 31 -15.5 68.5t-17.5 73.5t-15 67t-11 47q-6 27 -19 27q-10 0 -16 -27q-12 -51 -28.5 -117.5t-38 -125t-46 -98.5t-51.5 -40q-39 0 -64.5 43t-44 104.5t-33 130t-28.5 119.5q-4 10 -8 11.5t-6 -9.5 q-2 -18 -8.5 -51t-13.5 -69.5t-14 -72.5t-12 -58q-10 -51 2.5 -84t39 -51.5t62.5 -25.5t71 -7h-379zM1495 750h12h-12z" />
<glyph unicode="&#x25fc;" horiz-adv-x="1433" d="M0 0v1434h1434v-1434h-1434z" />
</font>
</defs>
</svg>
